<?xml version="1.0" encoding="utf-8"?><!DOCTYPE svg PUBLIC "-//W3C//DTD SVG 1.1//EN" "http://www.w3.org/Graphics/SVG/1.1/DTD/svg11.dtd"><svg version="1.1" id="Contours" xmlns="http://www.w3.org/2000/svg" xmlns:xlink="http://www.w3.org/1999/xlink" x="0px" y="0px" width="990.610229px" height="990.610229px" viewBox="-0.000027 0.000012 990.610229 840.553467" enable-background="new 0 0 990.610229 990.610229" xml:space="preserve" stroke="black" fill="none" stroke-linecap='round' stroke-linejoin='round'><path class="selected"  fill="#000000" opacity="1.000000" stroke="none" 
 	d="
M123.704739 159.877155 C123.227932 145.405231 126.723782 132.862811 137.177761 122.983051 C139.588162 120.704852 142.251370 118.451038 145.208889 117.057941 C148.705471 115.411060 148.190090 114.127033 146.117947 111.715839 C140.545559 105.231281 133.062161 103.877674 125.457668 105.082263 C118.495144 106.185199 111.674465 108.666095 105.029202 111.170917 C96.132229 114.524555 90.509548 122.196491 84.460598 128.889972 C76.906765 137.248737 69.833157 146.392963 67.459377 157.755695 C63.975246 174.432330 65.917996 190.414874 77.987209 203.391681 C83.755520 209.593891 90.814724 214.666950 97.614529 219.822406 C108.771389 228.281452 117.590725 238.653278 120.449978 252.397785 C123.346706 266.322528 121.882595 280.299945 116.814602 293.894306 C113.336697 303.223346 108.746121 311.872638 102.461819 319.403766 C96.359280 326.717243 88.177029 331.272663 78.616238 332.853046 C73.748562 333.657672 68.821682 334.880390 63.952175 334.751483 C49.385891 334.365863 35.441555 332.322101 23.820828 321.749225 C14.367336 313.148151 7.499905 303.216510 2.647244 291.522418 C-3.896336 275.753436 1.987331 252.917438 17.023830 246.124469 C26.994656 241.619953 37.490261 238.180133 48.504543 239.065509 C57.314724 239.773639 67.861843 243.708942 69.870510 254.807392 C70.861111 260.280780 70.157742 266.323993 68.969143 271.839618 C68.124416 275.759357 65.396877 279.363422 63.137600 282.868610 C59.115383 289.108600 49.682278 289.901935 45.679958 283.895282 C44.585720 282.253192 46.320828 278.115192 47.666531 275.611041 C49.379910 272.422748 52.489651 269.976154 54.153347 266.771564 C57.144558 261.009967 54.950466 256.509418 48.606960 255.998126 C38.336941 255.170368 28.920315 257.873248 20.618923 264.374896 C13.972805 269.580097 13.939114 277.550922 16.131130 283.207294 C21.376492 296.742816 29.866116 309.374530 44.832058 313.051166 C58.731472 316.465778 73.639431 318.421955 86.614651 308.827716 C95.155056 302.512714 100.449612 293.694110 103.358791 283.631244 C106.852566 271.545978 108.115017 259.054340 102.412624 247.478961 C99.664944 241.901203 94.596706 237.145343 89.745876 232.990314 C78.922756 223.719806 67.421780 215.235553 61.119534 201.821735 C54.844387 188.465656 53.696926 174.958270 56.361965 160.244647 C58.823635 146.653705 66.033474 136.422626 74.556545 126.760150 C80.955471 119.505847 88.043362 112.684039 95.641628 106.708728 C104.390896 99.828205 115.729031 98.920032 126.103420 95.893543 C134.313625 93.498462 142.228909 95.127948 149.445583 99.028369 C153.481472 101.209674 156.648220 104.973712 160.297634 107.911426 C161.360622 108.767108 162.888210 109.976917 163.947414 109.762439 C174.948757 107.534839 185.279690 111.565112 195.907986 112.800403 C206.176663 113.993915 215.877956 111.410846 224.438137 105.784259 C232.120266 100.734699 239.767239 95.430011 246.560574 89.278156 C256.292385 80.465442 261.692776 69.311817 260.711453 55.716663 C260.336697 50.524463 259.785305 45.327564 259.768826 40.131366 C259.748196 33.676288 255.901150 29.634509 251.008205 26.983631 C232.875759 17.159809 214.504788 16.045001 196.883450 28.029132 C191.850002 31.452320 187.382351 36.227313 183.850124 41.226734 C177.041042 50.864398 181.779079 60.248950 186.531643 68.945239 C188.621243 72.768787 192.221462 76.008319 195.761990 78.684558 C197.283230 79.834522 201.011990 79.799152 202.667019 78.695911 C206.824246 75.924884 210.584621 72.445423 214.081814 68.840412 C216.141628 66.716998 214.208767 63.868610 210.593899 63.945789 C205.412258 64.056415 200.243923 64.695819 195.062405 64.971271 C193.920681 65.032031 192.437893 64.844715 191.696438 64.149005 C191.181301 63.665515 191.429836 62.041950 191.740627 61.054675 C195.964260 47.633167 213.261379 44.395282 222.646389 51.730701 C228.974026 56.676471 230.319119 65.858203 227.503079 73.432605 C223.275417 84.803485 215.690212 92.667865 203.372463 96.069141 C195.448757 98.257099 189.345608 95.372211 184.350735 90.741199 C171.325832 78.664905 163.370754 63.782794 164.863796 45.482593 C165.610622 36.329120 170.225491 28.340167 175.944485 21.122577 C184.550198 10.262195 196.228420 5.014484 209.369900 1.787006 C229.788357 -3.227765 247.181301 2.678943 263.356838 14.913837 C271.759304 21.269122 274.098415 30.459125 275.537869 39.783893 C277.278103 51.056842 277.392849 62.503711 273.694363 73.597370 C272.426540 77.400195 271.073147 81.175617 269.698513 84.941486 C265.054104 97.664905 267.796658 109.307147 275.364529 119.922016 C280.999783 127.826434 297.600002 130.514667 307.990871 126.181110 C316.679104 122.557575 322.361233 115.726856 326.478909 108.017230 C330.213162 101.025440 332.714748 93.167987 334.483791 85.401538 C335.822048 79.526325 332.221096 75.089649 327.101467 71.622150 C317.358303 65.023120 304.842190 68.039661 297.768215 74.272449 C295.466457 76.300434 294.937527 78.401813 296.411648 81.143543 C297.058865 82.347156 297.286892 83.776264 297.704739 85.103137 C299.800442 91.757007 299.554104 91.429675 304.982082 87.349903 C307.564480 85.409015 311.219997 84.430164 314.513577 84.025501 C318.193752 83.573413 319.162014 86.537494 318.664700 89.625690 C317.331326 97.905689 308.662380 105.302020 300.216946 105.922382 C294.394192 106.350116 291.298489 102.856708 288.885647 98.498309 C283.968288 89.615375 280.078030 80.456043 282.692288 69.889636 C284.825588 61.267139 291.820705 57.698841 299.062527 55.237323 C307.395657 52.404865 315.950344 51.571735 324.816921 54.740772 C337.016140 59.100940 348.678616 74.327106 345.050686 89.772449 C341.819485 103.528034 336.086453 115.628650 326.910427 125.696369 C321.117336 132.052570 313.082546 136.040607 303.717678 137.068683 C293.746975 138.163349 285.275784 135.555622 277.369534 130.019977 C268.799099 124.019245 264.692654 115.488971 263.719631 105.274127 C263.609524 104.117938 263.885525 102.906238 263.662136 101.784046 C263.331570 100.123126 262.714016 98.519306 262.218655 96.891193 C261.060574 98.040149 259.931301 99.220264 258.738674 100.332324 C254.195705 104.568378 250.124416 109.558948 244.964871 112.828296 C236.630154 118.109699 227.889431 123.051654 218.738186 126.661518 C208.806057 130.579364 198.160061 129.671527 187.750759 127.437946 C181.922024 126.187274 176.112942 124.674823 170.212673 123.966205 C161.040188 122.864581 153.404324 127.435077 146.137844 132.075824 C135.154690 139.090167 132.443874 150.008014 131.469265 162.433490 C130.166897 179.036640 135.929836 193.144306 143.642239 207.015460 C144.359402 208.305316 144.201321 210.081806 144.449612 211.632343 C142.867947 210.841205 140.652126 210.470905 139.804104 209.193012 C132.391872 198.022052 125.901882 186.344623 123.802883 172.871662 C123.168606 168.800556 123.704739 164.547077 123.704739 159.877155 z"/><path class="selected"  fill="#000000" opacity="1.000000" stroke="none" 
 	d="
M729.704739 654.877155 C734.403713 657.655841 737.888821 660.840656 736.691067 666.592243 C736.503079 667.493732 736.353664 668.546710 735.797756 669.198200 C734.650539 670.543048 733.240871 671.664142 731.939114 672.877155 C730.860989 671.634235 729.260403 670.553913 728.812649 669.114826 C727.851467 666.025226 726.555813 663.890827 722.928616 663.843219 C719.090481 663.792804 716.541531 665.550983 715.141628 668.967975 C712.584866 675.208820 716.463528 680.385578 723.238430 680.961994 C737.611477 682.184894 746.588772 668.816730 744.567043 659.138019 C742.524563 649.358844 734.607815 640.533405 724.375393 637.839801 C715.066921 635.389484 707.297024 637.502643 701.145046 644.961994 C697.066189 649.907428 692.221218 654.495197 689.322659 660.076007 C684.860012 668.668292 687.963772 677.161456 692.431789 685.088580 C692.589382 685.368122 693.046902 685.532062 693.106594 685.805866 C695.703884 697.739581 706.196926 700.394489 715.230740 705.003253 C729.378811 712.221271 740.608547 722.861164 747.558498 737.129352 C754.110012 750.580158 755.574612 764.981403 751.435452 779.623126 C749.360012 786.964313 747.400784 794.188190 742.048733 800.289264 C736.361721 806.772174 729.627346 810.792438 721.341702 811.769245 C711.902737 812.882038 702.920681 811.307697 695.219387 804.948444 C688.488674 799.390460 683.258328 792.770831 681.795925 784.103473 C678.899929 766.939289 688.481350 756.772540 702.202663 753.167926 C712.694973 750.411701 726.886623 756.911701 722.666164 772.834186 C721.760159 776.251911 720.842922 779.835285 719.022610 782.781330 C717.851467 784.676715 715.056057 786.545612 712.926296 786.619220 C710.381374 786.707111 707.059963 785.484455 705.446804 783.633624 C704.437527 782.475665 705.477444 778.884235 706.471584 776.801837 C707.548611 774.545856 709.657375 772.787799 711.278957 770.782550 C711.706936 770.253497 711.998074 769.613483 712.351955 769.024372 C711.677273 768.641925 711.045925 768.079425 710.321194 767.905231 C703.460110 766.255451 699.504665 770.864459 695.982449 775.300250 C692.945095 779.125324 694.526150 783.958942 696.864163 787.288532 C704.066799 797.546466 717.094509 801.498737 728.035305 794.736286 C735.808498 789.931720 739.697659 781.561237 741.478909 773.011554 C743.329739 764.127521 743.322170 754.855304 740.291164 745.979328 C734.745754 729.740924 724.026516 717.971515 709.123440 709.698932 C705.417996 707.642047 702.142971 704.810016 698.664700 702.342121 C698.090847 701.934894 697.488552 701.567951 696.899441 701.182453 C696.501247 702.017169 695.815334 702.830646 695.751370 703.690143 C695.327908 709.377155 695.498196 715.146686 694.614895 720.753742 C692.354397 735.101764 689.582302 749.533893 678.077663 759.800739 C671.006619 766.110797 663.293484 772.077594 652.726345 770.865436 C650.522488 770.612506 648.253689 770.477863 646.154568 769.833454 C633.359158 765.904987 622.212795 769.835529 611.737820 776.921466 C610.515774 777.748248 609.500637 779.062824 608.737087 780.356403 C602.620388 790.719928 604.176174 801.282794 608.926052 811.415973 C612.376247 818.776325 616.487209 825.603473 625.475002 828.359455 C639.125271 832.545368 652.467556 826.573322 655.943142 817.208576 C657.898830 811.938922 656.680569 804.980426 652.543362 802.285114 C649.281155 800.159992 643.381130 799.140338 638.993801 805.220539 C637.128811 807.805377 636.166164 811.029621 634.683376 813.906452 C633.799954 815.620319 632.702663 817.223956 631.701687 818.877155 C630.259548 817.600788 628.370632 816.582965 627.455227 815.001544 C624.077541 809.167316 625.024807 802.290851 630.581814 796.631915 C638.824490 788.237995 652.297878 786.691608 660.179958 795.957477 C667.884670 805.014728 668.921536 815.685016 662.305080 826.913165 C656.198025 837.276813 646.167629 840.663043 635.708279 840.550739 C620.996365 840.392780 609.594509 832.868854 601.607082 820.112995 C597.076565 812.877765 593.706936 804.995441 594.011379 796.883991 C594.522854 783.244342 597.470364 769.679645 610.995388 762.350055 C616.192776 759.533283 622.331448 757.795734 628.225613 757.075397 C637.159084 755.983722 646.281033 755.617999 655.272854 756.031330 C665.868069 756.518146 672.692898 751.261432 677.609158 743.015949 C682.542507 734.741901 684.379910 725.715778 681.821072 716.035358 C681.341702 714.222125 682.794094 711.975055 682.629421 709.988239 C682.020168 702.638751 681.621365 695.212726 680.196316 688.002765 C677.603298 674.882404 676.301785 661.496662 682.023464 649.377521 C687.212063 638.387287 695.836208 629.884235 708.310085 625.746417 C730.772610 618.295001 752.612698 637.930011 757.495266 655.122760 C762.076809 671.254962 751.657620 689.316486 733.879299 694.812702 C720.021877 699.096759 701.636013 688.503742 703.744534 671.095172 C705.142239 659.554279 714.274807 651.202960 729.704739 654.877155 z"/><path class="selected"  fill="#000000" opacity="1.000000" stroke="none" 
 	d="
M986.704739 391.877155 C988.339993 392.345661 989.475002 392.814166 990.610256 393.282672 C989.968411 393.987628 989.458889 394.968219 988.662258 395.350910 C984.649075 397.278644 980.583645 399.104999 976.476955 400.823871 C975.783352 401.114093 974.796780 400.704486 973.945705 400.618122 C974.254299 399.815570 974.328518 398.624591 974.909573 398.273761 C978.612454 396.038410 982.426907 393.988178 986.704739 391.877155 z"/></svg>