<?xml version="1.0" encoding="utf-8"?><!DOCTYPE svg PUBLIC "-//W3C//DTD SVG 1.1//EN" "http://www.w3.org/Graphics/SVG/1.1/DTD/svg11.dtd"><svg version="1.1" id="Contours" xmlns="http://www.w3.org/2000/svg" xmlns:xlink="http://www.w3.org/1999/xlink" x="0px" y="0px" width="1496.665771px" height="1496.665771px" viewBox="0.000024 0.000003 1496.665771 2372.400146" enable-background="new 0 0 1496.665771 1496.665771" xml:space="preserve" stroke="black" fill="none" stroke-linecap='round' stroke-linejoin='round'><path class="selected"  fill="#000000" opacity="1.000000" stroke="none" 
 	d="
M1365.143032 1164.193418 C1365.421034 1166.298060 1366.249824 1168.287043 1367.132221 1170.217892 C1370.901528 1178.465834 1375.807751 1186.193273 1381.668682 1193.113224 C1383.584274 1195.374946 1385.662410 1197.660161 1386.458775 1200.515102 C1387.255139 1203.370042 1386.262324 1206.985417 1383.500660 1208.061566 C1371.058070 1196.661799 1361.532900 1182.103346 1356.070434 1166.136690 C1355.119310 1163.356578 1354.286646 1160.329225 1355.155083 1157.522185 C1356.023520 1154.715144 1359.287258 1152.477651 1361.940260 1153.740681 C1365.406044 1155.390655 1364.640372 1160.387973 1365.143032 1164.193418 z"/><path class="selected"  fill="#000000" opacity="1.000000" stroke="none" 
 	d="
M1102.960623 406.428739 C1096.711678 403.474214 1090.721198 399.973273 1085.079929 395.978950 C1082.947612 394.469158 1080.768245 392.766163 1079.801306 390.338968 C1078.834366 387.911773 1079.626113 384.596706 1082.075865 383.688432 C1085.079125 382.574940 1087.921168 385.449342 1090.107268 387.790365 C1096.042840 394.146584 1104.016520 398.569622 1112.551263 400.240156 C1115.768297 400.869835 1115.328815 406.274346 1112.373101 407.691933 C1109.417386 409.109521 1105.924156 407.829909 1102.960623 406.428740 z"/><path class="selected"  fill="#000000" opacity="1.000000" stroke="none" 
 	d="
M1154.928501 337.680402 C1153.737807 341.097882 1155.379250 344.910736 1157.742530 347.651508 C1160.105809 350.392280 1163.162568 352.458407 1165.588813 355.143599 C1166.199903 355.819908 1166.790666 356.580320 1166.928317 357.481362 C1167.182175 359.143088 1165.717402 360.695459 1164.078732 361.070340 C1162.440062 361.445220 1160.730742 360.922402 1159.195418 360.237892 C1152.302424 357.164704 1147.119798 350.524532 1145.812760 343.091535 C1145.234999 339.805865 1145.631703 335.893700 1148.354369 333.965872 C1151.077034 332.038044 1156.026120 334.530059 1154.928500 337.680402 z"/><path class="selected"  fill="#000000" opacity="1.000000" stroke="none" 
 	d="
M1272.891725 1383.635682 C1272.726635 1381.605964 1273.380302 1379.350432 1275.102845 1378.264223 C1276.825389 1377.178013 1279.625185 1377.966935 1280.000582 1379.968455 C1281.387883 1387.365200 1295.421709 1386.009515 1296.716530 1393.423006 C1296.802670 1393.916201 1296.811908 1394.449943 1296.570944 1394.888803 C1296.059646 1395.820010 1294.765738 1395.874719 1293.705434 1395.808938 C1289.308969 1395.536169 1284.803635 1395.237692 1280.779548 1393.446040 C1276.755461 1391.654388 1273.248827 1388.026100 1272.891727 1383.635682 z"/><path class="selected"  fill="#000000" opacity="1.000000" stroke="none" 
 	d="
M1240.334461 1421.637141 C1242.062412 1423.219877 1243.765695 1426.038878 1242.022515 1427.604826 C1240.574502 1428.905618 1241.507485 1431.275317 1242.520321 1432.937534 C1247.966034 1441.874746 1253.411745 1450.811959 1258.857455 1459.749173 C1260.646545 1462.685333 1262.473631 1465.723145 1262.984696 1469.123246 C1263.495761 1472.523348 1262.358113 1476.413943 1259.384270 1478.139670 C1255.233522 1471.755069 1251.350743 1465.200981 1247.469354 1458.649138 C1240.599253 1447.052302 1233.729151 1435.455466 1226.859050 1423.858631 C1225.168486 1421.004934 1228.386913 1417.262356 1231.703303 1417.206290 C1235.019693 1417.150225 1237.888562 1419.396792 1240.334461 1421.637141 z"/><path class="selected"  fill="#000000" opacity="1.000000" stroke="none" 
 	d="
M690.311881 314.253641 C691.798583 314.872668 692.636260 316.418458 693.418926 317.825907 C702.345576 333.878498 718.053657 344.785943 733.009279 355.448966 C735.123752 356.956537 737.343513 358.609156 738.265537 361.036838 C739.187562 363.464519 738.092365 366.826280 735.537710 367.292653 C733.844194 367.601818 732.217622 366.592828 730.802308 365.612794 C715.051164 354.705916 700.775172 341.671612 688.483967 326.975191 C686.576389 324.694327 684.622903 322.126766 684.592572 319.153507 C684.562241 316.180248 687.566906 313.110703 690.311879 314.253642 z"/><path class="selected"  fill="#000000" opacity="1.000000" stroke="none" 
 	d="
M503.228243 2156.498544 C499.190892 2165.572186 486.759174 2168.226807 477.501538 2164.631341 C468.243903 2161.035876 461.541305 2153.004531 455.501195 2145.121115 C380.410128 2047.113952 342.832443 1921.074964 351.993973 1797.948453 C352.268431 1794.259865 352.598664 1790.507230 353.998485 1787.083561 C358.971859 1774.919729 378.628410 1772.821722 386.057070 1783.661846 C390.607239 1790.301588 390.311085 1798.996202 390.009608 1807.039791 C385.733849 1921.119391 417.876527 2038.899389 491.972163 2125.745655 C499.474844 2134.539423 507.927462 2145.937392 503.228239 2156.498543 z"/><path class="selected"  fill="#000000" opacity="1.000000" stroke="none" 
 	d="
M520.163508 2245.329935 C514.780883 2245.757977 509.252372 2243.348746 505.901387 2239.114744 C502.550402 2234.880743 501.475606 2228.946635 503.128694 2223.806288 C505.557175 2216.254822 514.024440 2211.186926 521.827238 2212.614684 C529.630036 2214.042441 535.754108 2221.780264 535.351230 2229.702375 C534.948353 2237.624485 528.070894 2244.701117 520.163509 2245.329935 z"/><path class="selected"  fill="#000000" opacity="1.000000" stroke="none" 
 	d="
M576.169039 1427.674944 C573.686833 1425.818119 571.085778 1423.457080 570.955830 1420.359942 C570.825883 1417.262804 575.075018 1414.458078 577.098047 1416.806801 C581.133220 1421.491608 586.402905 1425.103437 592.227955 1427.176800 C593.420500 1427.601273 594.793282 1427.949987 595.905630 1427.345816 C597.522069 1426.467849 597.606337 1424.217641 597.463087 1422.383743 C596.534047 1410.490105 594.969633 1398.646123 592.778744 1386.919156 C591.479931 1379.967117 589.956053 1372.857333 591.147640 1365.886114 C591.456113 1364.081433 591.989406 1362.226783 593.254261 1360.903086 C594.519115 1359.579388 596.693042 1358.976750 598.231784 1359.968871 C599.783483 1360.969347 600.120248 1363.055740 600.310773 1364.892155 C600.655748 1368.217303 601.000725 1371.542451 601.345702 1374.867598 C602.644058 1387.382139 603.942414 1399.896680 605.240771 1412.411222 C605.679378 1416.638847 606.117260 1420.918076 605.510654 1425.124883 C604.806365 1430.009116 602.153215 1435.145966 597.427904 1436.568356 C593.187090 1437.844906 588.709416 1435.777238 584.902614 1433.513978 C581.891116 1431.723550 578.974485 1429.773569 576.169039 1427.674943 z"/><path class="selected"  fill="#000000" opacity="1.000000" stroke="none" 
 	d="
M499.458076 1164.485155 C498.116016 1161.843246 496.888620 1158.740602 498.022450 1156.002859 C499.156280 1153.265117 503.840409 1152.371782 504.879152 1155.146997 C507.420256 1161.936073 511.092763 1168.300142 515.699365 1173.897283 C527.069525 1156.353320 537.377629 1138.121132 546.548480 1119.333724 C547.692510 1116.990063 551.674454 1117.986951 552.654266 1120.403874 C553.634078 1122.820797 552.642122 1125.545076 551.620662 1127.944695 C544.322609 1145.089318 535.166527 1161.442291 524.364414 1176.624980 C521.618088 1180.485024 517.231993 1184.741600 512.868907 1182.896139 C511.309587 1182.236588 510.160773 1180.891030 509.110863 1179.562810 C505.404105 1174.873461 502.165284 1169.814422 499.458076 1164.485155 z"/><path class="selected"  fill="#000000" opacity="1.000000" stroke="none" 
 	d="
M546.650146 812.442156 C547.556213 813.146778 548.668593 813.893141 549.762322 813.544991 C550.501533 813.309688 550.997370 812.632155 551.429167 811.987676 C554.896097 806.813098 557.639024 801.154186 559.553228 795.226987 C561.138086 790.319584 562.152506 785.249469 563.163521 780.192570 C565.064365 770.684923 566.965209 761.177276 568.866053 751.669630 C569.415493 748.921436 573.831796 748.882449 575.499304 751.134973 C577.166812 753.387498 576.861737 756.488640 576.442627 759.259704 C574.268661 773.633481 571.066472 787.851641 566.868621 801.769601 C565.546631 806.152654 564.090932 810.578297 561.476564 814.336474 C558.862196 818.094651 554.897191 821.153194 550.345967 821.648351 C543.266396 822.418586 537.131636 817.114250 532.000514 812.176114 C530.146457 810.391790 528.221655 808.495100 527.473704 806.033006 C526.725752 803.570913 527.642820 800.399780 530.071429 799.549371 C535.597669 803.846966 541.123908 808.144561 546.650146 812.442155 z"/><path class="selected"  fill="#000000" opacity="1.000000" stroke="none" 
 	d="
M498.851637 588.222704 C495.084936 583.642101 491.318235 579.061498 487.551534 574.480895 C487.876844 570.942368 492.729146 569.413073 495.909021 570.999072 C499.088896 572.585071 500.862170 575.994772 502.376006 579.209628 C503.089612 580.725075 503.880584 582.343629 505.346236 583.154601 C506.811889 583.965573 509.119274 583.399295 509.404006 581.748616 C510.711720 574.167397 512.019434 566.586178 513.327148 559.004959 C514.609066 551.573284 515.926964 544.027376 519.226815 537.246219 C522.239149 538.396185 524.103845 541.563440 524.608913 544.748010 C525.113981 547.932580 524.495649 551.176054 523.879347 554.340980 C522.281613 562.545888 520.683880 570.750797 519.086148 578.955705 C518.384417 582.559334 517.640697 586.268177 515.610684 589.327199 C513.580672 592.386221 509.917992 594.666149 506.316814 593.951944 C503.174603 593.328764 500.886279 590.696988 498.851637 588.222704 z"/><path class="selected"  fill="#000000" opacity="1.000000" stroke="none" 
 	d="
M594.335877 964.236026 C592.499363 962.735697 593.138304 959.430354 595.187334 958.236514 C597.236363 957.042675 599.977022 957.682731 601.787764 959.214066 C603.598506 960.745401 604.644942 962.987280 605.433040 965.223946 C606.125145 967.188181 608.864319 967.711687 610.731958 966.790193 C612.599597 965.868699 613.784642 964.005934 614.885979 962.238369 C622.890183 949.392198 631.471502 936.905637 640.595384 924.828959 C641.785411 923.253799 643.044160 921.634777 644.801559 920.735419 C646.558958 919.836061 648.963895 919.880514 650.258020 921.371332 C652.218893 923.630236 650.483022 927.081738 648.733940 929.508337 C639.614072 942.160838 630.494203 954.813339 621.374335 967.465840 C619.268035 970.388027 617.094999 973.375517 614.093109 975.366582 C611.091219 977.357647 607.035077 978.169970 603.867256 976.455154 C599.271688 973.967465 598.382793 967.542130 594.335877 964.236026 z"/><path class="selected"  fill="#000000" opacity="1.000000" stroke="none" 
 	d="
M1322.002712 399.440879 C1318.509229 398.398537 1316.640761 394.703022 1315.165940 391.368985 C1312.374048 385.057513 1309.582154 378.746042 1306.790260 372.434570 C1299.991263 357.064475 1293.192266 341.694381 1286.393269 326.324286 C1285.378469 324.030187 1284.342431 321.507977 1284.995262 319.085887 C1285.648092 316.663798 1288.889288 314.906673 1290.755675 316.582771 C1291.308756 317.079461 1291.636942 317.772673 1291.951009 318.446440 C1301.101496 338.076950 1310.251984 357.707460 1319.402472 377.337971 C1321.580020 382.009458 1323.780040 386.751465 1324.641808 391.832987 C1325.129290 394.707486 1324.723979 398.394414 1322.002712 399.440879 z"/><path class="selected"  fill="#000000" opacity="1.000000" stroke="none" 
 	d="
M1008.068541 1149.461524 C1010.687902 1154.302204 1015.403873 1157.960460 1020.743821 1159.293946 C1022.089983 1159.630108 1023.598260 1159.802889 1024.794411 1159.099767 C1025.991752 1158.395948 1026.569087 1157.003764 1027.067717 1155.707479 C1035.494245 1133.801078 1043.920774 1111.894679 1052.347302 1089.988279 C1053.357258 1087.362702 1057.744325 1088.120605 1058.970431 1090.652468 C1060.196536 1093.184332 1059.312522 1096.184524 1058.400806 1098.845810 C1051.882124 1117.873748 1044.692479 1136.671817 1036.849722 1155.193340 C1034.368565 1161.052860 1030.888146 1167.658056 1024.620343 1168.755671 C1020.174856 1169.534164 1015.843652 1167.185546 1011.940090 1164.920463 C1006.754004 1161.911181 1001.149564 1158.395061 999.380824 1152.665942 C1000.362563 1151.054183 1001.418078 1149.370324 1003.075098 1148.467072 C1004.732117 1147.563819 1007.170402 1147.801727 1008.068541 1149.461524 z"/><path class="selected"  fill="#000000" opacity="1.000000" stroke="none" 
 	d="
M838.820788 1309.538653 C841.624444 1310.165511 842.925481 1313.427436 843.217959 1316.285389 C843.510438 1319.143342 843.318244 1322.243752 844.920108 1324.628593 C848.120937 1329.393961 855.527250 1327.777225 860.513259 1324.932274 C866.826318 1321.330125 872.756563 1316.504063 879.930541 1315.336062 C883.289467 1314.789191 887.998830 1316.574429 887.237514 1319.891332 C886.844519 1321.603524 885.103417 1322.596388 883.530849 1323.379370 C875.031844 1327.611028 866.490095 1331.756838 857.907346 1335.815955 C855.604554 1336.905036 853.222609 1338.007519 850.677953 1338.124459 C843.004201 1338.477109 838.043863 1330.361732 834.863413 1323.369195 C833.619925 1320.635264 832.351545 1317.718165 832.738584 1314.739769 C833.125623 1311.761374 835.889720 1308.883308 838.820788 1309.538653 z"/><path class="selected"  fill="#000000" opacity="1.000000" stroke="none" 
 	d="
M995.828162 915.331655 C993.631036 913.487920 991.267307 911.338277 991.017478 908.480952 C990.767650 905.623627 994.286125 902.695496 996.483104 904.539406 C1001.152248 908.458189 1005.821393 912.376971 1010.490538 916.295754 C1011.501581 917.144316 1012.914046 918.032269 1014.030033 917.327401 C1014.571721 916.985264 1014.848621 916.356882 1015.091116 915.763857 C1019.695081 904.504812 1022.808459 892.637296 1024.324516 880.568155 C1024.870635 876.220575 1025.226349 871.780658 1026.831231 867.703397 C1027.770645 865.316777 1029.903388 862.747780 1032.376736 863.426752 C1034.980822 864.141614 1035.363157 867.635696 1035.147315 870.327479 C1033.866189 886.304408 1030.186137 902.086868 1024.268552 916.982696 C1022.700608 920.929547 1020.533217 925.232157 1016.484478 926.514262 C1011.678262 928.036236 1006.848187 924.579189 1002.986330 921.338484 C1000.600274 919.336207 998.214218 917.333931 995.828162 915.331655 z"/><path class="selected"  fill="#000000" opacity="1.000000" stroke="none" 
 	d="
M1155.218314 584.908776 C1157.467057 580.165092 1159.715801 575.421407 1161.964545 570.677722 C1164.128766 566.112338 1166.335721 561.481087 1169.673637 557.688344 C1172.369964 558.264110 1174.072421 561.152685 1174.174297 563.907918 C1174.276173 566.663152 1173.142504 569.300485 1171.956121 571.789297 C1168.518697 579.000380 1164.443029 585.907079 1159.792359 592.402222 C1157.832954 595.138735 1155.145252 598.091779 1151.798434 597.735988 C1149.584927 597.500677 1147.813423 595.840273 1146.336989 594.174400 C1142.712373 590.084713 1139.760408 585.400232 1137.635279 580.365632 C1136.422657 577.492832 1135.790166 573.510489 1138.412574 571.823360 C1141.332129 569.945060 1145.072980 573.073250 1146.235641 576.344341 C1147.398302 579.615431 1147.514082 583.448547 1149.887184 585.982358 C1150.803592 586.960830 1152.258932 587.678770 1153.471910 587.107898 C1154.336944 586.700780 1154.808786 585.772670 1155.218315 584.908778 z"/><path class="selected"  fill="#000000" opacity="1.000000" stroke="none" 
 	d="
M1301.424478 452.211428 C1302.352947 449.963650 1303.317832 447.658992 1305.002090 445.904617 C1306.686348 444.150241 1309.278633 443.046757 1311.591635 443.798141 C1313.904638 444.549525 1315.369740 447.613717 1313.976980 449.607401 C1305.219601 462.143265 1300.647996 477.029179 1295.243295 491.334030 C1290.497768 503.894217 1285.022608 516.178688 1278.854611 528.104883 C1277.807172 530.130170 1276.194815 532.455608 1273.928088 532.208904 C1272.165274 532.017047 1270.947696 530.190960 1270.820470 528.422306 C1270.693244 526.653653 1271.383111 524.940065 1272.060082 523.301153 C1281.848213 499.604577 1291.636345 475.908002 1301.424478 452.211428 z"/><path class="selected"  fill="#000000" opacity="1.000000" stroke="none" 
 	d="
M854.888347 597.758390 C856.049615 597.945115 856.914333 598.895661 857.679996 599.788504 C861.831609 604.629729 865.983222 609.470953 870.134836 614.312177 C878.531095 600.843466 886.927354 587.374755 895.323613 573.906043 C896.919934 571.345334 899.663940 568.402854 902.392290 569.691876 C905.432137 571.128067 904.299892 575.685078 902.678894 578.630529 C895.529520 591.621371 887.708156 604.242360 879.256520 616.426177 C876.672106 620.151850 873.795305 624.024599 869.575718 625.684395 C862.833607 620.336810 857.144712 613.666559 852.928120 606.165023 C852.041808 604.588227 851.195774 602.861837 851.357066 601.060222 C851.518358 599.258607 853.102466 597.471231 854.888347 597.758391 z"/><path class="selected"  fill="#000000" opacity="1.000000" stroke="none" 
 	d="
M756.181184 1110.004863 C755.465310 1108.076588 754.737589 1106.059597 754.968024 1104.015674 C755.198459 1101.971751 756.711395 1099.913946 758.765124 1099.800285 C760.291937 1099.715784 761.692199 1100.700074 762.662274 1101.882129 C767.371569 1107.620492 764.624613 1117.699872 770.499416 1122.237817 C780.623662 1101.777225 791.798920 1081.836740 803.966411 1062.521245 C807.079986 1057.578545 810.538499 1052.427137 815.849364 1049.994166 C817.595161 1050.049211 818.823720 1051.934966 818.812482 1053.681594 C818.801243 1055.428221 817.905697 1057.031172 817.035282 1058.545508 C804.107557 1081.036959 791.179833 1103.528412 778.252109 1126.019864 C776.809122 1128.530349 775.278253 1131.135681 772.848648 1132.711044 C770.419044 1134.286407 766.810154 1134.451173 764.891187 1132.282692 C764.144146 1131.438519 763.736326 1130.355374 763.343997 1129.298597 C760.956393 1122.867352 758.568789 1116.436108 756.181184 1110.004863 z"/><path class="selected"  fill="#000000" opacity="1.000000" stroke="none" 
 	d="
M375.572052 1432.218851 C386.609104 1435.316745 397.210852 1439.961287 406.970777 1445.974385 C406.336965 1432.349309 405.703153 1418.724233 405.069342 1405.099157 C404.592284 1394.843841 404.113852 1384.572945 402.744595 1374.398259 C402.387295 1371.743229 404.330595 1368.933638 406.971428 1368.483252 C409.612262 1368.032867 412.447161 1370.187140 412.574158 1372.863092 C413.306920 1388.303042 414.039681 1403.742993 414.772443 1419.182944 C415.087921 1425.830345 415.403898 1432.483970 416.173594 1439.094192 C416.622119 1442.946173 416.312502 1446.884957 415.267616 1450.619545 C414.903657 1451.920398 414.423021 1453.243415 413.470045 1454.200766 C410.819563 1456.863417 406.341664 1455.407645 402.947826 1453.796241 C393.469528 1449.295911 383.991229 1444.795584 374.512930 1440.295256 C372.115812 1439.157097 369.354712 1436.227682 371.298228 1434.420937 C372.506209 1433.297966 374.895059 1433.722835 375.572051 1432.218851 z"/><path class="selected"  fill="#000000" opacity="1.000000" stroke="none" 
 	d="
M804.134235 805.049106 C802.286770 803.021832 800.395888 800.924370 799.454360 798.348231 C798.512831 795.772093 798.742793 792.568471 800.739708 790.688232 C802.736623 788.807994 806.630419 789.168104 807.655354 791.712210 C809.683661 796.746893 812.335267 801.565264 815.844582 805.706131 C817.064630 807.145740 819.574321 808.418036 820.520832 806.785521 C830.047498 790.354195 839.574164 773.922869 849.100830 757.491543 C850.106111 755.757662 851.172795 753.958081 852.859765 752.875923 C854.546736 751.793765 857.047509 751.695531 858.363226 753.207426 C860.027098 755.119386 858.905337 758.065130 857.712513 760.301473 C847.668140 779.132967 836.875094 797.565117 825.367426 815.539771 C823.839645 817.926120 821.533204 820.635936 818.781190 819.961257 C817.465013 819.638585 816.472153 818.587842 815.559365 817.586215 C811.750988 813.407179 807.942612 809.228142 804.134235 805.049106 z"/><path class="selected"  fill="#000000" opacity="1.000000" stroke="none" 
 	d="
M1048.008849 1387.645722 C1055.078122 1392.800974 1046.818739 1406.744964 1053.856905 1411.942604 C1057.183255 1414.399094 1061.898142 1413.051220 1065.603195 1411.215047 C1069.278082 1409.393822 1072.757521 1407.178542 1075.962616 1404.619438 C1078.295304 1402.756904 1080.588335 1400.655223 1083.463333 1399.852196 C1086.338331 1399.049169 1090.012754 1400.101965 1090.973995 1402.928001 C1083.505302 1413.158091 1071.721831 1420.127936 1059.159296 1421.746189 C1056.523226 1422.085757 1053.772849 1422.188023 1051.279028 1421.268767 C1047.405980 1419.841107 1044.744192 1416.114841 1043.544254 1412.165301 C1042.344316 1408.215761 1042.385951 1404.011084 1042.437982 1399.883614 C1042.498662 1395.070051 1043.405370 1389.053575 1048.008849 1387.645722 z"/><path class="selected"  fill="#000000" opacity="1.000000" stroke="none" 
 	d="
M289.246622 896.865917 C289.375851 893.925753 292.791413 892.026317 295.707760 892.421520 C298.624107 892.816723 301.051400 894.788421 303.251490 896.743125 C305.451580 898.697829 307.723027 900.785592 310.575795 901.508762 C310.972007 901.609201 311.408851 901.677761 311.775680 901.497460 C312.218602 901.279760 312.424258 900.772039 312.586051 900.305781 C315.023614 893.281170 316.001256 885.848124 316.964973 878.475327 C318.228324 868.810209 319.491676 859.145091 320.755028 849.479972 C321.113322 846.738888 321.561897 843.800746 323.464921 841.795648 C325.367945 839.790550 329.260069 839.509701 330.571731 841.943106 C331.229384 843.163188 331.058339 844.644252 330.867330 846.017068 C328.293584 864.515062 325.328981 882.958674 321.976169 901.331442 C321.169361 905.752599 319.558918 911.033240 315.181556 912.051213 C312.580085 912.656189 309.929960 911.436892 307.589537 910.150016 C300.957280 906.503281 294.780172 902.029765 289.246624 896.865916 z"/><path class="selected"  fill="#000000" opacity="1.000000" stroke="none" 
 	d="
M1236.888162 1244.618811 C1231.891594 1251.713203 1222.923247 1255.002145 1214.281430 1255.786408 C1209.120920 1256.254734 1203.547962 1255.858803 1199.390896 1252.765425 C1195.141060 1249.603015 1193.198577 1244.286313 1191.474426 1239.277397 C1189.889530 1234.673042 1188.917007 1228.334194 1193.207895 1226.031967 C1196.887023 1224.057973 1201.965233 1228.479700 1200.516071 1232.395381 C1198.272761 1238.456874 1202.637007 1246.023564 1209.007121 1247.117087 C1213.182065 1247.833778 1217.350629 1246.127599 1221.243652 1244.457813 C1224.837692 1242.916263 1228.431732 1241.374716 1232.025773 1239.833169 C1233.646569 1241.428383 1235.267366 1243.023597 1236.888162 1244.618811 z"/><path class="selected"  fill="#000000" opacity="1.000000" stroke="none" 
 	d="
M1307.213507 1078.142761 C1307.227981 1082.617875 1305.172901 1087.204344 1301.415489 1089.635127 C1297.658076 1092.065909 1292.217301 1091.896806 1289.013190 1088.772622 C1287.443426 1087.242018 1286.502482 1085.192214 1285.666052 1083.165568 C1282.667573 1075.900338 1280.562543 1068.266874 1279.413417 1060.491661 C1279.095038 1058.337457 1278.978803 1055.802466 1280.599625 1054.348198 C1282.749640 1052.419117 1286.426864 1054.034136 1287.762996 1056.595124 C1289.099129 1059.156113 1288.909578 1062.200228 1289.112666 1065.081663 C1289.536519 1071.095317 1291.865779 1076.960492 1295.683167 1081.626458 C1299.545455 1080.912464 1297.905788 1073.746765 1301.455597 1072.065721 C1304.472178 1070.637192 1307.202710 1074.805045 1307.213506 1078.142761 z"/><path class="selected"  fill="#000000" opacity="1.000000" stroke="none" 
 	d="
M1399.578629 826.265519 C1400.518581 823.283980 1401.722880 820.002074 1404.522832 818.611625 C1407.322785 817.221177 1411.687650 819.739345 1410.574073 822.660480 C1402.742310 843.204761 1396.690821 864.427356 1392.509622 886.012572 C1390.757897 895.055754 1387.336217 903.772684 1382.468561 911.592761 C1380.452954 911.693713 1378.753153 909.866757 1378.285290 907.903606 C1377.817426 905.940454 1378.276889 903.888735 1378.741111 901.924720 C1384.759663 876.461745 1391.711719 851.219431 1399.578629 826.265519 z"/><path class="selected"  fill="#000000" opacity="1.000000" stroke="none" 
 	d="
M263.202272 1234.046778 C262.660509 1231.520379 265.654570 1229.389400 268.215206 1229.734855 C270.775843 1230.080310 272.811869 1231.978463 274.661764 1233.782371 C279.596430 1238.594365 284.531095 1243.406358 289.465761 1248.218352 C290.518819 1249.245232 292.909969 1249.779324 292.873140 1248.308930 C292.683331 1240.731410 294.074297 1233.213382 295.459698 1225.761169 C297.905689 1212.603936 300.351680 1199.446703 302.797671 1186.289470 C303.799624 1180.899866 305.209208 1174.887477 309.866209 1171.995405 C313.127311 1172.370524 314.604381 1176.488023 314.028254 1179.719676 C313.452128 1182.951329 311.606759 1185.866000 311.147886 1189.116375 C308.026511 1211.226258 303.907287 1233.195245 298.806950 1254.934070 C298.374329 1256.778003 297.859843 1258.747426 296.423818 1259.982368 C292.997391 1262.929002 287.897046 1259.598772 284.697173 1256.407554 C278.175563 1249.903581 271.653952 1243.399608 265.132342 1236.895636 C264.308100 1236.073623 263.446349 1235.184981 263.202272 1234.046778 z"/><path class="selected"  fill="#000000" opacity="1.000000" stroke="none" 
 	d="
M658.623064 664.272843 C655.081615 674.954981 651.540165 685.637119 647.998716 696.319257 C655.415179 714.809705 682.662634 734.200850 689.547362 715.505901 C682.675493 739.446199 692.937997 767.278599 713.706684 781.027130 C731.366564 742.833539 749.026444 704.639947 766.686324 666.446356 C753.144673 664.841358 740.186326 658.661219 730.416162 649.148268 C746.319576 650.640657 762.222991 652.133047 778.126405 653.625437 C760.402707 571.137451 742.679008 488.649465 724.955310 406.161479 C705.096847 404.744676 685.712881 397.252533 670.063740 384.945208 C691.372855 388.986062 712.681970 393.026917 733.991084 397.067771 C779.450999 329.729891 796.623336 243.920805 780.578300 164.274394 C775.608720 139.605769 778.683720 101.421349 803.640067 104.649125 C817.789614 106.479187 824.657683 122.537794 828.824168 136.183273 C849.929570 205.304685 871.034972 274.426097 892.140373 343.547509 C910.338184 403.146394 938.489598 472.319713 999.483967 485.081938 C1015.191452 488.368510 1015.530204 510.533311 1012.024666 526.193382 C991.017834 620.035599 970.011016 713.877815 949.004199 807.720031 C991.806040 774.334230 1034.607880 740.948430 1077.409721 707.562630 C1031.697095 598.172504 1064.228946 461.050516 1154.208992 383.853139 C1200.109237 344.473536 1216.240242 279.817282 1216.033870 219.339657 C1215.827497 158.862033 1201.973566 99.192336 1199.375421 38.770194 C1198.689832 22.826230 1202.928332 1.850474 1218.791439 0.106404 C1232.395430 -1.389265 1241.644102 13.171067 1247.259264 25.652060 C1281.008275 100.667123 1310.367144 177.657014 1335.135632 256.096654 C1345.290393 249.355093 1355.445152 242.613532 1365.599911 235.871971 C1343.618149 249.632357 1341.425217 281.655363 1350.092950 306.097468 C1358.760683 330.539573 1375.372155 351.612441 1383.548249 376.223365 C1406.165908 444.304946 1359.792391 514.399473 1314.855504 570.322066 C1269.918616 626.244659 1220.828875 692.983663 1237.694289 762.713270 C1248.525138 807.493128 1230.958552 857.862866 1194.629492 886.195576 C1199.965559 899.113856 1205.301625 912.032137 1210.637692 924.950418 C1198.411254 915.194966 1188.638458 902.388400 1182.456220 888.020570 C1149.734085 925.203881 1142.170467 982.526342 1164.128034 1026.924563 C1209.083981 1038.652407 1245.063469 990.541184 1266.615213 949.381715 C1292.889418 899.203260 1319.740239 840.660545 1298.401098 788.192916 C1306.284605 800.649606 1314.168120 813.106298 1322.051635 825.562989 C1334.939850 806.013993 1332.357506 777.678415 1316.147793 760.781239 C1328.465763 764.766808 1338.309566 775.614799 1341.083616 788.260817 C1374.520745 720.540925 1407.957874 652.821034 1441.395003 585.101142 C1446.015241 575.743819 1452.370721 565.137597 1462.767662 564.237757 C1479.199409 562.815615 1485.655807 584.946078 1485.960889 601.436430 C1487.817803 701.807016 1479.017809 802.371416 1459.756535 900.894033 C1468.972730 890.974413 1483.312128 886.095210 1496.665781 888.335089 C1438.703631 914.817645 1417.972967 984.811893 1399.775863 1045.883998 C1381.578759 1106.956104 1349.532004 1176.045191 1286.881186 1187.699017 C1322.811655 1243.979946 1316.811542 1323.687125 1272.860418 1373.954811 C1231.744340 1420.980004 1157.179837 1456.662074 1166.397185 1518.443472 C1215.634844 1517.872773 1264.872498 1517.302072 1314.110151 1516.731370 C1322.923969 1516.629211 1332.522240 1516.783678 1339.393738 1522.304217 C1348.071697 1529.276062 1349.046418 1541.898649 1349.320388 1553.026925 C1350.286718 1592.278044 1351.253050 1631.529162 1352.219382 1670.780280 C1352.900732 1698.455839 1336.772620 1738.246464 1311.802379 1726.292895 C1339.219255 1922.945643 1285.976699 2129.634555 1166.961979 2288.566885 C1149.587166 2311.769221 1129.768611 2334.823064 1102.924841 2345.761280 C1083.171473 2353.810322 1061.322449 2354.572913 1040.002193 2355.228131 C856.390477 2360.870916 672.778761 2366.513702 489.167044 2372.156488 C472.953219 2372.654774 456.092863 2373.032591 441.285750 2366.407955 C426.784196 2359.920026 415.944364 2347.458400 405.994792 2335.073156 C278.064147 2175.824861 218.190746 1963.667828 243.993669 1761.033974 C229.008195 1777.742789 199.141737 1769.868464 186.145937 1751.569337 C173.150137 1733.270209 172.227962 1709.314491 171.782055 1686.874570 C171.060107 1650.542344 170.338150 1614.210121 169.616193 1577.877899 C169.461599 1570.097969 169.580277 1561.525452 174.706787 1555.671386 C180.370237 1549.204181 189.988630 1548.439621 198.579827 1548.138434 C248.035734 1546.404637 297.491641 1544.670839 346.947548 1542.937040 C324.586439 1507.838777 302.225330 1472.740514 279.864222 1437.642251 C275.636694 1452.884820 264.472206 1466.055504 250.127758 1472.722191 C273.240101 1450.759475 271.794155 1408.440261 247.236636 1388.106311 C240.807223 1403.046618 228.314017 1415.271457 213.237638 1421.374973 C222.475123 1407.135553 231.712608 1392.896133 240.950094 1378.656713 C235.229237 1369.562154 229.508381 1360.467595 223.787524 1351.373035 C205.333835 1361.623512 186.880146 1371.873989 168.426458 1382.124466 C180.911331 1364.422445 198.266752 1350.192444 218.072312 1341.418996 C175.838325 1308.006067 169.142235 1238.285388 204.244803 1197.444928 C182.374621 1191.577344 160.504439 1185.709760 138.634257 1179.842176 C161.065391 1176.776484 184.251574 1179.403820 205.428001 1187.410891 C246.818492 1128.660936 288.841979 1049.150189 247.569644 990.317168 C225.702771 996.146132 202.033818 995.005950 180.828483 987.102110 C202.567987 984.728658 224.307492 982.355206 246.046996 979.981753 C220.422183 940.548506 204.775070 894.686904 200.954063 847.814610 C196.854598 797.526469 136.717242 760.694866 90.058629 779.895817 C114.099181 777.074108 138.139734 774.252399 162.180287 771.430690 C112.511944 720.371747 62.843601 669.312805 13.175258 618.253862 C5.125816 609.979055 -3.549096 598.434926 1.497215 588.052215 C7.463472 575.776728 25.479062 578.279422 38.332370 582.870312 C97.561348 604.025468 155.393934 629.089221 211.329154 657.844456 C210.412679 643.327262 209.496203 628.810069 208.579727 614.292875 C209.249433 651.195211 243.315128 678.409189 276.769393 693.999026 C310.223658 709.588863 347.946818 720.492164 371.990322 748.494677 C385.150070 763.821305 392.904351 782.936055 400.437399 801.680059 C428.578709 871.702289 456.720019 941.724518 484.861328 1011.746748 C529.002721 954.838161 494.653999 872.686225 457.357894 811.074129 C420.061789 749.462033 379.812042 672.549480 415.647220 610.076368 C390.820012 608.837897 366.308263 601.673744 344.721948 589.346737 C367.267390 592.308588 389.812831 595.270438 412.358273 598.232289 C415.397709 587.025430 418.437146 575.818571 421.476582 564.611712 C406.124747 572.237032 385.261975 565.468080 377.311258 550.282217 C391.858147 556.677697 407.813909 559.844940 423.700652 559.490582 C428.171171 537.728371 408.681615 518.002879 388.246183 509.286659 C367.810751 500.570439 344.709338 497.956246 326.013368 485.954577 C298.254509 468.135101 286.095732 432.608734 287.501916 399.652541 C288.908099 366.696348 301.633021 335.415360 314.180884 304.908981 C289.885231 295.424553 270.003855 275.215322 260.918044 250.767803 C277.925028 265.888794 294.932012 281.009786 311.938996 296.130778 C323.790926 268.375320 318.222018 234.015622 298.210087 211.424554 C306.837935 221.389496 315.465785 231.354437 324.093634 241.319379 C341.050025 178.189187 358.006416 115.058995 374.962807 51.928804 C378.410872 39.091343 385.658732 23.340869 398.921722 24.225535 C412.895871 25.157636 417.447977 43.236347 418.224411 57.220010 C423.656206 155.047323 429.088003 252.874635 434.519799 350.701948 C456.996768 363.685852 479.473736 376.669756 501.950705 389.653660 C508.707337 380.353748 515.463969 371.053836 522.220601 361.753924 C518.842854 374.493726 515.465106 387.233528 512.087359 399.973331 C564.468589 423.829791 626.767423 467.213104 611.312003 522.657256 C618.746092 515.042571 626.180182 507.427886 633.614272 499.813200 C601.558678 558.003566 602.619482 633.057109 636.306865 690.318265 C640.501868 679.442842 648.519350 670.085573 658.623064 664.272843 M1093.259808 2309.619273 C1101.386899 2305.641785 1107.576923 2298.655602 1113.406956 2291.736012 C1243.286852 2137.583255 1302.501516 1926.150580 1271.579499 1726.963009 C942.824148 1737.959939 614.068798 1748.956869 285.313447 1759.953799 C256.193674 1958.454467 316.373242 2168.352794 446.247024 2321.268708 C456.732231 2333.614194 475.291268 2334.068142 491.479664 2333.532944 C682.656568 2327.212381 873.833470 2320.891839 1065.010371 2314.571296 C1074.641258 2314.252887 1084.604626 2313.855214 1093.259808 2309.619273 M578.391103 1537.375682 C644.782721 1535.341955 711.174339 1533.308227 777.565957 1531.274500 C717.388455 1458.399297 668.731522 1376.030465 633.949539 1288.153616 C623.245260 1261.109205 613.998048 1229.888728 626.952659 1203.847226 C651.398165 1154.706597 675.843672 1105.565967 700.289179 1056.425338 C718.760150 1019.294791 737.680604 980.222550 736.432586 938.770207 C735.120143 895.177880 711.724246 855.686719 688.426508 818.818998 C662.179217 777.283740 634.501239 735.489616 596.100944 704.838109 C580.433335 692.332063 577.674140 669.963533 576.383230 649.958316 C573.125725 599.476701 571.595855 548.883624 571.797200 498.297419 C571.859133 482.737224 557.058956 471.806382 543.846297 463.587555 C503.191503 438.298576 462.536709 413.009596 421.881916 387.720616 C412.993019 382.191352 403.650900 376.169722 399.129303 366.728303 C396.092085 360.386332 395.583418 353.172025 395.124542 346.155282 C391.330735 288.143250 387.536923 230.131219 383.743112 172.119188 C358.314475 259.294069 338.932803 348.232250 325.783473 438.083073 C361.105771 454.978071 396.428069 471.873070 431.750367 488.768068 C462.049384 503.260382 467.739575 544.585006 460.714387 577.428640 C453.689199 610.272275 438.147405 642.296074 441.403403 675.724447 C443.401363 696.236938 452.382834 715.326022 461.228603 733.940708 C492.548465 799.848982 523.868327 865.757256 555.188189 931.665530 C561.988705 945.976265 553.550896 962.537563 545.337481 976.086879 C495.664331 1058.030372 445.991200 1139.973871 396.318070 1221.917371 C457.009081 1327.070142 517.700092 1432.222912 578.391103 1537.375682 M1201.637556 762.113263 C1197.063057 742.658447 1186.050854 724.048263 1188.051153 704.163226 C1189.499486 689.765305 1197.627092 677.026995 1205.529558 664.904751 C1253.650125 591.088659 1301.770692 517.272567 1349.891258 443.456475 C1356.460542 433.379311 1352.565639 420.063188 1348.482930 408.747879 C1314.686862 315.081444 1280.890796 221.415009 1247.094730 127.748574 C1278.322902 247.056852 1233.891475 382.739391 1138.140920 460.466446 C1104.805388 487.527100 1095.469872 534.836354 1097.727526 577.713385 C1099.985181 620.590415 1111.485913 662.848224 1110.407813 705.771114 C1110.228517 712.909499 1109.661319 720.204648 1106.797263 726.745739 C1102.634811 736.252178 1094.162477 743.053769 1086.000871 749.463649 C1049.641830 778.018940 1013.282789 806.574231 976.923749 835.129523 C948.924208 857.119517 917.754834 887.439775 925.957302 922.084452 C932.852472 951.207515 965.387684 968.139481 974.326752 996.701505 C983.975894 1027.532348 963.232300 1058.856320 943.619614 1084.527107 C877.605316 1170.932337 811.591021 1257.337568 745.576727 1343.742799 C736.853871 1355.160028 726.102394 1367.654850 711.735929 1367.869396 C740.467775 1410.458539 769.199630 1453.047699 797.931485 1495.636859 C821.105463 1529.987591 870.853175 1543.209894 908.024180 1524.898085 C906.389042 1485.278891 904.789596 1445.186636 912.804151 1406.352100 C920.818706 1367.517565 939.569345 1329.447938 971.540388 1305.991454 C1026.706716 1265.517075 1071.951552 1213.275936 1116.689943 1161.507457 C1126.918776 1149.671285 1137.822105 1135.703866 1135.631440 1120.214354 C1129.025592 1073.506477 1122.419744 1026.798601 1115.813897 980.090725 C1111.600158 950.296692 1108.098989 917.254504 1125.292336 892.559793 C1138.197610 874.024018 1160.220457 864.239675 1176.410568 848.491617 C1198.893229 826.622822 1208.816580 792.644819 1201.637557 762.113264 M225.115497 1723.147356 C586.928809 1710.819708 948.742120 1698.492061 1310.555432 1686.164414 C1310.729566 1642.684827 1310.903699 1599.205240 1311.077833 1555.725653 C943.843062 1566.057330 576.608290 1576.389008 209.373519 1586.720685 C211.191634 1628.837429 213.009748 1670.954173 214.827862 1713.070917 C214.962533 1716.190566 215.293812 1719.715777 217.741142 1721.655087 C219.750707 1723.247493 222.552982 1723.234670 225.115496 1723.147364 M825.915173 265.374982 C815.561211 308.444906 800.538629 350.390851 781.195359 390.241331 C759.253244 435.445875 776.005595 489.000395 792.864226 536.336362 C809.722856 583.672329 826.205943 637.398527 803.832674 682.391238 C785.018330 720.226941 766.203985 758.062645 747.389640 795.898348 C740.560195 809.632383 734.001720 827.095050 743.411068 839.208232 C785.654619 893.590723 778.672371 972.233729 753.269675 1036.239009 C727.866980 1100.244290 686.712811 1157.300980 663.730669 1222.214722 C661.383899 1228.843244 659.230260 1236.150025 661.606490 1242.768043 C673.477499 1275.829880 685.348507 1308.891717 697.219515 1341.953554 C772.866331 1244.625525 848.530737 1147.274079 920.778668 1047.397043 C932.972412 1030.540159 944.005495 1004.315234 927.394012 991.789239 C885.035749 959.848724 874.393355 893.097786 904.719204 849.568925 C911.818012 839.379498 913.010665 826.351374 914.152906 813.985584 C923.477826 713.034224 944.403243 613.159051 976.385515 516.954761 C947.006185 514.128341 921.362749 494.426647 904.355279 470.304466 C887.347809 446.182284 877.645373 417.799341 868.159886 389.850116 C854.078317 348.358404 839.996745 306.866693 825.915173 265.374983 M236.373942 852.700407 C235.009897 861.226463 238.589157 869.682411 242.087513 877.576444 C263.277459 925.391517 284.467405 973.206590 305.657352 1021.021662 C310.280331 1031.453402 314.999526 1042.375764 314.403829 1053.770425 C313.890922 1063.581321 309.477993 1072.708673 305.148441 1081.527501 C274.537877 1143.877880 243.927314 1206.228258 213.316751 1268.578637 C274.640881 1352.868852 330.966638 1440.795139 381.899675 1531.741910 C387.464737 1541.678965 401.177284 1542.548194 412.560630 1542.181563 C453.018942 1540.878483 493.477253 1539.575406 533.935564 1538.272330 C478.837936 1442.953071 423.740308 1347.633812 368.642680 1252.314552 C363.810533 1243.954907 358.830903 1235.056009 358.984848 1225.401496 C359.124040 1216.672231 363.453132 1208.629815 367.671158 1200.986014 C394.785798 1151.849544 421.900438 1102.713075 449.015078 1053.576605 C453.846685 1044.820888 450.265329 1034.000635 446.616934 1024.689555 C416.437433 947.668401 386.257935 870.647247 356.078437 793.626093 C353.705668 787.570544 351.259802 781.390850 347.036601 776.444713 C342.449969 771.072932 336.113666 767.557743 329.912315 764.175959 C255.109002 723.383452 178.889963 685.187102 101.438535 649.678785 C144.420136 696.818880 187.401737 743.958974 230.383338 791.099068 C239.320452 800.900853 248.897779 812.670706 246.876240 825.780258 C245.401406 835.344402 237.902714 843.144738 236.373946 852.700408 M1266.895707 1311.839367 C1276.867371 1301.067850 1274.718928 1284.157838 1271.386209 1269.862641 C1265.903463 1246.345268 1258.935196 1223.174329 1250.536735 1200.533809 C1244.315963 1183.763888 1254.316850 1164.807830 1268.156477 1153.476768 C1281.996104 1142.145705 1299.254193 1135.974764 1314.603632 1126.792010 C1329.953072 1117.609256 1344.371251 1103.538929 1345.900295 1085.717866 C1352.203093 1012.258525 1403.898953 950.841854 1423.947015 879.890637 C1432.453949 849.784138 1435.126243 818.384917 1437.758715 787.210579 C1441.137138 747.202505 1444.515562 707.194432 1447.893986 667.186359 C1412.516916 731.168083 1378.561563 795.935904 1346.061439 861.425904 C1324.689865 904.491104 1303.759341 948.413174 1294.018260 995.492544 C1292.303503 1003.780095 1290.751156 1012.560304 1285.309755 1019.042206 C1281.398899 1023.700887 1275.876165 1026.659751 1270.442476 1029.393452 C1237.706175 1045.863154 1202.935885 1058.284997 1167.174275 1066.286479 C1167.777413 1095.427993 1182.796854 1125.522534 1171.816310 1152.522891 C1167.907758 1162.133745 1161.025261 1170.185057 1154.216243 1178.013375 C1115.431472 1222.604166 1075.270415 1265.997854 1033.809498 1308.111859 C1020.282183 1321.852256 1006.199379 1335.749460 988.603222 1343.633749 C973.335470 1350.474752 965.522753 1367.365123 960.300505 1383.259516 C945.235889 1429.110111 940.977703 1478.472810 947.967766 1526.225912 C1006.832544 1524.895746 1065.697321 1523.565579 1124.562098 1522.235413 C1119.996080 1474.367552 1154.932684 1432.783228 1187.598651 1397.497038 C1214.031004 1368.944482 1240.463355 1340.391925 1266.895707 1311.839367 z"/></svg>