<?xml version="1.0" encoding="utf-8"?><!DOCTYPE svg PUBLIC "-//W3C//DTD SVG 1.1//EN" "http://www.w3.org/Graphics/SVG/1.1/DTD/svg11.dtd"><svg version="1.1" id="Contours" xmlns="http://www.w3.org/2000/svg" xmlns:xlink="http://www.w3.org/1999/xlink" x="0px" y="0px" width="1796.269043px" height="1796.269043px" viewBox="0.000006 0.000011 1796.269043 2578.037109" enable-background="new 0 0 1796.269043 1796.269043" xml:space="preserve" stroke="black" fill="none" stroke-linecap='round' stroke-linejoin='round'><path class="selected"  fill="#000000" opacity="1.000000" stroke="none" 
 	d="
M115.750055 2042.304799 C109.829400 2033.050893 104.194330 2024.421010 99.033197 2015.516713 C88.637506 1997.581654 76.773431 1980.488149 69.812250 1960.620229 C66.161493 1950.201039 60.819147 1940.336049 55.800287 1930.444203 C48.658441 1916.367787 42.983819 1901.762563 38.103143 1886.765248 C33.046380 1871.226430 26.878473 1856.041615 22.068353 1840.433217 C18.130731 1827.656117 15.367425 1814.509145 12.294305 1801.476674 C10.709405 1794.755483 9.607904 1787.921254 8.242975 1781.147084 C6.942560 1774.693227 5.188104 1768.302113 4.349054 1761.791127 C3.274652 1753.453725 3.307123 1744.971059 2.180475 1736.643300 C-2.058417 1705.310903 1.399103 1673.846669 0.250055 1642.468495 C4.599908 1632.752553 0.472955 1622.066884 3.993768 1612.037465 C6.064020 1606.140126 5.784479 1599.360829 6.215143 1592.954945 C8.046014 1565.720448 13.703729 1539.034535 20.669549 1512.878041 C28.677057 1482.809926 38.420404 1453.063588 50.827386 1424.436757 C62.613885 1397.241689 77.341058 1371.721547 94.971979 1347.645131 C114.941949 1320.374623 138.978265 1297.065785 163.379510 1274.249135 C184.049982 1254.920888 206.605829 1237.482411 230.715814 1222.336049 C233.098443 1220.838979 235.492303 1219.356557 237.820734 1217.778310 C238.465326 1217.341664 238.892755 1216.584584 239.419794 1215.974477 C238.477045 1215.470693 237.388238 1214.364369 236.613092 1214.552236 C221.048273 1218.325429 205.998285 1213.770619 190.973016 1211.274281 C177.805047 1209.086659 164.803277 1205.515248 151.987482 1201.686513 C134.827569 1196.560048 117.666498 1191.206166 102.531244 1181.097768 C94.706781 1175.872182 85.938898 1171.670644 79.186761 1165.317128 C68.587091 1155.343617 59.816461 1143.731679 56.145441 1128.980214 C54.337701 1121.716176 54.087762 1115.063222 55.877069 1107.524037 C57.937555 1098.842153 62.889520 1092.634511 69.274530 1088.173695 C82.211542 1079.135243 96.123895 1071.592030 111.601373 1067.382924 C121.043268 1064.815419 130.084161 1060.823598 140.293451 1061.650624 C143.939081 1061.945912 148.196161 1059.029775 151.369012 1060.059682 C163.667413 1064.051869 176.478692 1059.794667 188.881036 1063.508656 C196.457757 1065.777821 204.916803 1065.028920 212.957330 1065.852895 C216.709833 1066.237416 220.398370 1067.220937 224.143915 1067.723866 C224.772455 1067.808339 226.011713 1066.917836 226.131036 1066.312734 C226.277948 1065.567250 225.465326 1063.887929 225.207818 1063.915639 C217.746515 1064.719228 213.753290 1058.471791 208.933221 1054.996571 C198.448480 1047.436635 189.020013 1038.393666 179.291681 1029.807362 C167.363824 1019.279530 160.327447 1005.467885 154.638849 991.037587 C149.425897 977.813954 148.267938 961.949086 152.558465 947.777944 C154.840570 940.240590 158.867792 933.071645 165.849298 927.632192 C181.744501 915.248036 200.295099 908.824330 219.214776 904.448232 C230.349542 901.872548 242.136896 901.081044 254.480218 903.223012 C276.468622 907.038930 297.761896 912.682607 318.714838 919.899037 C332.969476 924.808339 345.549615 932.806020 357.655939 941.892934 C368.179193 949.791860 376.129449 959.595570 383.653192 970.046864 C384.321283 970.974843 386.306940 970.954335 387.680597 971.374257 C387.588800 970.236195 387.606378 969.073842 387.360040 967.970326 C387.233819 967.405385 386.259210 966.908559 386.305475 966.444447 C387.260309 956.863881 388.288751 947.290273 389.358819 937.721669 C389.495904 936.495839 390.127374 935.318959 390.221124 934.095815 C390.940484 924.709950 390.877252 915.202748 392.389947 905.951161 C396.082330 883.368764 397.795953 860.285756 406.352472 838.772939 C412.226129 824.005116 418.523859 809.268300 429.676691 797.462026 C437.187677 789.510976 444.430719 781.071156 453.016168 774.430531 C463.833917 766.063344 476.224908 760.650380 489.962091 757.440297 C503.340753 754.313832 514.744684 757.277455 526.309137 762.827016 C528.929620 764.084462 530.270929 764.435414 532.709405 760.833974 C541.181085 748.322133 555.133478 743.942616 568.808160 739.878285 C584.570123 735.193593 600.528375 731.173085 616.346002 726.669667 C630.938653 722.515065 645.400567 717.888112 660.051691 713.959828 C663.599908 713.008534 665.022272 713.868520 662.835138 709.036305 C655.427911 692.671010 651.305841 675.118337 646.321954 657.898366 C645.787897 656.053090 646.181817 653.916676 646.263605 651.920155 C646.460870 647.105885 643.437921 644.877126 639.423150 643.858266 C633.361261 642.320058 627.215997 641.103810 621.093439 639.812001 C608.521539 637.159352 596.030694 633.191152 583.335504 632.351064 C573.311700 631.687795 564.056207 627.696095 554.069879 627.728993 C551.951227 627.736012 549.848566 626.669118 547.704767 626.286672 C543.524469 625.540822 539.820001 625.120229 536.045831 628.747426 C528.852594 635.660329 523.615777 634.886464 516.180963 628.948781 C508.274103 622.634206 508.201959 612.276967 512.202447 606.780507 C519.340753 596.972768 529.711969 595.356252 540.501398 595.978261 C548.000665 596.410634 555.403253 598.485768 562.853570 599.801930 C579.869562 602.807790 597.052789 604.850148 613.739801 609.692983 C620.658014 611.700734 627.915460 612.593312 635.058282 613.747426 C638.090997 614.237416 640.886529 614.311696 640.352350 609.409535 C639.333307 600.058034 638.489068 590.647694 638.339899 581.249623 C638.038507 562.255605 638.098688 543.251576 638.341852 524.255910 C638.415216 518.524892 639.573663 512.806630 640.252862 507.084645 C640.931940 501.362599 640.233942 495.753652 641.860650 489.807424 C644.612482 479.748403 644.624689 468.971364 646.351617 458.589833 C647.524103 451.541127 649.283624 444.534352 651.431940 437.714040 C658.206354 416.206899 665.321466 394.807424 672.210626 373.336110 C673.162164 370.370534 673.698541 367.253652 674.203180 364.170155 C674.468805 362.547109 673.546197 360.267262 674.363458 359.271169 C679.960748 352.448781 676.980157 344.281178 678.425592 336.870839 C681.748956 319.832204 679.178155 302.699086 680.377984 285.677419 C680.976984 277.178517 683.063898 268.793935 684.203180 260.320729 C685.103082 253.628713 685.477960 246.867421 686.293878 240.162160 C686.710260 236.741383 687.547906 233.368825 688.256036 229.987233 C692.464044 209.895223 697.885797 190.143514 704.173517 170.593068 C710.520441 150.858052 715.570856 130.686330 722.425104 111.139302 C730.655572 87.668294 740.572076 64.716725 759.646539 47.655202 C770.674493 37.790883 783.212335 33.229360 799.079645 37.030568 C809.352594 39.491567 818.311822 43.879689 827.548395 48.164723 C840.814874 54.319234 853.674859 61.138600 865.643365 69.721883 C889.476617 86.814198 913.731988 103.316640 937.656793 120.282979 C952.216119 130.607716 965.720636 142.203908 978.395685 154.822987 C989.123590 165.503438 1000.549737 175.480885 1011.346612 186.095204 C1014.229181 188.929097 1016.956598 189.973439 1020.866754 189.888265 C1031.860773 189.648854 1042.895196 190.323811 1053.853448 189.653066 C1064.010675 189.031423 1074.054498 186.603169 1084.211847 185.925801 C1100.904840 184.812673 1117.723566 185.232778 1134.352838 183.609029 C1154.419122 181.649678 1174.469537 181.650563 1194.538385 181.899617 C1209.267389 182.082448 1224.183771 181.895802 1238.644342 184.205373 C1249.832696 185.992299 1260.840265 184.903157 1271.871759 185.871053 C1278.651788 186.465871 1283.516046 183.667592 1288.102350 179.043019 C1311.572687 155.376759 1335.090387 131.755361 1358.807794 108.337209 C1370.292413 96.997426 1381.814508 85.625752 1394.083063 75.163838 C1421.893121 51.449513 1453.077692 32.942555 1486.292291 17.850789 C1498.344537 12.374501 1510.473443 6.989919 1522.859186 2.341420 C1539.825250 -4.026134 1555.122613 2.932973 1564.741266 19.096181 C1576.541070 38.924428 1584.360406 60.330739 1591.324518 82.088002 C1593.893609 90.115498 1594.807428 98.694875 1596.224420 107.065205 C1601.799371 139.998464 1600.212457 173.242177 1600.144586 206.397206 C1600.116998 219.788136 1599.403863 233.223561 1598.119928 246.553761 C1596.686334 261.445485 1595.206598 276.450124 1592.013971 291.026174 C1587.812799 310.206593 1585.338678 329.771169 1578.842096 348.505422 C1575.481500 358.196095 1574.181940 368.632497 1572.301813 378.796986 C1570.216608 390.069875 1575.718805 399.759328 1579.268365 409.875600 C1589.277154 438.401418 1599.472467 466.870412 1608.879693 495.595754 C1615.911676 517.068166 1622.225885 538.798451 1628.097467 560.619130 C1631.426568 572.991811 1635.622125 585.249745 1636.321588 598.257863 C1636.523248 602.006459 1637.304742 605.795094 1638.414850 609.381459 C1638.761041 610.499745 1641.186822 611.855519 1642.441949 611.664540 C1649.267145 610.626088 1656.092828 609.413869 1662.790826 607.749074 C1678.176568 603.924855 1693.494440 599.826283 1708.828668 595.796376 C1717.238580 593.586110 1725.703180 591.535268 1733.994195 588.937550 C1738.839166 587.419362 1743.106500 587.020375 1747.731012 589.728139 C1754.250543 593.545400 1755.733453 597.611623 1752.603082 604.487172 C1748.726129 613.002858 1741.553033 617.364003 1733.083795 619.742421 C1718.724908 623.774770 1704.309869 627.637685 1689.817193 631.155507 C1676.745660 634.328481 1663.567193 637.084950 1650.377496 639.733937 C1645.252008 640.763356 1642.331354 643.269948 1642.286920 648.591603 C1642.175348 661.923146 1642.042779 675.260426 1642.312311 688.587392 C1642.547662 700.219594 1639.332330 711.186513 1636.795709 722.318105 C1636.296930 724.506825 1636.216363 726.847402 1636.344781 729.095204 C1636.398004 730.029408 1637.335260 731.451894 1638.161676 731.706288 C1641.141412 732.623525 1644.218072 733.511342 1647.307184 733.738027 C1658.684625 734.572865 1670.075738 735.276723 1681.472955 735.772939 C1699.523492 736.558949 1717.677301 736.256581 1735.601129 738.164174 C1745.039117 739.168569 1754.549371 738.586293 1763.763483 740.085927 C1772.838434 741.562978 1782.557672 741.431996 1790.592584 747.677113 C1794.927057 751.046010 1796.773248 754.976186 1796.151666 759.963979 C1795.517633 765.049184 1791.109674 768.890981 1785.979059 769.804677 C1781.234430 770.649648 1759.091608 769.289174 1753.389947 768.016957 C1751.494195 767.593739 1749.445611 767.866689 1747.467096 767.803334 C1726.744684 767.139150 1705.945856 767.313100 1685.332330 765.444692 C1675.241754 764.530019 1664.950494 765.336293 1655.210992 763.398549 C1646.670709 761.699452 1638.335016 762.604360 1629.968805 761.724111 C1626.148004 761.322133 1624.101129 762.908437 1622.939508 766.136098 C1613.635309 791.990712 1596.752740 813.463979 1582.088190 836.172597 C1576.367486 845.031484 1568.940729 852.811147 1562.083551 860.906361 C1556.601861 867.377675 1551.114801 873.896474 1545.080133 879.835561 C1534.764459 889.988149 1524.416559 900.174794 1513.368951 909.503163 C1490.905328 928.470937 1467.508356 946.245351 1441.190484 959.680776 C1437.562067 961.533193 1436.210016 961.490834 1437.761285 966.877065 C1441.748834 980.722157 1443.346979 995.238149 1446.314508 1009.399403 C1449.054254 1022.475087 1450.671197 1035.686391 1452.643121 1048.865956 C1455.608697 1068.685780 1454.185358 1088.412953 1453.733942 1108.080678 C1453.536432 1116.675649 1453.559137 1125.685903 1452.014703 1134.219716 C1450.066949 1144.979237 1451.327692 1155.790883 1450.021051 1166.403554 C1448.284479 1180.505483 1447.354303 1194.634999 1446.070123 1208.755605 C1445.102350 1219.393300 1442.568414 1229.895741 1440.578424 1240.429433 C1439.864557 1244.208974 1440.385553 1247.077382 1443.339166 1250.049550 C1460.709039 1267.527944 1471.212701 1289.020863 1480.557916 1311.582753 C1487.998346 1329.546254 1494.090631 1347.965077 1501.309381 1365.981923 C1508.641900 1384.281850 1514.759088 1403.080678 1522.439264 1421.224843 C1527.565240 1433.333852 1530.470025 1445.945790 1533.849176 1458.488149 C1534.431207 1460.648305 1534.230768 1463.044057 1534.234918 1465.331166 C1534.263483 1480.996816 1535.248346 1496.746449 1533.939996 1512.301991 C1532.857477 1525.173573 1532.976129 1538.419789 1528.308649 1550.862172 C1527.870416 1552.030995 1528.390192 1553.524037 1528.227594 1554.837148 C1526.934381 1565.289174 1525.397272 1575.714467 1524.306940 1586.186757 C1523.366998 1595.215077 1522.808893 1604.287709 1522.275690 1613.352162 C1521.508600 1626.402577 1521.168024 1639.482411 1520.180475 1652.514394 C1519.159723 1665.984853 1517.608942 1679.415761 1516.242731 1692.859242 C1514.943658 1705.642812 1513.824518 1718.451405 1512.183649 1731.192006 C1510.482721 1744.401112 1508.647272 1757.617787 1506.144586 1770.692250 C1503.325006 1785.421254 1498.794244 1799.864125 1496.640192 1814.669057 C1493.788385 1834.267934 1487.063043 1852.766957 1481.935846 1871.679067 C1477.847223 1886.761342 1470.973932 1901.090932 1465.307184 1915.742787 C1454.721734 1943.112172 1442.084527 1969.538930 1428.192438 1995.356069 C1420.841119 2009.017201 1412.845758 2022.330678 1405.227716 2035.849965 C1398.836847 2047.191274 1392.680231 2058.665639 1386.225275 2069.970082 C1375.905939 2088.041860 1365.575372 2106.110707 1354.968439 2124.014516 C1345.595148 2139.835561 1336.293634 2155.731801 1326.125909 2171.040639 C1315.290094 2187.355580 1303.691095 2203.180287 1292.028619 2218.924916 C1279.322687 2236.077992 1266.333795 2253.028676 1253.131647 2269.802846 C1245.728570 2279.208608 1237.462335 2287.930043 1229.898492 2297.214955 C1200.775567 2332.963979 1166.965875 2364.227651 1134.189996 2396.414418 C1117.382623 2412.919789 1099.883600 2428.933705 1080.535821 2442.714467 C1071.887018 2448.874379 1064.202203 2456.373647 1055.931695 2463.082143 C1040.952081 2475.233266 1025.221002 2486.328969 1008.731622 2496.357045 C998.064752 2502.844594 987.741876 2509.928334 976.866266 2516.034291 C962.869440 2523.893178 949.442682 2532.913197 933.930963 2537.896108 C929.567560 2539.297719 925.468683 2541.637074 921.403131 2543.832875 C897.866388 2556.544301 872.599908 2564.765248 846.929254 2571.569692 C836.526422 2574.327260 825.315118 2573.874379 814.676080 2575.936147 C795.651910 2579.622914 776.537897 2577.236684 757.480279 2577.698110 C736.909479 2578.196156 716.897516 2574.167104 696.713678 2570.253529 C678.833917 2566.786244 661.730768 2561.327016 644.670099 2555.606069 C630.983087 2551.016225 617.715753 2545.036244 604.568536 2539.005727 C579.371026 2527.447377 554.968805 2514.399526 532.647760 2497.790151 C522.434503 2490.190297 512.229791 2482.571889 502.214410 2474.715444 C482.814874 2459.498158 463.489068 2444.184926 444.269464 2428.741078 C438.181940 2423.849477 432.352594 2418.601430 426.709039 2413.198598 C407.104913 2394.430043 387.276056 2375.875111 368.226007 2356.555287 C353.050470 2341.164418 338.877679 2324.784291 324.279230 2308.825551 C317.654169 2301.583363 310.970331 2294.390981 304.499444 2287.012563 C291.227106 2271.879018 278.119562 2256.601186 264.864496 2241.452260 C258.840265 2234.567250 252.373956 2228.056264 246.552850 2221.008656 C235.523797 2207.655385 224.844171 2194.014028 213.962884 2180.537953 C207.897699 2173.026479 201.422296 2165.827748 195.655084 2158.097768 C185.059442 2143.895863 174.722467 2129.495961 164.513910 2115.012074 C152.353143 2097.758412 140.333002 2080.402699 128.477411 2062.938100 C124.073053 2056.450063 120.307123 2049.528676 115.750055 2042.304799 M34.250055 1596.804799 C32.916742 1607.595815 31.237543 1618.358266 30.340143 1629.185414 C29.288263 1641.875356 28.273309 1654.628652 28.410638 1667.341786 C28.587762 1683.729848 26.781976 1700.157826 30.064813 1716.544423 C31.902521 1725.717153 30.049432 1735.193837 31.830743 1744.752553 C34.321710 1758.119008 35.664606 1771.749867 38.126642 1785.205190 C41.053155 1801.198598 44.936761 1816.922719 49.907220 1832.353383 C55.012384 1848.202016 61.164850 1863.716176 66.153131 1879.598500 C72.646051 1900.271352 82.473382 1919.524770 91.054315 1939.278432 C98.424554 1956.244985 107.238031 1972.660024 116.426080 1988.740346 C125.869134 2005.267445 136.229059 2021.298695 146.737848 2037.182973 C167.254022 2068.193959 187.377435 2099.487660 210.238275 2128.882436 C221.398309 2143.232289 232.222589 2157.848500 243.597894 2172.023793 C251.713251 2182.136586 260.542718 2191.673940 268.965936 2201.542836 C280.090875 2214.577260 290.995111 2227.802113 302.244256 2240.727651 C313.381525 2253.524526 324.746820 2266.126332 336.161859 2278.677602 C351.160882 2295.169301 366.052301 2311.771108 381.461969 2327.873647 C396.205865 2343.280385 411.553888 2358.108998 426.636529 2373.191518 C428.993219 2375.547963 431.203302 2378.076772 433.731134 2380.232533 C446.517877 2391.136098 459.409967 2401.915639 472.220392 2412.791371 C481.604425 2420.758656 490.671197 2429.122182 500.325860 2436.743520 C513.550592 2447.182973 527.353082 2456.888783 540.626886 2467.268666 C557.969171 2480.829457 576.750177 2492.030873 595.982110 2502.623158 C615.774469 2513.523549 637.036432 2521.005483 657.786310 2529.644154 C668.017999 2533.903920 678.754327 2537.617543 689.622613 2539.513295 C703.042657 2541.854360 716.198907 2545.473500 730.057550 2546.218129 C742.469781 2546.884633 754.846002 2549.727162 767.417047 2549.777699 C778.507013 2549.822133 789.522882 2549.290639 800.618463 2548.147572 C812.750787 2546.897817 824.984796 2546.282094 836.895929 2543.692250 C854.142755 2539.942494 871.056329 2534.840444 887.244317 2527.712758 C895.427057 2524.109486 902.959650 2518.754994 911.380182 2516.024037 C928.289484 2510.540395 944.008356 2502.165395 958.869928 2493.273793 C980.091241 2480.577748 1000.929254 2466.983510 1021.209283 2452.549672 C1043.717218 2436.530141 1064.236139 2418.256215 1085.662530 2401.041371 C1098.723443 2390.547719 1110.256525 2378.150746 1122.459161 2366.590932 C1135.546075 2354.193227 1149.002862 2342.154653 1161.577325 2329.256703 C1173.642755 2316.880727 1184.777399 2303.597768 1196.334283 2290.725697 C1202.446344 2283.918080 1208.624200 2277.169301 1214.700616 2270.329945 C1219.008966 2265.480580 1223.416681 2260.695180 1227.397027 2255.583119 C1238.359186 2241.504262 1249.246271 2227.363149 1259.924737 2213.068959 C1270.923028 2198.346547 1281.846857 2183.559926 1292.413751 2168.527455 C1300.525812 2156.986684 1308.397516 2145.242543 1315.722833 2133.191762 C1326.210626 2115.938832 1336.063653 2098.300649 1346.262994 2080.871205 C1353.960260 2067.717397 1361.969903 2054.743031 1369.482233 2041.485951 C1376.806573 2028.560903 1383.622491 2015.348988 1390.759942 2002.317006 C1398.946344 1987.369252 1407.586603 1972.658315 1415.368463 1957.504994 C1420.705377 1947.112904 1424.690484 1936.036244 1429.671197 1925.449819 C1441.255670 1900.827748 1450.344293 1875.266469 1458.133356 1849.263539 C1462.771051 1833.780629 1466.443414 1817.996694 1470.166803 1802.257436 C1471.980524 1794.591420 1472.480279 1786.609975 1474.365533 1778.966420 C1476.507379 1770.282338 1477.756891 1761.588490 1478.599176 1752.678578 C1479.727594 1740.744374 1482.671442 1728.992299 1484.135065 1717.076039 C1485.361627 1707.089345 1484.638483 1696.791493 1486.583551 1686.989613 C1487.871393 1680.499257 1486.697076 1673.759267 1488.611871 1667.872670 C1490.645318 1661.620717 1489.614068 1655.645986 1490.249567 1649.586293 C1490.919733 1643.197133 1491.802057 1636.821034 1492.204400 1630.414906 C1493.024225 1617.369496 1493.584772 1604.307729 1494.245660 1591.252309 C1494.279352 1590.587392 1494.155084 1589.903432 1494.264215 1589.255238 C1495.575250 1581.471669 1497.145318 1573.723744 1498.183893 1565.904775 C1499.159479 1558.556508 1498.751520 1550.938832 1500.436822 1543.789662 C1503.273004 1531.757069 1504.576227 1519.705190 1504.259820 1507.408070 C1504.191217 1504.743520 1503.571588 1501.853261 1504.360895 1499.445912 C1509.226129 1484.610341 1504.808649 1470.113271 1502.901422 1455.596913 C1501.521295 1445.095326 1496.655328 1435.660024 1492.474908 1425.952504 C1486.024469 1410.974477 1481.146051 1395.324574 1475.436090 1380.021230 C1467.790094 1359.529042 1460.381158 1338.933827 1452.090387 1318.702504 C1447.655084 1307.878896 1441.652399 1297.689320 1436.134576 1287.331899 C1435.628473 1286.381581 1433.501764 1285.949574 1432.131647 1285.957875 C1431.499322 1285.961659 1430.563775 1287.523793 1430.296197 1288.521718 C1424.901178 1308.625966 1420.200494 1328.939809 1414.110162 1348.828725 C1404.178522 1381.262074 1392.872125 1413.265614 1378.761163 1444.150380 C1370.429742 1462.385610 1361.570978 1480.414662 1352.130304 1498.099233 C1341.547418 1517.923818 1325.292901 1531.457143 1303.988336 1539.241078 C1290.846124 1544.042958 1277.061578 1545.892445 1263.977106 1543.361440 C1242.523859 1539.212148 1225.506402 1525.716908 1212.652032 1508.686269 C1199.394342 1491.121083 1190.057672 1471.057607 1184.206476 1449.574696 C1180.000299 1434.131093 1175.784601 1418.827260 1173.879816 1402.756703 C1172.285089 1389.302236 1171.730524 1375.801137 1170.512018 1362.352528 C1169.763483 1354.091542 1171.506525 1345.590810 1172.277032 1337.211171 C1172.804498 1331.475453 1173.477838 1325.747792 1174.288141 1320.045278 C1174.809991 1316.372426 1173.337823 1315.378896 1169.896295 1315.766713 C1162.854547 1316.560536 1155.781427 1317.745839 1148.734186 1317.663197 C1138.005670 1317.537343 1127.274591 1316.631825 1116.572198 1315.730336 C1111.932916 1315.339467 1111.824396 1317.533437 1112.412164 1320.999379 C1114.421564 1332.849477 1117.191827 1344.661733 1117.978570 1356.600087 C1118.635553 1366.568349 1117.242242 1376.729482 1116.130426 1386.735585 C1115.443048 1392.920644 1113.733942 1399.013051 1112.222955 1405.082143 C1106.802057 1426.854970 1097.863946 1447.168813 1086.222345 1466.291371 C1077.684137 1480.316152 1067.604791 1492.731679 1054.376886 1503.078114 C1029.731622 1522.354726 1001.448785 1529.647817 971.201471 1531.712392 C963.471002 1532.239980 955.786432 1531.253163 948.002008 1530.050649 C922.405694 1526.096303 905.611383 1510.868276 894.691095 1488.901845 C886.851251 1473.131825 885.462457 1455.241322 882.392633 1438.057362 C880.312189 1426.411733 879.790704 1414.495961 878.165704 1402.757192 C877.310235 1396.577748 876.081476 1390.356069 874.148614 1384.438588 C869.836969 1371.238149 865.321588 1358.213368 857.907892 1346.141835 C848.043634 1330.080190 834.953302 1317.079457 821.544977 1304.321278 C815.105401 1298.194081 808.075372 1292.253407 800.331842 1288.024037 C785.747247 1280.058095 770.917535 1272.353627 754.749322 1267.786366 C736.259942 1262.563344 717.877618 1256.943837 699.304498 1252.042592 C693.170831 1250.424184 686.217584 1248.823598 680.286554 1250.137807 C665.841974 1253.338002 651.834650 1257.742787 638.664850 1265.494252 C621.172784 1275.789784 605.050104 1287.821523 589.137018 1300.159657 C575.084527 1311.055409 561.750787 1322.908803 548.437311 1334.719838 C532.540460 1348.822255 508.826837 1348.658315 492.131280 1340.690175 C479.792657 1334.801381 471.524957 1324.720448 464.895929 1313.303090 C458.703546 1302.637685 453.717340 1291.366078 449.086725 1279.871449 C441.338312 1260.637074 436.350152 1240.986806 436.259576 1220.200429 C436.207208 1208.202504 435.877252 1196.187367 436.418878 1184.213735 C436.662652 1178.827626 434.114313 1177.366567 429.934137 1175.708363 C418.704767 1171.253774 407.784112 1175.482900 396.769098 1176.394765 C393.107233 1176.698110 389.478570 1177.984364 385.943963 1179.152089 C359.585199 1187.859486 333.345636 1196.663075 308.460016 1209.419911 C299.093011 1214.221547 289.689874 1218.974111 280.757928 1224.468739 C265.291559 1233.983144 249.990594 1243.810903 235.077020 1254.164906 C223.309625 1262.334950 211.897821 1271.099599 200.927423 1280.313710 C187.687860 1291.434071 174.737848 1302.952504 162.304437 1314.963246 C151.665582 1325.240346 141.841852 1336.372182 131.843072 1347.295766 C127.728448 1351.791005 123.814447 1356.530507 120.311883 1361.512319 C113.812799 1370.756093 107.164178 1379.960072 101.522882 1389.726308 C93.326044 1403.916493 84.911981 1418.142201 78.523431 1433.174306 C70.940179 1451.017445 65.144891 1469.645619 59.077875 1488.099111 C55.015314 1500.455434 51.758295 1513.080434 48.272882 1525.621816 C45.611017 1535.199819 42.706781 1544.744374 40.734308 1554.470937 C38.716852 1564.419545 37.746210 1574.578236 36.226129 1584.631215 C35.710138 1588.044057 34.916620 1591.414784 34.250055 1596.804799 M680.250055 670.804799 C683.583429 679.484548 687.247125 688.060048 690.038141 696.910817 C690.822320 699.397267 690.507989 702.552174 693.165094 703.494740 C695.531183 704.334035 698.574274 704.382069 701.017145 703.700002 C713.538263 700.203725 725.828424 695.783437 738.469537 692.850392 C746.077447 691.085194 753.141778 686.796437 761.426080 687.738088 C766.815973 688.350819 771.909357 692.861440 772.250177 698.073659 C772.753473 705.772389 768.676080 710.854970 759.710870 713.809743 C743.581109 719.125600 727.522150 724.671010 711.286310 729.638783 C707.980890 730.650136 707.508111 730.934071 709.251398 733.898793 C714.597101 742.989980 719.317316 752.466054 724.965753 761.357167 C730.883111 770.671498 737.304620 779.706288 744.070489 788.424916 C747.885675 793.341176 752.841974 797.371327 757.278985 801.805776 C759.833917 804.359486 763.921197 806.567861 764.609918 809.556142 C766.088067 815.968251 769.736261 820.294545 774.057916 824.735707 C784.386285 835.349477 793.393243 847.503529 804.776422 856.772450 C819.225763 868.537953 835.559503 877.825551 852.532892 886.000600 C869.740655 894.288442 887.224542 900.946034 906.154718 903.908070 C915.087091 905.305776 923.800836 908.049306 932.698541 909.735341 C941.419122 911.387807 950.213434 913.244618 959.035821 913.630361 C973.674493 914.270741 988.361383 913.821645 1003.027887 913.780629 C1004.619195 913.776235 1006.362848 913.797109 1007.773981 913.193715 C1014.550592 910.296376 1020.745660 911.192616 1026.778253 915.262074 C1029.911676 917.375722 1034.667413 924.513661 1034.093561 926.961293 C1032.887750 932.104970 1026.846612 937.338368 1021.931085 937.832143 C1009.475275 939.083241 996.568902 938.842397 984.705133 942.223988 C970.419000 946.296010 956.632013 943.124867 943.357355 941.072865 C930.495904 939.084340 917.296442 937.255238 904.546930 933.841664 C897.018976 931.826161 889.319513 930.435780 881.824151 928.315907 C860.608209 922.315419 840.595270 913.767934 821.501275 902.449208 C804.507623 892.375722 788.333917 881.431630 773.795709 868.164296 C768.298639 863.147694 763.692560 857.125111 758.884210 851.390248 C751.384942 842.445912 748.522150 842.424184 741.318902 851.766713 C739.785455 853.755605 738.813775 856.289418 737.004083 857.935414 C724.697809 869.128774 712.920831 881.062123 699.669488 891.022450 C678.261651 907.113637 655.789728 921.783925 633.885309 937.221669 C619.400323 947.430531 605.116510 957.925038 590.752740 968.305531 C575.071588 979.637929 559.456720 991.073354 546.014459 1005.103749 C538.995416 1012.429677 532.338312 1020.101308 525.470025 1027.573110 C514.492486 1039.515492 506.094781 1053.299794 498.412408 1067.389394 C490.299982 1082.267568 483.513116 1097.881581 478.852472 1114.259999 C475.111627 1127.405751 470.966119 1140.515736 468.480035 1153.916371 C466.083429 1166.833363 464.734552 1180.085439 464.473688 1193.220937 C464.175226 1208.258901 464.399591 1223.504506 466.578424 1238.339589 C468.818902 1253.593861 475.228937 1267.928578 481.526178 1282.059438 C486.304376 1292.781484 491.195001 1303.624989 500.698907 1311.034657 C506.776544 1315.773183 512.943170 1318.944692 522.165094 1316.309560 C531.779718 1313.562123 537.062799 1306.199574 543.619806 1300.736684 C558.464899 1288.368031 573.378229 1276.137441 588.572931 1264.178944 C604.456354 1251.678334 621.150323 1240.493153 639.362726 1232.103627 C652.977838 1225.831899 667.404108 1221.068349 683.088922 1221.659902 C697.498468 1222.203236 711.396417 1224.528432 724.934625 1229.396718 C726.321100 1229.895375 728.048150 1229.446767 729.617242 1229.437611 C728.860528 1228.259145 728.254571 1226.941029 727.317316 1225.929921 C725.052789 1223.487172 722.046319 1221.542714 720.373224 1218.772694 C710.579278 1202.557118 701.665704 1186.234364 697.847589 1167.035268 C694.099176 1148.186025 690.406061 1129.514760 690.263116 1110.269277 C690.188898 1100.270009 690.021905 1090.262319 690.337945 1080.272450 C690.519586 1074.533193 691.128473 1068.721303 692.367975 1063.124257 C693.838190 1056.485463 702.504083 1050.716420 708.228570 1051.804677 C715.029108 1053.097524 717.931817 1057.946523 718.315851 1066.880849 C719.077692 1084.602162 716.532648 1102.374867 720.089899 1120.086903 C722.287286 1131.027699 722.989801 1142.275258 724.230401 1153.399892 C725.594781 1165.635365 729.509332 1177.470693 735.613458 1187.627431 C747.695734 1207.730946 762.179864 1226.057118 784.795221 1236.017445 C789.366266 1238.030385 795.335382 1241.239613 795.860406 1246.772694 C796.452081 1253.009633 800.466119 1254.779164 804.565607 1257.079335 C821.013483 1266.307362 836.800836 1276.491567 849.722467 1290.396840 C859.230768 1300.628896 868.726617 1310.963246 877.209650 1322.032338 C886.281671 1333.869985 892.965875 1347.466054 897.911920 1361.383656 C902.793390 1375.119252 905.521661 1389.727528 908.085016 1404.150258 C910.817560 1419.524892 911.936822 1435.179555 914.357355 1450.618398 C916.039239 1461.346181 918.148614 1472.126454 924.266778 1481.481923 C932.240777 1493.674794 942.865655 1501.689809 958.067926 1501.771230 C971.968927 1501.845693 985.660333 1501.512929 999.484918 1498.106557 C1021.971368 1492.565785 1040.001764 1480.429677 1053.705133 1462.805287 C1065.066095 1448.193837 1073.388727 1431.276723 1079.393854 1413.563100 C1083.190729 1402.364003 1088.129693 1391.212148 1088.062921 1379.227406 C1087.986627 1365.509755 1088.851251 1351.842885 1086.682062 1337.987416 C1084.708063 1325.377919 1080.582452 1313.794545 1075.646051 1302.451283 C1069.499322 1288.327260 1059.479059 1276.496449 1048.814508 1265.639516 C1030.969049 1247.472035 1012.245904 1230.167714 993.922662 1212.468495 C973.202325 1192.453725 952.343683 1172.577016 931.919855 1152.263661 C925.817438 1146.194081 920.469293 1139.186757 915.781427 1131.956899 C913.700128 1128.746816 910.872369 1124.817983 913.103448 1119.824208 C918.036676 1108.781728 927.818658 1106.608998 936.598199 1115.209706 C947.986261 1126.365468 959.045465 1137.858266 970.484186 1148.960927 C980.393854 1158.579579 990.647150 1167.843617 1000.726495 1177.287953 C1011.778375 1187.643544 1023.066461 1197.763661 1033.788019 1208.451283 C1056.356866 1230.948720 1080.058160 1252.489247 1096.348932 1280.488637 C1098.051202 1283.414296 1100.580133 1285.451283 1104.886041 1286.050404 C1116.982355 1287.732900 1128.991266 1290.134877 1141.260309 1289.723012 C1146.667169 1289.541615 1152.038629 1288.424306 1157.435846 1287.816884 C1163.820489 1287.098378 1170.399713 1287.162709 1176.532037 1285.527577 C1179.843439 1284.644643 1184.069025 1283.463002 1184.608819 1277.552846 C1185.088067 1272.303334 1188.479425 1267.263661 1190.840265 1262.251454 C1202.777887 1236.905873 1218.422052 1213.788564 1235.651666 1191.920278 C1243.312311 1182.197011 1254.534112 1177.075917 1268.812677 1185.325429 C1274.317682 1188.505727 1277.324640 1193.372792 1276.250055 1198.093373 C1274.935968 1203.867299 1270.354791 1207.768788 1263.862115 1207.707021 C1258.564386 1207.656728 1255.492486 1210.125111 1252.663141 1214.275014 C1241.417047 1230.770375 1231.480646 1248.028188 1222.307428 1265.725331 C1218.624689 1272.830190 1215.345270 1280.170155 1212.315607 1287.580190 C1209.163385 1295.290639 1210.315607 1304.483266 1204.292657 1311.277089 C1203.961725 1311.650380 1204.319879 1312.581288 1204.239557 1313.238149 C1202.920831 1324.020863 1200.562067 1334.793202 1200.476495 1345.584096 C1200.327936 1364.301381 1201.366144 1383.041493 1202.383356 1401.746205 C1202.685968 1407.309926 1204.546075 1412.795033 1205.756280 1418.302236 C1208.753473 1431.941274 1212.512262 1445.309926 1218.183282 1458.154897 C1225.802789 1475.413564 1233.586847 1492.269521 1249.375543 1504.145253 C1260.729425 1512.685536 1272.317926 1517.811879 1286.774957 1513.864003 C1299.157281 1510.482778 1311.059991 1505.300893 1318.954400 1495.499379 C1327.054864 1485.442128 1333.178277 1473.574452 1338.912408 1461.883656 C1346.227960 1446.968617 1352.265192 1431.427724 1358.889093 1416.172109 C1370.456476 1389.530629 1379.809015 1362.072255 1388.106378 1334.291493 C1393.534112 1316.118764 1398.188898 1297.704945 1402.652521 1279.231191 C1407.151422 1260.611440 1410.685358 1241.879506 1414.508844 1223.157704 C1415.970025 1216.001332 1414.486871 1208.538930 1416.602106 1202.048207 C1419.790582 1192.264272 1418.034479 1182.332753 1419.739557 1172.502065 C1422.350397 1157.448842 1421.584772 1141.809804 1422.246393 1126.419301 C1422.274957 1125.753896 1422.044733 1125.000844 1422.280572 1124.432118 C1426.876764 1113.352284 1423.237359 1101.483388 1425.741510 1089.965932 C1427.586969 1081.477651 1426.030328 1072.012319 1424.767633 1062.833974 C1423.158258 1051.136342 1422.368219 1039.276723 1420.343072 1027.546132 C1417.671442 1012.069692 1415.128229 996.614125 1411.106256 981.383168 C1409.540948 975.455434 1408.123956 970.504872 1402.596246 966.962636 C1396.044733 962.764028 1395.618463 956.421132 1398.217462 949.491933 C1400.932794 942.252187 1406.323053 937.958608 1413.823297 937.847768 C1418.357721 937.780995 1422.433649 937.447255 1426.572076 934.705556 C1438.529596 926.783681 1451.114557 919.806630 1463.052057 911.856801 C1475.687311 903.442372 1487.661676 894.095937 1498.109186 882.960194 C1499.704889 881.259389 1501.363824 879.613637 1503.057184 878.009877 C1515.262018 866.448720 1528.103082 855.478383 1539.496393 843.167836 C1548.065484 833.908803 1554.632135 822.820912 1562.361383 812.755238 C1574.591119 796.828481 1584.682916 779.632558 1593.352594 761.574819 C1593.809137 760.624013 1593.011041 757.963490 1592.813043 757.965199 C1585.006891 758.031606 1577.413629 752.785146 1569.269830 757.413197 C1567.483209 758.428578 1563.601373 757.078481 1561.361871 755.709462 C1556.244195 752.580922 1551.334039 749.017445 1546.750787 745.144032 C1543.678033 742.547231 1543.200006 732.823720 1545.358697 729.696034 C1548.314996 725.412953 1554.830865 723.159902 1559.734674 724.222157 C1566.199029 725.622548 1572.720270 726.832631 1579.270318 727.739003 C1584.321100 728.437856 1589.304498 727.796010 1594.531061 729.503774 C1602.194391 732.007802 1605.040338 729.492665 1607.626764 721.434682 C1612.037652 707.692433 1612.291803 693.290395 1614.080865 679.157521 C1615.035943 671.611806 1614.284234 663.845570 1614.239557 656.179189 C1614.201959 649.684987 1612.782770 648.483632 1607.100885 649.954884 C1599.575006 651.903432 1592.081109 653.987477 1584.517145 655.775136 C1571.538141 658.842824 1558.381402 661.101735 1546.443658 667.712453 C1538.363092 672.187367 1528.541559 665.990834 1528.250055 656.777944 C1527.979547 648.229665 1532.038629 642.559621 1540.552545 639.816152 C1552.613336 635.929860 1564.647027 631.944997 1576.792779 628.340810 C1585.137750 625.864552 1593.573297 623.540944 1602.115533 621.927297 C1610.135797 620.412343 1612.011774 618.246144 1609.798639 610.388539 C1609.468805 609.217702 1608.440973 608.189748 1608.300348 607.027516 C1606.151666 589.249623 1601.496149 572.070851 1596.289606 554.992543 C1590.780817 536.921986 1585.707330 518.718861 1580.207574 500.645497 C1576.430475 488.234548 1572.586236 475.824635 1568.168512 463.632924 C1562.082574 446.837453 1555.158990 430.344594 1549.131891 413.529347 C1546.207086 405.370168 1543.897272 396.872304 1542.497613 388.332997 C1541.761041 383.839162 1543.414117 378.894460 1544.286920 374.208974 C1545.953424 365.261342 1547.672418 356.317189 1549.661676 347.437123 C1553.073053 332.208363 1556.999811 317.089650 1560.141900 301.807973 C1562.059869 292.480519 1561.783258 282.594289 1564.497613 273.561635 C1569.398981 257.251454 1569.378229 240.342519 1569.692682 223.962270 C1570.339410 190.284932 1572.396783 156.490590 1568.479547 122.775472 C1567.410699 113.577046 1566.618707 104.512929 1564.446100 95.412434 C1559.228815 73.560628 1549.856012 53.468617 1540.279840 33.386647 C1538.749078 30.176534 1536.141168 28.747914 1533.174127 30.008290 C1513.047174 38.557820 1492.631158 46.570455 1473.114068 56.361867 C1460.311578 62.784749 1448.545953 71.466512 1436.885309 79.922109 C1424.456598 88.934895 1411.867731 98.002553 1400.802911 108.568868 C1366.713678 141.122395 1333.278253 174.361867 1299.702936 207.450734 C1295.300714 211.789296 1290.679010 214.098317 1284.303644 213.899648 C1258.251642 213.087941 1232.207452 213.555470 1206.112115 212.291615 C1175.822076 210.824635 1145.317682 210.417836 1114.951715 213.682973 C1101.972955 215.078542 1088.850763 215.139577 1075.793268 215.800404 C1075.128351 215.834035 1074.380182 215.604665 1073.805353 215.834462 C1063.692071 219.875966 1052.831232 217.340810 1042.383966 219.479115 C1034.385797 221.116200 1025.766412 219.464040 1017.455621 219.895619 C1008.168634 220.377858 1000.677667 216.824086 994.228204 210.724507 C978.624933 195.967824 963.437799 180.760152 947.562921 166.305409 C935.883234 155.670552 923.868097 145.272694 911.129571 135.963826 C892.857843 122.611531 873.930231 110.136006 855.024957 97.677052 C835.589899 84.869008 816.052301 72.348287 793.388483 65.333333 C788.858819 63.931355 785.497003 64.311879 783.182672 66.267201 C777.702569 70.897542 772.389947 76.122243 768.399591 82.043385 C757.574884 98.106313 750.868829 115.923268 745.991022 134.759663 C740.181573 157.193868 732.998346 179.306294 725.594049 201.283132 C719.268365 220.057668 715.528619 239.357228 712.415216 258.771657 C710.227106 272.415517 709.352350 286.289845 708.327203 300.093678 C707.580987 310.142384 709.114557 320.275014 706.396539 330.299001 C704.986139 335.500417 703.461236 341.611623 704.927911 346.414052 C706.759088 352.409902 704.602106 357.355580 704.415948 362.779408 C704.204523 368.938893 702.723932 374.626454 700.746271 380.321645 C695.888116 394.311147 690.460138 408.142445 686.431085 422.368642 C682.704278 435.528310 678.393976 448.465260 675.751642 462.078175 C671.384088 484.578298 668.162897 506.972829 668.246271 529.860646 C668.259576 533.521779 669.592096 538.088246 667.903375 540.640981 C665.074762 544.916554 665.464044 549.508778 666.571710 552.927846 C669.100030 560.732900 667.799005 568.463979 668.228937 576.204579 C668.972223 589.590810 669.423883 602.996266 670.429986 616.361073 C670.573663 618.268910 672.813287 621.108510 674.627130 621.632069 C692.225519 626.712209 710.187921 630.055776 728.434625 631.805409 C738.205377 632.742299 743.516412 643.274037 737.849298 651.070851 C734.250177 656.022328 728.653863 658.208852 722.702936 657.692616 C711.887628 656.754445 701.072442 655.493764 690.363824 653.722585 C673.789239 650.981313 673.407648 651.239308 678.871393 667.378590 C679.063043 667.944692 679.778619 668.333424 680.250055 670.804799 M459.250055 1083.804799 C459.583429 1082.272084 459.583673 1080.559071 460.301080 1079.234242 C468.410943 1064.258901 474.698907 1048.295522 484.684381 1034.333241 C487.418756 1030.509755 489.890069 1026.498158 492.481988 1022.572865 C495.073907 1018.647572 496.804376 1012.949574 500.444269 1011.180531 C507.209527 1007.891957 501.191217 1002.832143 503.754327 998.841664 C507.860406 992.448842 509.123102 984.178822 513.417657 977.967519 C526.030206 959.726308 537.255304 940.798329 544.899591 919.975331 C548.097223 911.264760 551.150812 902.129018 551.902643 892.991811 C552.747125 882.727895 552.609430 871.763905 549.833551 861.973866 C546.130426 848.914662 544.308282 835.457387 538.907037 822.560780 C533.699884 810.128163 526.372369 800.378652 516.964166 791.729360 C510.204645 785.515004 501.408258 783.782338 492.745660 786.479848 C470.288141 793.472768 454.195001 808.958119 442.757867 828.653798 C430.051080 850.536122 426.313775 875.508168 422.372858 900.123769 C420.942560 909.056752 420.963312 918.218251 420.235284 927.268422 C419.640436 934.663197 420.120050 942.418080 417.983331 949.354115 C414.274225 961.394154 417.435602 973.705434 414.641168 985.861073 C412.121149 996.822865 412.982477 1008.551503 412.226861 1019.933461 C411.729791 1027.420766 405.040948 1033.312489 397.861749 1033.912953 C389.393487 1034.621327 385.598566 1029.171742 382.301446 1023.112050 C374.805902 1009.335805 366.725702 996.055776 357.241754 983.441029 C343.342462 964.953603 325.884698 952.318959 303.869684 945.834340 C287.517450 941.017690 271.302789 935.245351 254.603692 932.288564 C245.361566 930.652333 235.291803 931.159047 225.357782 933.189198 C215.446161 935.214833 206.446954 939.298085 197.044000 942.339833 C189.574579 944.756093 181.857355 949.289662 180.518732 957.861684 C178.984674 967.685414 180.380853 977.645131 184.454400 987.072255 C191.272516 1002.850697 203.275567 1014.456410 216.348932 1024.536244 C234.311151 1038.385732 253.532037 1050.590566 271.941339 1063.877309 C283.066644 1071.906606 293.830865 1080.461781 304.445367 1089.161366 C308.964776 1092.865468 309.382928 1100.060780 307.101373 1106.044667 C304.799371 1112.082631 300.278070 1113.492421 294.441461 1113.893910 C282.627130 1114.706532 272.473016 1109.041005 261.610101 1106.157094 C248.703058 1102.730458 235.981866 1098.160756 222.863885 1096.086171 C206.940484 1093.567983 190.687250 1093.133778 174.575250 1091.815419 C173.582147 1091.734120 172.458795 1092.102040 171.594598 1091.759755 C160.735956 1087.458486 149.198907 1088.954213 138.468378 1090.262196 C121.878473 1092.284291 106.564447 1099.698964 91.898431 1107.837636 C85.464960 1111.407948 82.292718 1117.948476 84.386407 1124.225453 C85.638483 1127.979237 87.787225 1131.654530 90.309930 1134.727162 C103.826471 1151.189687 122.305414 1160.427236 141.629083 1167.577016 C157.276605 1173.366811 173.543268 1177.663442 189.781549 1181.609364 C199.635736 1184.003896 209.934076 1184.719350 220.079767 1185.706899 C225.692010 1186.253163 231.412836 1185.567983 237.064386 1185.848012 C256.262872 1186.798573 273.735650 1181.239613 290.596490 1172.606801 C297.422357 1169.111806 304.690240 1166.370351 311.957452 1163.868398 C332.924005 1156.650258 354.172540 1150.468007 376.289545 1147.778554 C380.680597 1147.244496 385.568841 1147.387441 389.275567 1145.422109 C395.122980 1142.322133 401.903253 1142.402211 406.424493 1144.293446 C415.853570 1148.237660 425.954889 1146.138173 435.189996 1149.665883 C437.189874 1150.429799 440.010065 1150.934194 440.462579 1146.354970 C441.198419 1138.910024 442.748956 1131.431996 444.940729 1124.269277 C449.001520 1110.999501 453.773981 1097.947499 459.250055 1083.804799 M613.250055 757.804799 C604.359308 760.471547 595.582574 763.644887 586.549615 765.680409 C574.395807 768.419423 562.752374 772.259267 551.394464 777.401601 C546.539850 779.599599 547.427545 781.465932 549.861871 784.394521 C551.936822 786.890981 554.694025 789.000600 556.148492 791.801259 C561.980768 803.031239 567.345392 814.247426 570.771173 826.774037 C576.628595 848.193105 581.033380 869.408925 580.497003 891.758168 C580.247003 902.170888 578.220392 912.052358 575.116632 921.630605 C572.193902 930.650380 569.720636 940.108998 563.441339 947.799306 C562.455377 949.006703 562.828424 951.323842 562.573053 953.127797 C563.986627 952.165639 565.528863 951.345693 566.785211 950.209828 C569.006769 948.201528 570.793268 945.621205 573.222955 943.951161 C580.702692 938.810780 588.523370 934.165883 595.989557 929.006947 C615.956598 915.210683 635.916192 901.398305 655.657770 887.283193 C665.001031 880.602895 673.918512 873.315175 682.881891 866.119496 C690.923639 859.663808 699.011285 853.228383 706.623712 846.285268 C714.204156 839.371205 721.185968 831.803822 728.497858 824.591176 C731.150079 821.975209 730.883844 819.849721 728.561944 816.980824 C723.571466 810.815541 718.765192 804.471913 714.295099 797.920522 C702.698419 780.924550 691.672540 763.572377 682.198053 745.266225 C679.599542 740.245473 677.092218 739.763051 670.587823 741.793202 C668.221246 742.531850 665.806940 743.116933 663.424859 743.808095 C647.364923 748.468251 631.308038 753.138051 613.250055 757.804799 z"/><path class="selected"  fill="#000000" opacity="1.000000" stroke="none" 
 	d="
M260.250055 1359.804799 C264.795404 1353.441274 271.350824 1352.266957 277.027765 1354.205434 C281.224603 1355.638417 285.897394 1360.148549 287.347955 1364.331410 C292.076532 1377.967397 298.242364 1391.551869 296.202325 1406.624135 C295.102045 1414.753774 294.067010 1422.976674 291.808038 1430.813222 C291.127740 1433.173085 291.367731 1433.748891 292.572076 1435.169179 C299.022088 1442.775868 299.351434 1449.929311 293.266107 1457.705068 C289.274957 1462.804921 285.034418 1467.745351 280.543878 1472.408925 C275.274042 1477.881825 263.275629 1477.049062 258.336420 1470.561513 C251.517389 1461.604726 246.865777 1451.647328 244.040826 1440.506703 C239.998956 1424.566640 243.199945 1409.394643 246.970941 1394.252431 C249.875665 1382.588735 253.606500 1371.070790 260.250055 1359.804799 z"/><path class="selected"  fill="#000000" opacity="1.000000" stroke="none" 
 	d="
M260.750055 1816.304799 C249.481866 1831.414174 232.227228 1827.074086 224.427667 1816.430043 C218.559930 1808.421986 215.955499 1798.838246 213.849603 1788.878041 C211.905450 1779.682973 211.998163 1770.669301 212.523309 1761.717641 C213.065729 1752.471303 214.752191 1743.189687 218.514154 1734.379994 C222.458490 1725.143422 230.055170 1725.942738 237.812433 1725.715321 C245.591485 1725.487294 248.664545 1731.609609 249.569818 1736.603505 C251.194757 1745.567738 257.003046 1752.236440 259.807367 1760.377065 C263.775384 1771.895619 268.299615 1783.447377 268.015985 1795.764516 C267.854425 1802.779164 267.076166 1810.346791 260.750055 1816.304799 z"/><path class="selected"  fill="#000000" opacity="1.000000" stroke="none" 
 	d="
M658.250055 1503.804799 C657.583429 1499.086537 656.581232 1495.391957 656.315607 1491.645253 C655.628961 1481.956532 657.735406 1472.601552 659.676446 1463.150136 C661.015558 1456.629018 662.024103 1450.764272 665.742609 1444.566029 C671.728082 1434.589101 679.755304 1432.618764 689.399347 1433.979726 C699.082452 1435.346181 703.518243 1443.593495 705.982477 1451.638417 C709.091485 1461.787831 711.170343 1472.470204 711.914606 1483.047597 C712.382013 1489.691884 709.842706 1496.630116 708.182062 1503.319692 C706.269342 1511.025624 702.937067 1517.419179 695.428644 1522.000600 C678.527643 1532.312734 664.095636 1521.556996 660.220514 1508.978383 C659.772150 1507.522939 658.916681 1506.192983 658.250055 1503.804799 z"/><path class="selected"  fill="#000000" opacity="1.000000" stroke="none" 
 	d="
M1346.750055 1738.304799 C1341.264337 1744.292714 1335.987482 1749.102406 1328.318902 1750.877065 C1321.935113 1752.354360 1314.137628 1748.954213 1310.134454 1743.350453 C1303.977838 1734.732655 1304.849664 1724.695546 1306.742975 1716.146352 C1310.039239 1701.262563 1314.142023 1686.279653 1322.132745 1672.796132 C1328.251886 1662.470937 1333.647638 1660.124989 1344.142755 1664.731069 C1348.079278 1666.458852 1351.997003 1668.276479 1355.750909 1670.363027 C1363.412775 1674.622182 1362.394708 1682.932973 1364.142145 1689.752553 C1368.442926 1706.537831 1359.179620 1719.341420 1350.768487 1732.289906 C1349.580499 1734.118398 1348.422296 1735.966176 1346.750055 1738.304799 z"/><path class="selected"  fill="#000000" opacity="1.000000" stroke="none" 
 	d="
M466.250055 1657.804799 C463.228082 1666.448842 460.393609 1674.329945 453.500909 1679.442128 C446.826349 1684.392568 439.319147 1688.323842 431.131158 1683.616689 C426.923395 1681.197377 422.440240 1677.437245 420.569757 1673.187856 C417.565240 1666.362294 415.861627 1658.859364 416.145441 1651.016103 C416.554376 1639.713735 416.077569 1628.381703 416.341852 1617.070790 C416.436700 1613.006337 417.212945 1608.861806 418.324151 1604.936635 C420.940240 1595.696523 424.082696 1593.812001 433.206964 1593.704457 C439.281183 1593.632924 441.805109 1597.728505 444.154596 1601.895863 C446.313898 1605.725819 448.901544 1608.546742 452.439752 1611.411122 C466.387994 1622.702504 470.765680 1637.900624 467.614801 1655.384145 C467.517877 1655.922353 466.720880 1656.334218 466.250055 1657.804799 z"/><path class="selected"  fill="#000000" opacity="1.000000" stroke="none" 
 	d="
M444.250055 2057.804799 C454.760553 2052.789906 463.588800 2055.693959 470.855279 2061.782582 C477.545221 2067.388295 483.499444 2074.209096 488.544855 2081.364125 C497.002008 2093.357533 495.958795 2106.447377 489.799371 2119.098256 C486.546075 2125.780385 480.974786 2130.832631 474.112848 2133.715444 C462.145074 2138.743276 447.054254 2130.571645 442.112848 2117.806020 C437.996759 2107.172231 436.480035 2096.009633 434.527154 2085.022817 C432.749078 2075.021108 436.052057 2065.508412 444.250055 2057.804799 z"/><path class="selected"  fill="#000000" opacity="1.000000" stroke="none" 
 	d="
M702.250055 1909.804799 C698.051324 1915.003285 693.950494 1919.305287 689.634820 1923.379994 C679.043634 1933.379750 662.685480 1926.609731 658.418390 1911.576283 C654.713678 1898.524526 653.275079 1884.999379 654.204645 1871.311391 C654.709650 1863.876332 658.640802 1858.408315 665.991998 1855.797719 C667.731622 1855.179799 669.473321 1854.547719 671.155939 1853.792348 C681.881280 1848.977406 688.821832 1849.942006 695.810113 1858.524770 C703.496515 1867.964467 709.188531 1878.379750 708.320856 1891.310903 C707.886041 1897.792836 705.902887 1903.538686 702.250055 1909.804799 z"/><path class="selected"  fill="#000000" opacity="1.000000" stroke="none" 
 	d="
M1150.250055 1897.804799 C1151.075372 1910.486928 1147.776300 1920.698842 1139.768487 1929.415151 C1138.153863 1931.172475 1136.982110 1933.603383 1136.326959 1935.926869 C1134.176446 1943.555531 1127.756891 1946.400014 1121.580255 1949.386586 C1115.853448 1952.155629 1103.986139 1946.192250 1101.320367 1941.626576 C1098.710016 1937.155141 1095.342462 1932.708119 1096.193658 1926.785024 C1097.199151 1919.788930 1094.982110 1912.671742 1098.001153 1905.567250 C1099.634088 1901.724721 1096.690851 1897.117055 1097.902399 1892.277699 C1099.166192 1887.230092 1100.971612 1882.797719 1104.997491 1880.312123 C1113.002252 1875.370229 1120.526422 1868.850697 1131.628839 1873.598256 C1141.034723 1877.620473 1146.966485 1883.384877 1148.320123 1893.633412 C1148.468317 1894.755971 1149.583429 1895.750600 1150.250055 1897.804799 z"/><path class="selected"  fill="#000000" opacity="1.000000" stroke="none" 
 	d="
M717.750055 2292.304799 C720.327692 2294.882436 722.442682 2296.924428 724.476251 2299.044301 C732.187189 2307.082875 734.591730 2307.804067 729.227350 2319.525502 C726.134454 2326.283070 721.278985 2332.337758 716.626398 2338.243520 C713.148859 2342.658070 708.524835 2346.148793 704.773004 2350.371938 C699.175958 2356.672231 692.328790 2358.756459 684.742120 2355.659291 C677.693536 2352.781606 674.087945 2347.022817 674.132745 2338.994740 C674.153497 2335.280141 672.457696 2331.574330 672.330743 2327.837514 C671.824029 2312.925649 677.775934 2299.684438 684.472711 2286.990834 C687.665338 2280.939076 694.164606 2276.955678 701.394952 2278.010365 C709.126886 2279.138539 714.753229 2283.997670 717.750055 2292.304799 z"/><path class="selected"  fill="#000000" opacity="1.000000" stroke="none" 
 	d="
M1126.250055 2179.804799 C1118.220148 2194.447377 1106.334161 2202.855336 1090.870294 2205.657582 C1084.841852 2206.749867 1078.945001 2203.972279 1074.206964 2200.474477 C1069.618341 2197.087270 1066.023248 2193.126088 1065.919366 2185.935903 C1065.734674 2173.150502 1071.138605 2163.446889 1078.796319 2154.211781 C1084.237848 2147.649770 1088.551691 2140.180043 1097.575860 2137.287465 C1104.424737 2135.092153 1108.101495 2135.312367 1113.289239 2139.751820 C1119.710748 2145.247182 1125.303644 2150.829945 1128.582452 2159.216420 C1131.568048 2166.852895 1128.374322 2172.468373 1126.250055 2179.804799 z"/><path class="selected"  fill="#000000" opacity="1.000000" stroke="none" 
 	d="
M926.250055 1639.804799 C938.401178 1641.576528 939.486627 1652.118520 944.164239 1659.451528 C945.783990 1661.990712 946.214532 1665.255483 947.522638 1668.031361 C957.161432 1688.483632 953.256525 1705.632802 933.042291 1717.758046 C915.886529 1728.048695 904.975519 1717.522817 902.783624 1701.629262 C900.308649 1683.682851 904.191461 1665.653798 912.079767 1648.814320 C914.865411 1642.867543 919.006647 1640.100942 926.250055 1639.804799 z"/><path class="selected"  fill="#000000" opacity="1.000000" stroke="none" 
 	d="
M877.750055 2105.304799 C883.921930 2094.975697 892.873834 2092.028920 901.649957 2095.591420 C907.434015 2097.939320 907.862115 2103.239613 909.974054 2107.292836 C912.480401 2112.103139 913.255914 2117.941518 914.084527 2123.439076 C914.420343 2125.666860 912.658014 2128.133168 912.294366 2130.557485 C910.654230 2141.490102 906.064508 2151.228871 900.211114 2160.403432 C894.918634 2168.698842 883.934991 2172.627309 875.176324 2169.731313 C868.386896 2167.486195 862.760431 2158.031850 862.173028 2149.379506 C861.036310 2132.634877 868.154840 2118.918080 877.750055 2105.304799 z"/><path class="selected"  fill="#000000" opacity="1.000000" stroke="none" 
 	d="
M1180.750055 610.304799 C1185.719781 609.335072 1190.270685 609.249196 1194.644464 608.325185 C1209.041437 605.284291 1221.763483 607.079213 1232.309625 618.655690 C1237.522027 624.377065 1237.403619 640.655995 1233.272272 645.842336 C1229.116266 651.059499 1226.162164 657.768544 1221.007867 661.531178 C1213.210382 667.223256 1213.204156 673.087941 1216.056573 680.998036 C1217.226007 684.241200 1216.028131 688.274403 1216.298028 691.919301 C1216.796564 698.652150 1217.285211 705.410817 1218.338312 712.070119 C1219.290582 718.092336 1224.281915 721.505177 1230.618829 721.846486 C1241.968683 722.457753 1253.102594 721.751027 1263.076837 715.735585 C1270.483453 711.268727 1277.631036 706.527944 1278.412408 696.346791 C1278.792047 691.398061 1286.633722 687.014882 1291.812189 687.804738 C1305.215021 689.849172 1312.763849 704.426991 1305.286554 715.526357 C1294.132013 732.084340 1278.767999 743.138051 1258.990411 747.920400 C1249.611871 750.188222 1240.275567 752.954823 1230.654718 751.652699 C1220.740167 750.310780 1210.677911 748.636220 1201.307916 745.329091 C1196.987359 743.804067 1195.290338 744.291493 1192.136285 746.719472 C1185.213922 752.047841 1176.942438 755.849599 1168.715143 757.465810 C1150.674127 761.009755 1133.320123 758.337514 1118.048150 746.698232 C1106.771905 738.104360 1099.512994 727.163197 1098.407037 713.042348 C1097.560113 702.228505 1102.329278 697.823781 1113.087701 697.869313 C1116.242120 697.882619 1120.000787 697.741322 1122.405450 699.315785 C1126.122003 701.749196 1129.508844 704.943776 1128.465021 710.769948 C1127.896051 713.944692 1126.998468 717.690663 1130.207330 720.976247 C1134.352350 725.220204 1139.343317 728.824574 1144.649103 729.422231 C1150.822687 730.117665 1157.261774 730.522450 1163.906183 728.201283 C1170.087579 726.041737 1174.324762 723.358388 1177.549737 717.760426 C1179.449274 714.463063 1183.167901 712.264943 1185.662652 709.238088 C1186.975152 707.645619 1188.049127 705.361440 1188.135187 703.342946 C1188.433160 696.359059 1188.417779 689.349599 1188.203180 682.359609 C1187.984064 675.221974 1185.439386 672.513417 1177.727960 669.760732 C1174.839044 668.729421 1172.229425 666.888600 1169.321344 665.942738 C1151.252496 660.065419 1151.292779 640.044057 1159.461969 627.681142 C1164.568170 619.953908 1171.450616 614.126149 1180.750055 610.304799 z"/><path class="selected"  fill="#000000" opacity="1.000000" stroke="none" 
 	d="
M1424.750055 303.304799 C1412.475152 288.363271 1400.237115 274.268727 1389.074640 259.368459 C1380.420709 247.816701 1382.706964 232.476979 1392.971124 222.052419 C1407.132013 207.670278 1422.407525 194.632680 1438.466852 182.390920 C1451.018854 172.822835 1462.956354 162.423390 1474.868707 152.050740 C1480.923395 146.778432 1493.422662 145.669148 1498.310113 152.521535 C1501.546686 157.059194 1501.333307 162.429860 1499.840387 165.572865 C1496.156305 173.328786 1493.393854 183.332753 1483.637506 185.557424 C1472.770563 188.035359 1466.759576 196.685994 1458.759088 202.644429 C1445.843561 212.263356 1433.884820 223.167165 1421.528619 233.536488 C1421.020318 233.963124 1420.594781 234.486562 1420.108942 234.941945 C1413.011041 241.598683 1412.759576 241.771352 1418.324029 249.793935 C1423.401178 257.114491 1428.583063 264.484853 1434.627008 270.989186 C1450.820123 288.414845 1467.223688 305.666615 1484.098932 322.428212 C1493.040582 331.309560 1503.945367 338.277394 1512.491022 347.477223 C1521.284479 356.943837 1520.067193 364.848317 1508.320856 370.594106 C1502.158014 373.608693 1496.911432 369.249745 1492.111139 366.402089 C1486.129693 362.853627 1480.564508 358.430531 1475.360406 353.779958 C1464.823785 344.363393 1454.449762 334.742787 1444.398736 324.811452 C1437.668268 318.161000 1431.609430 310.830800 1424.750055 303.304799 z"/><path class="selected"  fill="#000000" opacity="1.000000" stroke="none" 
 	d="
M828.750055 195.304799 C822.525201 191.746663 816.667535 188.909810 811.111261 185.571065 C804.984308 181.889333 800.946832 173.264180 802.598810 168.455922 C805.143976 161.048573 814.487726 157.109914 822.309381 161.003468 C839.719171 169.669820 857.288141 178.146657 874.005426 188.031392 C886.632501 195.497670 898.475397 204.407552 906.794733 217.209035 C915.074029 229.948781 913.955377 240.329152 906.996637 251.702565 C902.011529 259.849843 895.367609 267.109486 888.782037 274.125234 C871.824640 292.190358 854.206476 309.639089 837.387018 327.828481 C822.162530 344.292897 807.822809 361.572743 792.732477 378.165028 C786.120538 385.435109 775.547540 383.270497 771.803644 374.135549 C770.773370 371.621755 770.679010 367.825307 771.859918 365.473683 C775.339532 358.545888 778.962701 351.468068 783.823053 345.502736 C793.680353 333.404775 804.145685 321.773549 814.802911 310.363149 C830.351739 293.715321 846.347223 277.485463 862.033136 260.964284 C867.865289 254.821645 873.505792 248.481862 878.966974 242.006947 C883.677789 236.422048 883.339166 234.213612 878.447687 228.971791 C868.327569 218.126820 856.179010 210.169270 843.033014 203.535237 C838.334772 201.164357 833.838556 198.393208 828.750055 195.304799 z"/><path class="selected"  fill="#000000" opacity="1.000000" stroke="none" 
 	d="
M968.250055 567.804799 C986.874567 574.707875 1003.899347 583.149892 1019.081964 594.219777 C1029.367120 601.718923 1040.289484 609.540273 1044.883966 623.064992 C1046.855890 628.869557 1046.560235 633.766103 1044.122613 638.551442 C1040.886285 644.904714 1029.846124 646.244252 1024.699029 641.129811 C1021.770807 638.220204 1019.710626 634.446889 1016.835870 631.471974 C1001.912775 616.029836 984.165094 604.951833 963.938409 597.804677 C956.393365 595.138661 948.759942 592.695485 941.323175 589.755177 C928.384820 584.639638 915.470636 585.372426 902.776544 590.013356 C899.997735 591.029225 897.712457 594.400319 896.022272 597.185841 C892.131036 603.598195 886.868951 606.844716 880.731988 605.804799 C874.421319 604.735463 866.432428 597.196889 866.403497 591.061391 C866.370782 584.087880 869.952692 578.122182 875.303400 573.915700 C885.951227 565.544972 898.958917 561.492055 911.636896 558.305837 C920.072931 556.185597 929.713556 558.789174 938.808649 559.379018 C948.914239 560.034535 958.158380 563.682240 968.250055 567.804799 z"/><path class="selected"  fill="#000000" opacity="1.000000" stroke="none" 
 	d="
M1456.250055 559.804799 C1469.204889 564.740102 1482.010065 567.906972 1492.536920 575.853200 C1502.096734 583.069508 1509.119440 591.510304 1508.502252 604.884694 C1508.142389 612.684621 1504.971002 617.424794 1499.061578 619.692494 C1493.598932 621.788808 1485.093805 618.034657 1483.062799 611.276540 C1479.358697 598.952138 1469.066705 595.688893 1459.225641 591.952138 C1448.849176 588.012013 1438.223443 583.660695 1427.357721 582.322316 C1410.482965 580.243825 1393.365411 580.694753 1377.803888 589.740102 C1374.760309 591.509267 1372.888483 594.227406 1374.532525 596.804555 C1378.405328 602.874684 1375.139215 607.924367 1371.540826 610.970021 C1366.949029 614.856374 1360.787408 615.293141 1354.620050 611.939137 C1348.240045 608.469411 1343.517511 603.135915 1342.757013 596.763234 C1342.169733 591.842336 1344.768854 585.366750 1348.094293 581.361562 C1360.872613 565.971486 1377.440362 557.341725 1397.394952 553.446889 C1413.800836 550.244618 1428.928277 553.751515 1444.426324 557.012013 C1448.068902 557.778371 1451.643854 558.865346 1456.250055 559.804799 z"/></svg>