<?xml version="1.0" encoding="utf-8"?><!DOCTYPE svg PUBLIC "-//W3C//DTD SVG 1.1//EN" "http://www.w3.org/Graphics/SVG/1.1/DTD/svg11.dtd"><svg version="1.1" id="Contours" xmlns="http://www.w3.org/2000/svg" xmlns:xlink="http://www.w3.org/1999/xlink" x="0px" y="0px" width="2024.334473px" height="2024.334473px" viewBox="0.000015 -0.000002 2024.334473 2386.558594" enable-background="new 0 0 2024.334473 2024.334473" xml:space="preserve" stroke="black" fill="none" stroke-linecap='round' stroke-linejoin='round'><path class="selected"  fill="#000000" opacity="1.000000" stroke="none" 
 	d="
M646.641648 2167.734624 C640.249558 2161.342535 634.376999 2155.430669 628.458176 2149.565435 C624.798996 2145.939458 624.005051 2146.166021 622.146775 2151.292730 C619.520310 2158.538335 616.586472 2165.695806 614.396531 2173.072515 C609.810593 2188.520513 600.975632 2201.698492 592.322800 2214.913335 C582.538743 2229.855962 572.408860 2244.520025 560.029709 2257.630621 C549.424607 2268.862554 540.443772 2281.611089 530.111496 2293.120367 C510.046433 2315.470953 485.569138 2331.863531 458.327134 2344.209722 C439.716538 2352.643560 420.366013 2358.953130 400.659409 2364.350591 C389.664719 2367.361822 379.088364 2371.875005 368.144272 2375.103765 C358.589524 2377.922857 348.781662 2379.882818 339.089097 2382.236822 C324.507309 2385.778326 309.586350 2387.565923 294.777268 2385.971197 C280.354538 2384.418218 265.940415 2385.086431 251.598069 2384.003667 C240.340561 2383.154058 229.166733 2380.566412 218.088730 2378.142583 C206.762925 2375.664556 202.436326 2363.783453 209.279648 2354.211919 C214.117539 2347.445562 219.904343 2341.354009 224.692734 2334.556402 C232.100205 2324.040777 238.713181 2312.961675 246.218735 2302.520757 C255.504685 2289.603521 265.306931 2277.054937 274.982163 2264.420660 C284.103745 2252.509039 292.618943 2240.022955 302.717148 2228.995123 C317.070603 2213.319830 332.693345 2198.811529 347.641160 2183.674078 C354.018784 2177.215826 360.458603 2170.921636 368.628830 2166.711675 C369.193223 2166.420904 369.583664 2165.792486 370.055100 2165.321050 C369.262925 2164.958746 368.504075 2164.412847 367.673569 2164.261968 C352.786057 2161.558111 337.859238 2159.059576 323.007554 2156.174078 C314.438279 2154.508794 305.962815 2152.332769 297.488816 2150.211919 C284.515610 2146.965093 271.564011 2143.628667 258.633652 2140.215093 C248.732224 2137.600591 238.675766 2135.377691 229.049363 2131.962652 C214.545701 2126.817144 199.914231 2121.678960 186.158188 2114.877203 C172.250229 2108.000005 159.002915 2099.607427 146.084336 2090.955816 C131.097641 2080.919195 116.849167 2069.786382 102.160874 2059.296636 C86.495957 2048.109380 70.616562 2037.222173 54.971177 2026.008306 C42.208115 2016.860113 27.985703 2010.944341 13.164170 2006.207769 C11.709275 2005.742681 10.358201 2004.933599 8.987046 2004.229498 C-1.149032 1999.023931 -3.226120 1987.200689 5.407853 1980.337530 C17.829697 1970.463506 30.214524 1960.320318 43.695481 1952.053960 C63.181687 1940.105352 83.274765 1929.122076 106.087937 1924.085821 C120.605393 1920.880987 134.709336 1915.834966 149.181870 1912.381963 C158.105637 1910.252935 167.435044 1909.886602 176.472458 1908.155279 C188.175217 1905.913213 200.087815 1905.473150 211.768418 1903.814947 C228.590134 1901.427007 245.276352 1902.532598 261.997117 1902.379644 C283.503403 1902.182867 304.645310 1905.086065 325.778550 1909.777471 C338.291794 1912.555303 350.955979 1914.881597 363.348252 1918.278448 C380.088242 1922.866949 397.073288 1926.852911 413.357285 1932.744390 C437.088303 1941.329961 460.375779 1951.172491 483.688645 1960.872564 C503.306443 1969.035162 522.722092 1977.688360 542.146286 1986.306646 C545.256272 1987.686529 547.895676 1990.100835 550.859665 1991.856206 C551.517380 1992.245611 552.628464 1991.869146 553.530808 1991.845464 C553.466599 1990.707525 553.863327 1989.057867 553.262009 1988.516119 C549.926804 1985.510992 546.087937 1983.040289 542.897019 1979.903081 C524.810471 1962.120367 509.145554 1942.266363 493.159714 1922.617071 C476.313950 1901.911260 461.031479 1880.207891 446.766831 1857.744024 C438.598984 1844.881353 430.770737 1831.770513 423.455063 1818.407232 C413.660202 1800.515020 403.892991 1782.559087 395.244797 1764.100591 C385.188645 1742.636968 375.513230 1720.956792 368.070603 1698.365118 C364.989182 1689.011846 360.795029 1680.026250 357.688279 1670.680059 C352.909470 1656.303838 348.341904 1641.843023 344.219223 1627.266851 C339.651108 1611.115850 335.475998 1594.845098 331.525315 1578.530767 C328.723984 1566.962896 326.574631 1555.236944 324.143601 1543.579595 C322.799607 1537.134649 321.474961 1530.685552 320.141648 1524.238409 C318.808335 1517.791265 317.253037 1511.380376 316.188218 1504.889165 C314.032029 1491.744268 311.887253 1478.587652 310.230027 1465.374151 C309.101426 1456.375616 309.035019 1447.248296 308.081406 1438.222051 C307.010056 1428.080816 304.931260 1418.022832 304.291245 1407.865606 C303.621811 1397.241827 305.291367 1386.392706 303.918076 1375.906622 C300.331162 1348.518560 302.048264 1321.069830 302.580796 1293.720586 C302.879685 1278.373418 303.544724 1262.934087 304.284714 1247.550787 C304.933091 1234.071172 306.126511 1220.538702 308.310349 1207.231695 C311.188218 1189.694585 311.378952 1171.821661 315.935349 1154.467657 C318.423508 1144.990606 318.450669 1134.895879 320.224228 1125.196172 C322.988022 1110.081060 326.791245 1095.143560 329.186142 1079.978033 C330.666062 1070.606573 336.241684 1061.409185 333.755539 1052.088873 C331.682969 1044.319219 334.020371 1038.297247 335.628952 1031.323736 C336.895066 1025.835088 338.919297 1021.452032 341.942612 1016.829351 C345.611619 1011.219488 348.344346 1004.915655 350.213486 998.295049 C352.436265 990.422124 359.112168 985.094244 366.299851 986.582281 C369.285630 987.200323 371.623337 987.051275 373.472825 985.726690 C383.390427 978.624639 394.126572 973.155035 405.180649 968.063970 C424.882004 958.989996 445.041489 951.420843 466.116929 946.151983 C482.365036 942.089971 498.350937 936.979925 514.597336 932.910711 C525.550705 930.167303 536.758713 928.445074 547.845627 926.229436 C561.077683 923.584905 574.245652 920.564214 587.547287 918.339300 C598.575242 916.494756 609.888962 916.233404 620.834763 914.056585 C632.964524 911.644353 645.427170 912.021795 657.451218 908.468633 C664.122239 906.497259 671.486741 906.786932 678.553879 906.261724 C688.935959 905.490118 699.405198 905.464483 709.705246 904.113470 C729.094895 901.570074 748.578782 901.070684 768.026536 899.747198 C778.424363 899.039617 789.043747 899.873663 799.177414 897.961431 C813.624314 895.235113 828.031052 897.235357 842.393479 896.183660 C902.412400 891.788702 962.509568 894.683904 1022.554978 894.733221 C1039.511521 894.747198 1056.787644 894.703313 1073.676316 896.640752 C1084.812668 897.918218 1096.014817 896.649297 1106.842087 898.523077 C1119.299607 900.678899 1131.736863 899.069341 1144.041306 900.412542 C1159.474411 902.097295 1174.910935 903.313604 1190.375779 904.543462 C1204.820969 905.692266 1219.422165 906.323736 1233.687424 908.569219 C1247.187180 910.694097 1260.922654 910.776250 1274.294846 914.058599 C1281.104783 915.730230 1288.401291 915.308599 1295.413620 916.291021 C1308.278489 918.093389 1321.080124 920.344793 1333.938157 922.200079 C1344.360398 923.703863 1354.844895 924.776495 1365.268357 926.273077 C1374.029343 927.530950 1382.772141 928.965948 1391.467942 930.613287 C1400.389328 932.303350 1409.225632 934.436590 1418.132004 936.211614 C1429.235032 938.424627 1440.436814 940.178899 1451.478318 942.655401 C1467.595505 946.270330 1483.792527 949.723333 1499.623581 954.375433 C1526.290696 962.212102 1553.182663 969.198980 1579.112351 979.685796 C1595.402634 986.274297 1611.936814 992.185308 1627.599656 1000.235479 C1644.467576 1008.905035 1660.483445 1018.636724 1674.752732 1031.471319 C1686.043503 1041.626958 1694.456101 1053.036016 1698.462449 1067.594610 C1702.459031 1082.118291 1700.987839 1095.992803 1692.562546 1108.751470 C1690.456589 1111.940679 1687.520554 1114.614385 1685.639451 1117.909429 C1683.984665 1120.807989 1682.253464 1124.261968 1682.310105 1127.439458 C1682.625779 1145.168340 1683.418503 1162.889898 1684.180710 1180.608282 C1684.374802 1185.115118 1687.319382 1187.541875 1691.201706 1186.054571 C1701.405808 1182.145879 1712.241013 1182.018682 1722.739060 1179.993047 C1746.109910 1175.483770 1769.666062 1175.330694 1793.105515 1176.575323 C1811.090378 1177.530279 1829.187546 1180.401373 1846.730027 1184.553838 C1865.287400 1188.946539 1883.541794 1195.346685 1900.421921 1204.411260 C1916.778855 1213.195196 1932.167771 1223.463140 1946.777634 1235.286504 C1966.177048 1250.985967 1980.342820 1270.703252 1993.355271 1291.122564 C2001.678269 1304.183477 2006.688279 1319.545171 2011.933396 1334.319219 C2016.284958 1346.576055 2019.147507 1359.405767 2022.001023 1372.131597 C2023.468064 1378.675542 2023.998093 1385.543218 2024.044236 1392.270757 C2024.186570 1413.008672 2025.285447 1433.839971 2022.004685 1454.415166 C2020.088913 1466.429449 2016.557908 1478.176519 2014.200974 1490.132085 C2010.767380 1507.552740 2004.374802 1524.060552 1997.864792 1540.378179 C1992.051804 1554.949102 1983.693406 1568.487920 1976.803269 1582.650030 C1969.518113 1597.624517 1960.335007 1611.348882 1950.644577 1624.823248 C1941.872605 1637.020635 1933.622361 1649.565679 1923.058396 1660.400274 C1910.859177 1672.911871 1899.060349 1685.813116 1886.933640 1698.396612 C1875.220505 1710.550542 1861.575974 1720.442022 1848.611130 1731.159063 C1833.161911 1743.929449 1816.856736 1755.485601 1799.614060 1765.282476 C1777.663620 1777.754278 1755.761033 1790.662725 1731.353562 1798.351934 C1720.210495 1801.862554 1709.613327 1807.090826 1698.499314 1810.714117 C1686.377976 1814.665899 1674.286667 1818.767095 1661.457566 1820.410772 C1653.166550 1821.473150 1645.149949 1824.524908 1636.903367 1826.137456 C1630.944382 1827.302740 1624.824021 1827.872564 1618.749314 1828.176275 C1602.035202 1829.011846 1585.167283 1831.214849 1568.620652 1829.809209 C1548.839158 1828.128667 1528.601853 1827.897222 1509.518235 1820.759527 C1505.928635 1819.416998 1502.904709 1819.862920 1499.913498 1824.245489 C1488.659226 1840.734991 1476.593186 1856.676641 1464.645310 1872.684698 C1451.889695 1889.775030 1438.642624 1906.456548 1423.692673 1921.742071 C1404.716233 1941.144537 1386.368943 1961.182012 1366.943772 1980.118169 C1355.179123 1991.586675 1341.958786 2001.575445 1329.244187 2012.048833 C1324.608933 2015.867193 1319.489670 2019.092535 1314.700974 2022.732915 C1312.522751 2024.388921 1311.083664 2025.864019 1313.727341 2029.043706 C1320.227829 2036.861578 1326.699387 2044.825201 1332.084641 2053.417974 C1339.098801 2064.609869 1344.326096 2076.696294 1344.148728 2090.389410 C1344.101243 2094.055181 1343.883347 2097.743658 1344.185837 2101.384771 C1345.543137 2117.719976 1338.408982 2131.455572 1330.512253 2144.723394 C1316.286301 2168.626226 1294.130417 2184.085943 1271.038010 2198.144048 C1246.361130 2213.166509 1219.176438 2222.659673 1191.815964 2231.300787 C1176.982346 2235.986089 1161.450486 2238.416021 1146.347092 2242.303960 C1131.952561 2246.009283 1117.436081 2248.758794 1102.651047 2250.278326 C1091.847825 2251.388677 1081.041672 2252.615484 1070.313645 2254.284917 C1027.352952 2260.969732 984.094651 2257.258062 940.972580 2258.234624 C929.540085 2253.829839 917.299363 2257.868658 905.546433 2254.536626 C897.605759 2252.285406 888.743210 2253.525640 880.489182 2252.082037 C869.313035 2250.126714 857.980881 2249.467779 846.884079 2246.481206 C835.344529 2243.375249 823.184617 2242.656011 811.464890 2240.113775 C800.250657 2237.681402 789.237107 2234.307623 778.164353 2231.242925 C747.420090 2222.734869 717.796677 2211.274175 689.739914 2196.113531 C675.908127 2188.639654 662.540818 2180.227056 650.617112 2169.782720 C649.705857 2168.984380 648.311448 2168.737798 646.641648 2167.734624 M439.141648 1786.234624 C447.142807 1800.902471 454.407334 1816.036748 463.329209 1830.121343 C474.791306 1848.215948 486.995896 1865.842046 499.597641 1883.234624 C516.285752 1906.267461 534.193161 1928.151250 553.783982 1948.617193 C568.389817 1963.875372 583.942795 1978.265508 599.587327 1992.476812 C609.554978 2001.531255 620.539353 2009.459234 630.883835 2018.112310 C633.150925 2020.008550 634.935471 2020.552740 637.797532 2019.680669 C646.883469 2016.912115 655.582566 2022.379888 655.951218 2031.578863 C656.130417 2036.050298 658.572922 2038.324224 661.459641 2040.151617 C683.488083 2054.097906 705.940354 2067.308355 729.660447 2078.243169 C748.985886 2087.151861 768.598435 2095.370855 788.865403 2101.871343 C802.722947 2106.315679 816.572190 2111.257330 830.810349 2113.904790 C843.863694 2116.331792 856.867234 2119.214605 870.191819 2120.821294 C888.366379 2123.012456 906.373337 2126.295904 924.775559 2126.245123 C942.774827 2126.195562 960.777756 2126.438970 978.772385 2126.144048 C987.171311 2126.006353 995.633103 2125.408941 1003.927292 2124.123052 C1018.550950 2121.855962 1032.999192 2118.407232 1047.648240 2116.368658 C1063.532029 2114.158208 1078.870408 2109.715337 1094.009202 2105.016851 C1114.582322 2098.632330 1134.874192 2091.358892 1154.909226 2083.123296 C1178.433640 2073.453619 1201.161179 2062.279058 1223.013108 2049.732427 C1244.470261 2037.412115 1265.097702 2023.460210 1285.175461 2008.707769 C1304.837937 1994.260259 1324.434250 1979.657720 1341.971848 1962.908575 C1372.899582 1933.371343 1403.852585 1903.705328 1429.925950 1869.509405 C1441.747971 1854.004644 1454.874680 1839.411993 1465.756272 1823.289556 C1487.913376 1790.460943 1509.822800 1757.363042 1527.985886 1722.105474 C1542.670701 1693.600103 1556.993210 1664.818853 1569.593796 1635.354864 C1581.090867 1608.470342 1590.470994 1580.646001 1599.983933 1552.960943 C1605.516892 1536.858892 1609.503952 1520.223760 1614.132859 1503.813360 C1618.174851 1489.482549 1622.261277 1475.162359 1626.095994 1460.775762 C1628.345505 1452.337530 1631.530320 1443.826177 1631.823288 1435.263189 C1632.286423 1421.717901 1637.441452 1409.229009 1638.585495 1395.798345 C1639.621384 1383.634893 1643.465378 1371.648687 1644.192917 1359.250127 C1644.568894 1352.842657 1644.585740 1346.213506 1646.317185 1340.125982 C1650.571824 1325.170049 1649.242234 1309.638433 1651.938035 1294.526495 C1653.345017 1286.641241 1652.975144 1278.434454 1653.756150 1270.354742 C1655.618943 1251.080450 1655.832077 1231.613531 1655.912644 1212.221197 C1655.935349 1206.779913 1656.363816 1201.325689 1656.135056 1195.879888 C1655.487351 1180.489141 1654.608933 1165.104009 1654.262253 1149.706792 C1654.157761 1145.051275 1651.114548 1145.539556 1649.140183 1146.475347 C1644.656785 1148.600469 1640.809861 1152.089239 1636.302048 1154.139654 C1623.970505 1159.749029 1611.593552 1165.332525 1598.927292 1170.110723 C1586.801072 1174.685064 1574.518113 1179.317754 1561.894577 1181.992681 C1540.462204 1186.534185 1519.628464 1193.513189 1497.778489 1196.468389 C1481.997605 1198.602789 1466.565476 1203.201177 1450.873093 1206.141851 C1437.786789 1208.594244 1424.578171 1210.467046 1411.368577 1212.168096 C1398.627488 1213.808843 1385.818161 1214.924566 1373.034226 1216.225469 C1365.982468 1216.943243 1358.699265 1216.703252 1351.918015 1218.443975 C1342.526413 1220.855108 1332.949631 1220.748052 1323.507004 1222.132330 C1316.182297 1223.205816 1308.701828 1223.056280 1301.305588 1223.743902 C1285.877854 1225.178228 1270.438401 1226.648077 1254.995163 1228.079961 C1239.672654 1229.500494 1224.278733 1227.861211 1208.791550 1229.864629 C1190.276780 1232.259649 1171.342331 1231.188848 1152.655320 1231.617559 C1115.657639 1232.466314 1078.563767 1233.951910 1041.473435 1230.538946 C1018.562180 1228.430791 995.364304 1231.204595 972.311814 1228.400274 C957.706345 1226.623540 942.940598 1228.271978 928.109055 1226.745489 C909.108567 1224.789678 889.872605 1224.582037 870.810227 1222.320440 C862.135666 1221.291265 853.402756 1221.825201 844.590989 1220.689336 C831.885788 1219.051885 819.059861 1217.296514 806.289597 1216.537969 C788.284470 1215.468511 770.597702 1212.547247 752.760422 1210.539434 C737.523240 1208.824346 722.423752 1206.457159 707.253220 1204.447881 C690.590989 1202.240728 674.098435 1199.265264 657.535935 1196.614019 C642.242600 1194.166143 627.133225 1190.931158 611.895066 1188.333135 C593.033371 1185.117437 574.510544 1180.482061 555.853684 1176.374029 C531.855393 1171.089727 508.516465 1163.720953 485.136094 1156.338873 C470.112900 1151.595464 455.323411 1146.496831 440.660141 1140.581426 C412.141037 1129.076543 384.760117 1116.066412 361.025071 1096.198125 C359.935288 1095.286016 357.617905 1094.159917 357.077439 1094.603033 C355.728501 1095.709356 354.523911 1097.570196 354.233811 1099.291998 C352.703904 1108.373052 351.716538 1117.548101 350.085007 1126.608526 C347.635849 1140.209356 344.466355 1153.686407 342.247361 1167.320928 C340.397995 1178.684331 339.445115 1190.194952 338.149827 1201.646734 C336.780076 1213.756597 335.124253 1225.847906 334.232712 1237.994390 C333.178391 1252.356084 332.455674 1266.762212 332.225754 1281.159307 C331.895859 1301.820074 331.807602 1322.497198 332.250168 1343.153692 C332.587143 1358.879522 330.980576 1374.585332 333.850754 1390.379034 C335.993088 1402.167608 335.412766 1414.443731 336.162034 1426.495367 C336.725571 1435.558599 337.089524 1444.659551 338.233750 1453.655645 C339.872483 1466.539312 342.231736 1479.329839 344.112778 1492.185064 C345.589707 1502.277959 346.257309 1512.519659 348.262681 1522.498663 C351.832139 1540.261114 355.970017 1557.915899 360.192429 1575.538457 C364.034043 1591.571539 367.723923 1607.679449 372.541489 1623.429815 C377.769455 1640.522222 384.724167 1657.084478 390.017502 1674.159307 C396.982102 1696.625249 406.564988 1717.979864 416.209763 1739.318243 C423.194260 1754.771001 430.808274 1769.939458 439.141648 1786.234624 M681.141648 936.234685 C672.756028 936.901311 664.149338 936.614446 656.044480 938.492681 C647.279709 940.523809 638.407761 940.776983 629.633713 942.158697 C622.971238 943.207952 616.128342 943.158819 609.492234 944.320135 C595.882370 946.701788 582.379685 949.688482 568.791428 952.202459 C553.593186 955.014410 538.023240 956.401861 523.196579 960.509100 C496.673569 967.856451 469.874436 974.269537 443.992844 984.022832 C423.625596 991.698125 403.670640 999.981573 385.811692 1012.422247 C379.659714 1016.707769 373.114365 1021.453619 371.274888 1029.969488 C370.108262 1035.370245 366.970810 1040.441656 366.370835 1045.844488 C365.596909 1052.812139 365.723130 1059.187017 371.905442 1065.595586 C387.471360 1081.731206 405.992051 1092.984747 425.718796 1102.690679 C432.335251 1105.946172 439.265122 1110.396246 446.772324 1104.255132 C446.972092 1104.091802 447.448166 1104.317754 447.751694 1104.222784 C468.990830 1097.569219 490.188157 1090.779058 511.477036 1084.288946 C521.273362 1081.302496 531.208054 1078.739751 541.151291 1076.272588 C555.982224 1072.592413 570.852341 1069.062505 585.750168 1065.662969 C600.085373 1062.391851 614.438645 1059.176153 628.857712 1056.306158 C637.555954 1054.574712 646.637497 1054.412481 655.120774 1052.029180 C673.797287 1046.782110 692.993821 1045.068853 712.037156 1042.274297 C718.384079 1041.342901 725.139328 1041.914678 731.107346 1039.962896 C741.465989 1036.575445 752.224656 1035.921880 762.754075 1034.585332 C774.170334 1033.135992 785.643845 1032.124517 797.073044 1030.405157 C810.743210 1028.348882 824.581467 1026.890630 838.390183 1026.404913 C855.918992 1025.788335 873.305588 1024.127447 890.736619 1022.410528 C903.055344 1021.197027 915.488327 1021.580694 927.914475 1020.605962 C955.533371 1018.439703 983.295334 1021.110967 1011.083786 1018.684576 C1030.266892 1017.009527 1049.826462 1019.417974 1069.205246 1020.280767 C1085.591599 1021.010381 1101.964890 1018.972662 1118.428513 1021.915166 C1129.207688 1023.841802 1140.465500 1022.188238 1151.581833 1023.959234 C1163.442307 1025.849004 1175.648606 1025.569707 1187.704270 1026.229986 C1188.368943 1026.266363 1189.046799 1026.160406 1189.702317 1026.245733 C1199.817185 1027.563238 1209.916184 1029.014654 1220.046555 1030.196905 C1227.413376 1031.056768 1234.893357 1031.127447 1242.194993 1032.328130 C1256.473801 1034.676275 1270.567795 1038.470464 1284.915696 1039.990240 C1300.396653 1041.630010 1315.355271 1045.556646 1330.531296 1048.432745 C1347.657517 1051.678594 1364.915574 1055.212896 1381.367478 1060.819097 C1411.681443 1071.148809 1442.207200 1080.895147 1470.404099 1096.982915 C1489.642258 1107.959112 1507.049607 1120.620489 1521.654465 1137.038091 C1525.454880 1141.310186 1529.825242 1145.856695 1530.187424 1152.444097 C1530.655930 1160.965459 1530.809617 1160.990972 1539.095505 1158.196050 C1540.246384 1157.807989 1541.141892 1156.548101 1542.291184 1156.286138 C1572.278367 1149.447881 1600.905564 1138.894292 1628.345261 1125.042730 C1641.192185 1118.557867 1653.210007 1110.942754 1663.090622 1100.295538 C1672.915085 1089.708746 1673.483445 1076.742925 1665.773972 1064.657110 C1659.670701 1055.089117 1651.014206 1048.606206 1642.112351 1042.279180 C1629.677536 1033.440801 1616.351609 1026.132085 1602.266160 1020.229498 C1591.190232 1015.588262 1580.309372 1010.416509 1569.033738 1006.330816 C1541.674607 996.417486 1513.818039 988.019659 1485.632248 980.783331 C1468.425461 976.365606 1451.180954 972.031744 1433.809372 968.337408 C1415.958054 964.540899 1397.976731 961.296270 1379.969285 958.310796 C1361.800705 955.298711 1343.443650 953.361822 1325.354294 949.967657 C1319.559006 948.880254 1313.843064 948.911138 1308.152756 948.110601 C1296.923752 946.531011 1285.863327 943.303472 1274.607590 942.486394 C1262.404221 941.600530 1250.361985 940.070928 1238.267991 938.380743 C1224.243332 936.420721 1210.088425 935.030645 1195.944870 934.383733 C1181.406418 933.718633 1167.030686 932.009771 1152.590744 930.464117 C1140.958298 929.218938 1129.162644 930.328497 1117.414963 928.447454 C1107.186326 926.809576 1096.730149 928.192998 1086.222458 926.637701 C1071.067673 924.394476 1055.496750 924.171209 1040.118943 924.358526 C965.740769 925.264776 891.323533 921.763677 816.980149 926.252630 C806.921311 926.859991 796.943161 925.894598 786.738083 927.848211 C774.664353 930.159734 762.035202 929.574895 749.646042 930.232671 C736.924607 930.908086 724.202439 931.569585 711.480149 932.230230 C710.815354 932.264715 710.048752 932.016912 709.495408 932.267278 C701.077439 936.075079 691.646042 933.088567 681.141648 936.234685 M1538.141648 1763.234624 C1532.808274 1772.359869 1527.449875 1781.470708 1522.156907 1790.619268 C1520.528733 1793.433477 1520.585373 1794.149786 1523.969162 1794.913335 C1528.019700 1795.827520 1532.372239 1795.404058 1536.422532 1796.319219 C1546.764451 1798.655645 1557.147751 1800.294683 1567.777146 1800.244634 C1589.298386 1800.143438 1610.844040 1800.984258 1632.125046 1796.327276 C1641.086228 1794.366338 1650.607956 1794.504522 1659.280564 1791.789800 C1675.481980 1786.718999 1691.897019 1782.460577 1707.958298 1776.671026 C1736.649949 1766.328497 1763.733201 1752.883794 1789.604294 1737.315923 C1822.992234 1717.224859 1852.915329 1692.252813 1880.482224 1664.682989 C1889.866990 1655.297002 1898.312058 1644.915777 1906.662156 1634.566412 C1914.836228 1624.435796 1922.221238 1613.673223 1930.168259 1603.353887 C1944.515427 1584.723394 1955.097702 1563.957403 1964.637253 1542.637212 C1970.167527 1530.277471 1975.685593 1517.832037 1979.931199 1505.002203 C1983.540329 1494.095586 1986.466843 1482.946416 1988.578904 1471.474737 C1991.125290 1457.645879 1994.397995 1444.075323 1994.185837 1429.889165 C1993.981492 1416.228765 1994.141648 1402.562749 1994.141648 1388.899297 C1994.141648 1386.899786 1994.530564 1384.807623 1994.080613 1382.915166 C1990.200730 1366.594244 1987.854783 1349.939336 1981.364304 1334.205938 C1976.518845 1322.458990 1971.661667 1310.646123 1964.724900 1300.158208 C1952.755661 1282.061651 1938.939988 1265.453619 1921.305222 1252.202886 C1904.231736 1239.373418 1886.108933 1228.581182 1866.087449 1221.302251 C1841.019089 1212.188604 1815.312058 1205.812139 1788.343552 1206.231329 C1786.677536 1206.257207 1784.865525 1206.669195 1783.367234 1206.167730 C1767.567917 1200.880743 1752.041794 1207.931402 1736.338425 1207.132696 C1731.538376 1206.888799 1726.608933 1207.453985 1721.859421 1208.314703 C1712.308396 1210.045660 1702.872117 1212.408086 1693.326706 1214.177007 C1686.315720 1215.476324 1684.339646 1217.613409 1684.122605 1224.963140 C1683.510300 1245.683843 1682.806931 1266.401739 1682.145798 1287.120855 C1682.114060 1288.119634 1682.479538 1289.282354 1682.089646 1290.094976 C1678.172165 1298.259405 1681.025193 1306.913946 1680.151413 1315.286504 C1679.867478 1318.006231 1681.020554 1318.920293 1683.590378 1317.784429 C1696.935105 1311.886602 1711.452195 1311.501836 1725.476365 1310.601934 C1745.571824 1309.312627 1765.734177 1309.941656 1785.847702 1313.898687 C1801.006394 1316.881109 1815.574997 1321.585821 1828.729294 1328.682989 C1843.058396 1336.414068 1856.426804 1346.007940 1867.013962 1359.567388 C1882.334275 1379.188848 1890.358201 1400.931158 1891.972947 1425.263921 C1892.503220 1433.258306 1891.542283 1441.352544 1890.599656 1449.471563 C1888.797410 1464.990118 1884.079880 1479.238531 1878.231003 1493.473028 C1869.030808 1515.862676 1855.122849 1535.260381 1839.641160 1553.389288 C1824.800583 1570.767217 1807.233445 1585.567632 1788.513718 1598.691167 C1765.854294 1614.576665 1741.791550 1628.266363 1715.637009 1637.465948 C1697.788376 1643.743658 1679.938523 1650.558965 1660.763230 1652.314458 C1655.145066 1652.828863 1649.651169 1654.622076 1644.035691 1655.263677 C1633.466111 1656.471319 1622.852585 1657.299444 1612.247605 1658.167974 C1611.473679 1658.231206 1610.667527 1657.103643 1609.799119 1656.939947 C1605.185349 1656.070196 1600.640915 1655.240728 1596.625535 1652.400152 C1595.915085 1651.897588 1592.905076 1653.138921 1592.279099 1654.292730 C1589.935837 1658.610113 1588.198044 1663.251592 1586.131882 1667.724615 C1577.085251 1687.306402 1568.312790 1707.023565 1558.820603 1726.387579 C1552.827195 1738.614263 1545.739060 1750.304082 1538.141648 1763.234624 M357.141648 2052.234624 C353.023911 2050.901373 348.929184 2049.490972 344.784043 2048.249273 C333.512742 2044.873052 322.184250 2041.683355 310.949997 2038.189214 C304.716782 2036.250738 301.820847 2031.564703 302.141648 2024.930914 C302.451096 2018.531988 305.996201 2013.031255 311.562424 2012.404302 C317.437485 2011.742437 323.616257 2011.612798 329.389267 2012.700445 C338.813950 2014.475835 347.896836 2017.922124 357.108201 2020.604009 C383.183152 2028.195806 408.774338 2037.432867 434.670456 2045.662359 C447.078049 2049.605474 459.559372 2054.129888 472.347275 2055.823736 C484.009995 2057.368169 495.174668 2060.862554 506.709885 2062.788580 C521.554612 2065.267095 536.133103 2068.648443 551.311448 2068.273443 C559.971604 2068.059331 568.813401 2069.296148 577.257126 2067.928228 C585.267991 2066.630132 592.774338 2065.171392 600.700852 2068.086431 C603.167893 2068.993658 605.811081 2068.677007 607.160813 2064.545660 C608.855027 2059.359136 609.078171 2053.328130 613.805222 2049.193853 C614.476365 2048.606939 613.356858 2044.736333 612.035202 2043.421392 C610.399949 2041.793951 607.763840 2041.006109 605.428635 2040.276373 C594.797043 2036.953863 584.208176 2033.438970 573.440354 2030.617925 C546.954392 2023.678960 523.745530 2008.977544 498.396958 1999.333746 C483.155442 1993.535406 468.489731 1986.267706 453.476059 1979.867071 C425.031357 1967.740972 395.968613 1957.516363 366.496323 1948.536260 C354.014817 1944.733282 340.890610 1942.360967 328.048630 1939.583623 C314.484055 1936.650274 300.769455 1934.793951 287.172715 1932.570684 C273.702073 1930.367925 259.788498 1930.742193 246.058823 1930.348638 C242.690659 1930.251958 239.271775 1932.186040 235.893723 1932.130132 C218.965012 1931.849615 202.214646 1933.189703 185.545029 1936.172369 C176.160569 1937.851446 166.198288 1937.532232 157.323594 1940.547735 C143.140000 1945.367071 128.332810 1947.289678 114.024888 1951.682012 C96.334153 1957.113042 80.282639 1965.390264 64.056565 1973.573003 C58.188950 1976.532110 53.247117 1981.358526 47.971909 1985.447881 C45.316697 1987.505987 46.816391 1987.248418 49.052170 1988.448736 C59.185837 1993.888677 69.186387 1999.663580 78.769700 2006.019292 C90.612290 2013.873540 102.083237 2022.300787 113.553147 2030.701177 C126.883408 2040.463873 139.743454 2050.895025 153.353562 2060.240728 C166.727952 2069.424566 180.575058 2077.975835 194.607712 2086.128423 C207.706406 2093.738287 221.683213 2099.561285 236.388962 2103.502691 C251.978745 2107.680669 267.500290 2112.116949 283.115281 2116.196783 C298.176255 2120.131841 313.269394 2123.970220 328.440903 2127.447515 C339.763413 2130.042974 351.182114 2132.316412 362.652024 2134.142583 C373.697068 2135.901128 385.041123 2136.082281 395.928513 2138.451177 C408.331406 2141.150152 420.943955 2141.495611 433.324204 2141.834722 C453.328721 2142.381841 473.433213 2143.703619 493.516831 2140.487798 C504.749497 2138.689214 516.009934 2137.450689 527.002121 2134.290533 C540.531785 2130.401128 553.658982 2125.997808 564.797898 2116.783941 C569.806443 2112.640874 575.581833 2109.223638 581.442063 2106.364507 C588.061570 2103.134771 595.188889 2100.954351 602.035202 2098.169439 C602.921555 2097.809087 603.448288 2096.564458 604.141648 2095.729498 C603.444870 2095.231206 602.783982 2094.378179 602.044114 2094.303228 C600.064744 2094.102300 598.048752 2094.163580 596.052414 2094.245855 C580.329880 2094.892095 564.614182 2095.829839 548.885422 2096.156011 C534.993577 2096.444341 521.318039 2095.843511 507.465928 2092.592779 C487.102585 2087.813970 466.647812 2083.439947 446.296311 2078.489751 C416.729844 2071.297613 387.993088 2061.641851 357.141648 2052.234624 M1089.141648 2222.234624 C1092.809983 2222.234624 1096.582810 2222.794927 1100.127854 2222.134039 C1113.064499 2219.721441 1125.854294 2216.470220 1138.832077 2214.344976 C1154.585129 2211.765874 1169.663865 2206.892828 1184.944626 2202.567876 C1211.863450 2194.949468 1237.309861 2183.995611 1261.368577 2169.887701 C1279.422043 2159.301275 1295.128098 2145.582281 1306.762131 2128.232671 C1316.423630 2113.824712 1319.450608 2097.223150 1313.135544 2080.439458 C1308.157151 2067.208501 1300.212571 2055.665777 1289.336594 2046.267095 C1286.748459 2044.030523 1285.673142 2044.383306 1282.933396 2046.224371 C1252.739182 2066.516119 1221.794846 2085.585210 1188.359787 2100.161871 C1169.740891 2108.279058 1150.933640 2116.007818 1131.964036 2123.264654 C1115.771286 2129.459234 1099.140427 2134.348150 1082.234299 2138.432378 C1072.470749 2140.791021 1062.777024 2143.140386 1052.832566 2144.642583 C1042.895554 2146.143560 1033.102585 2148.587896 1023.172776 2150.151128 C1016.187058 2151.250738 1008.887375 2150.774175 1002.067063 2152.413091 C990.706467 2155.143072 979.082077 2155.773687 967.693650 2155.897955 C948.337204 2156.109136 928.884446 2158.083013 909.515427 2154.429937 C901.982590 2153.009039 894.138840 2153.729742 886.343674 2152.551031 C870.074997 2150.091070 853.856247 2147.700201 837.666916 2144.552496 C817.105515 2140.554205 797.032883 2135.162847 777.355637 2128.290044 C761.670456 2122.812017 746.425095 2116.088140 730.847947 2110.284185 C709.572190 2102.356695 689.955491 2091.235845 670.584885 2079.624029 C661.480881 2074.166753 652.673508 2068.212408 643.536179 2062.814214 C641.689499 2061.723150 639.197312 2060.685552 637.932297 2065.101568 C635.220871 2074.566900 631.923874 2083.119878 633.584885 2093.919195 C635.780564 2108.195074 642.278733 2119.433843 650.914231 2129.825445 C668.171311 2150.591802 690.723069 2164.569830 714.677414 2176.048589 C731.868943 2184.286382 749.270920 2192.159185 767.887742 2197.242681 C786.761033 2202.396246 805.375901 2208.253179 824.519211 2212.673101 C846.092087 2217.654302 867.979416 2220.089117 889.646897 2224.079351 C901.595994 2226.279546 913.807053 2227.516119 925.951340 2228.081548 C941.662766 2228.812749 957.375412 2228.685064 973.122361 2229.858648 C986.698533 2230.870611 1000.468308 2230.602300 1014.303391 2228.630621 C1030.779953 2226.282232 1047.691697 2227.113531 1064.390183 2226.142828 C1072.336838 2225.680669 1080.226365 2224.234869 1089.141648 2222.234624 M1846.141648 1495.234624 C1848.141648 1490.065069 1849.957566 1484.814825 1852.177048 1479.741216 C1858.161911 1466.060552 1862.919480 1452.144659 1862.176804 1436.888189 C1861.950486 1432.234747 1862.061081 1427.559331 1862.156296 1422.896734 C1862.493943 1406.369146 1855.422410 1392.192632 1846.136277 1379.623174 C1832.234665 1360.806280 1811.608201 1350.962164 1789.892869 1344.546636 C1774.651902 1340.043951 1758.461716 1339.015020 1742.488816 1338.362920 C1738.134812 1338.185186 1733.698533 1340.239019 1729.332322 1340.116582 C1711.893845 1339.627691 1695.271531 1343.860967 1678.713913 1348.401495 C1676.866257 1348.908331 1674.393845 1351.682500 1674.341843 1353.467657 C1673.947312 1366.921636 1669.471970 1379.813726 1668.558152 1392.985845 C1667.622605 1406.467657 1663.186814 1419.079229 1661.731492 1432.407110 C1660.258835 1445.889410 1655.137986 1458.936285 1652.214402 1472.304937 C1646.700730 1497.518316 1640.145554 1522.440313 1632.102585 1546.953008 C1623.837693 1572.141729 1616.252976 1597.580694 1605.493210 1621.887456 C1602.883103 1627.783697 1603.106003 1628.135015 1609.814744 1628.226080 C1623.403367 1628.410650 1636.737595 1625.985845 1650.179001 1624.646734 C1662.316941 1623.437261 1673.404099 1619.521490 1684.928025 1616.562872 C1709.741745 1610.192510 1732.446335 1599.111333 1754.285447 1586.139898 C1763.725632 1580.532842 1773.198533 1574.648687 1781.507126 1567.545660 C1794.515671 1556.424322 1806.782761 1544.395391 1818.883591 1532.271734 C1824.022019 1527.123785 1828.087937 1520.866582 1832.382126 1514.926031 C1836.799851 1508.814458 1840.901658 1502.474615 1846.141648 1495.234624 M447.141709 2318.234624 C453.811509 2314.234624 460.531846 2310.315923 467.137619 2306.212896 C474.569199 2301.597173 482.793076 2297.772710 489.076157 2291.897222 C500.590561 2281.130132 511.343003 2269.463873 521.659592 2257.521490 C534.265549 2242.929449 547.292405 2228.716314 558.654099 2213.001470 C574.630051 2190.904302 587.373703 2167.322515 595.774094 2141.424810 C596.449631 2139.342535 595.232102 2136.645757 594.894333 2134.234624 C592.879685 2134.998296 590.580246 2135.368658 588.895432 2136.588140 C575.231980 2146.475103 560.557419 2154.935308 544.618577 2159.895269 C528.523362 2164.903570 511.813828 2168.602300 494.907883 2170.103277 C480.255112 2171.404058 465.504014 2171.635259 450.790879 2172.194585 C446.171250 2172.370123 441.019883 2173.338384 437.021592 2171.709966 C430.592881 2169.091558 425.413681 2170.223638 419.956101 2173.387701 C416.810471 2175.211675 414.003525 2176.631841 409.835495 2174.517339 C407.066391 2173.112554 403.335618 2174.137701 400.064621 2177.009527 C390.696335 2185.235113 380.229783 2192.223394 370.983384 2200.571539 C346.349045 2222.812505 324.650986 2247.871587 303.930588 2273.691900 C290.260666 2290.726568 277.676682 2308.653570 265.053696 2326.497564 C259.503403 2334.343511 255.150071 2343.029058 250.057297 2351.211431 C248.960618 2352.973150 246.765000 2354.035650 250.915329 2354.287115 C258.975083 2354.774908 267.007798 2355.974371 275.067307 2356.146001 C289.712815 2356.458013 304.376877 2356.500494 319.018662 2356.110357 C325.321640 2355.942388 331.701584 2354.885992 337.848191 2353.407720 C351.093247 2350.222906 363.988144 2345.700201 377.052170 2341.872564 C400.080430 2335.125494 422.479233 2326.230230 447.141709 2318.234624 z"/><path class="selected"  fill="#000000" opacity="1.000000" stroke="none" 
 	d="
M1342.141648 542.234624 C1339.778122 547.567937 1338.309739 552.897955 1334.847336 556.007635 C1329.257126 561.028204 1316.722336 557.788518 1312.187424 550.859075 C1305.343918 540.401678 1301.480881 528.596441 1298.241379 516.685979 C1294.480515 502.859258 1291.092087 488.903997 1288.271653 474.858038 C1286.268845 464.884771 1286.226731 454.497625 1283.974045 444.599218 C1280.133835 427.725683 1275.419480 411.052557 1266.756882 395.791479 C1260.025803 383.933416 1254.086960 371.467809 1243.335129 362.580816 C1236.524216 356.951391 1229.580979 351.038061 1221.746750 347.184118 C1206.002366 339.439092 1191.091843 329.761907 1172.693284 327.819952 C1164.657029 326.971716 1156.519333 324.494146 1149.467209 328.490758 C1140.466477 333.591650 1131.230637 331.796911 1121.996018 332.209814 C1117.466721 332.412328 1113.318161 331.732885 1111.489914 326.610296 C1109.590012 321.287145 1108.342820 315.920415 1112.370896 311.133764 C1114.673752 308.397161 1116.823288 306.914312 1114.466721 302.333959 C1112.079758 297.694952 1117.529587 289.831365 1124.162522 286.288030 C1128.225632 284.117467 1132.447434 282.105840 1136.808640 280.656835 C1151.172532 275.884679 1162.410569 266.261480 1174.112351 257.292059 C1195.334275 241.025365 1214.126267 222.103277 1232.373337 202.734869 C1250.150071 183.865636 1263.016282 161.597631 1274.320603 138.246770 C1285.101609 115.976720 1294.085618 93.024770 1301.384079 69.530965 C1305.177170 57.321241 1308.461350 44.603292 1308.382248 31.317907 C1308.341965 24.549657 1310.345139 17.632925 1312.250535 11.021413 C1315.079392 1.207033 1318.530686 -0.770586 1328.472336 0.234621 C1333.796677 0.772966 1339.274216 8.169225 1340.210373 14.814542 C1344.058518 42.129423 1341.772873 69.571981 1341.962327 96.944967 C1342.083420 114.429205 1343.867478 131.666555 1348.405808 148.352727 C1352.433030 163.159628 1356.734543 177.982153 1363.974167 191.853185 C1373.248093 209.621740 1386.575486 222.623327 1403.607956 233.007726 C1426.931077 247.227392 1451.254685 259.484594 1475.331833 272.253210 C1479.667771 274.552618 1485.046311 276.145330 1487.927536 279.698797 C1497.542283 291.556676 1490.902146 302.178197 1478.298996 306.354955 C1470.560837 308.919347 1462.451096 309.616827 1454.611252 311.661626 C1437.350876 316.163427 1422.051438 323.752691 1407.723435 333.749059 C1389.664841 346.348211 1375.173508 362.815191 1364.586350 381.692419 C1356.975510 395.262884 1351.938889 410.528234 1349.898484 426.581060 C1348.317551 439.018346 1347.377121 451.533025 1345.700364 463.870672 C1343.369309 481.021734 1345.135788 498.037359 1344.116379 515.068060 C1343.593918 523.798406 1342.808396 532.512945 1342.141648 542.234624 M1405.141648 268.234594 C1404.416306 267.567937 1403.794358 266.701147 1402.950119 266.264104 C1385.254929 257.104375 1368.858811 246.414526 1355.701462 230.975378 C1338.694748 211.019414 1329.104172 187.553594 1322.322312 162.813665 C1319.074875 150.967092 1314.599656 139.118627 1316.069626 126.354299 C1316.143967 125.709432 1315.263230 124.471578 1314.661667 124.353567 C1313.900681 124.204290 1312.758103 124.711553 1312.162888 125.313909 C1311.308152 126.179052 1310.568406 127.306982 1310.176316 128.457967 C1304.666062 144.628606 1296.482346 159.468160 1288.275071 174.386938 C1276.498581 195.793676 1261.884568 215.049139 1244.815842 232.249609 C1228.898484 248.289526 1212.101731 263.538732 1194.830002 278.114477 C1187.318284 284.453710 1179.805710 291.668462 1169.637375 294.304540 C1169.005173 294.468420 1168.099045 296.113775 1168.230881 296.262487 C1168.939133 297.061010 1169.856736 297.958654 1170.845383 298.178960 C1179.403855 300.086126 1188.061081 301.584570 1196.559250 303.720953 C1215.837937 308.567510 1232.187302 319.520666 1248.604661 329.993566 C1256.957932 335.322301 1265.254807 341.576055 1271.558152 349.102453 C1283.580246 363.456792 1291.913498 380.354345 1299.975144 397.212377 C1302.619065 402.741674 1304.419602 408.733892 1306.081101 414.661565 C1309.907151 428.312078 1313.715622 441.991064 1314.210129 456.312200 C1314.232834 456.970586 1315.251389 457.594610 1315.806321 458.234624 C1316.584763 457.484991 1318.013718 456.759344 1318.042283 455.982000 C1318.365403 447.228918 1318.715622 438.552373 1319.772263 429.779363 C1321.179490 418.095769 1324.307297 407.023138 1327.533005 395.893987 C1334.287156 372.591222 1346.777634 352.275060 1363.015061 334.718267 C1383.245163 312.844122 1406.131638 294.300268 1436.598679 288.164404 C1437.221116 288.039068 1437.813035 286.924779 1438.070847 286.155157 C1438.215500 285.723455 1437.788010 284.729101 1437.371140 284.543615 C1435.404831 283.668798 1433.212693 283.235662 1431.356125 282.191534 C1423.236374 277.625066 1415.205002 272.901311 1405.141648 268.234594 z"/><path class="selected"  fill="#000000" opacity="1.000000" stroke="none" 
 	d="
M841.641648 377.734624 C842.885666 373.191442 841.782395 369.303381 843.826340 364.919927 C848.123093 355.704992 849.714768 353.725225 859.403244 354.234624 C865.587693 354.559789 870.627732 359.154272 872.059006 366.606237 C873.142624 372.248205 873.349778 378.052557 874.171189 383.752294 C875.390549 392.213689 876.326096 400.757238 878.234665 409.070196 C883.364548 431.415472 890.378464 453.226018 898.170823 474.774480 C903.657761 489.947271 910.328537 504.470159 922.556809 515.659917 C931.024338 523.408147 939.337693 531.328191 947.913987 538.953191 C960.999436 550.587286 976.926926 556.836370 993.247849 562.212347 C1001.912034 565.066289 1005.968674 569.753789 1006.141526 577.598699 C1006.290574 584.354620 1002.237473 590.308416 995.666916 592.176702 C989.375168 593.965704 982.814744 594.867925 976.608323 596.885686 C965.277634 600.569402 954.559861 605.949407 945.712693 613.866277 C919.704758 637.139410 899.854416 664.802923 889.220383 698.352178 C886.579026 706.685674 885.505295 715.563055 884.209153 724.264654 C882.414475 736.313909 883.048874 748.620733 880.278611 760.617925 C879.402024 764.414312 880.309739 768.592657 880.100876 772.580511 C879.814133 778.054327 878.529465 783.152593 874.266160 787.159307 C866.580124 794.382696 856.189988 793.172613 850.116745 784.373663 C844.212449 775.819463 841.548020 765.864507 838.318284 756.277532 C833.869065 743.070440 830.369675 729.518621 826.985032 715.984075 C823.137497 700.598760 817.517746 685.893621 809.978196 672.052862 C805.631028 664.072271 800.272385 656.429937 794.250168 649.625555 C785.690842 639.954534 776.084519 631.211797 766.958786 622.039495 C761.038254 616.088811 753.708298 612.593999 745.835984 610.291936 C735.870286 607.377569 726.154953 603.650396 715.340134 603.917852 C711.507493 604.012640 706.819260 602.547796 703.509446 598.837408 C701.132981 596.173589 700.006516 593.771734 699.995041 590.176519 C699.983078 586.452459 700.498948 582.847539 698.471604 578.841070 C696.024827 574.005926 703.772995 565.158147 710.642746 564.308233 C724.803635 562.556341 737.937058 557.611333 749.703782 550.052068 C765.197922 540.098211 778.797532 527.968206 790.599045 513.394048 C798.858078 503.194646 806.389573 492.600896 811.834275 481.049871 C820.887986 461.841924 828.595017 441.860937 833.842331 421.241430 C837.416550 407.196264 838.786301 392.590002 841.641648 377.734624 M842.141648 485.234624 C840.808274 487.348699 839.168381 489.330572 838.190476 491.597967 C830.875779 508.556707 821.845871 524.332708 808.250168 537.187078 C801.757615 543.325506 795.551438 549.768499 789.265915 556.123479 C779.572312 565.924078 768.269700 573.220892 755.473923 578.316778 C754.236619 578.809576 753.075486 580.324285 752.650315 581.618047 C752.479416 582.138128 754.333176 584.045171 755.361130 584.127691 C768.025071 585.143194 778.059250 592.319707 786.611863 600.169927 C810.763230 622.337957 833.625168 645.852789 844.745896 677.888860 C848.191452 687.814703 854.227829 696.936956 854.243088 707.983282 C854.244065 708.734747 855.696824 709.484197 856.474411 710.234624 C857.030198 709.262456 858.110886 708.261602 858.059739 707.322454 C857.597702 698.841924 861.499802 691.432928 863.794480 683.664251 C867.491135 671.149847 873.039597 659.423101 880.150071 648.468389 C889.835495 633.546514 898.963303 618.169988 911.821457 605.636297 C922.805832 594.929143 933.997117 584.390874 948.424851 578.233099 C951.121140 577.082281 951.074997 575.443304 948.665696 574.283147 C938.518113 569.396612 930.160935 562.229803 921.561326 555.050176 C908.774216 544.374334 897.283494 532.921697 887.756638 519.157842 C880.581711 508.791814 875.226487 497.599126 871.272751 485.975530 C867.099534 473.706914 860.869431 461.919927 860.094162 448.587255 C860.047410 447.782781 859.318528 447.017950 858.907151 446.234594 C857.985276 446.840734 856.720505 447.244085 856.215989 448.097021 C855.288376 449.665655 854.824021 451.505132 854.139206 453.220769 C850.144333 463.227178 846.141648 473.230352 842.141648 485.234624 z"/><path class="selected"  fill="#000000" opacity="1.000000" stroke="none" 
 	d="
M1382.641648 1541.734624 C1385.929245 1555.730108 1388.370530 1569.193243 1388.448288 1583.130621 C1388.480515 1588.917242 1389.193284 1594.510748 1388.469895 1600.501226 C1387.294724 1610.232183 1381.169968 1615.007452 1373.946702 1619.357793 C1369.291916 1622.161504 1365.293869 1619.296880 1361.806687 1616.737920 C1357.841355 1613.828008 1355.674729 1609.341070 1357.013962 1604.506231 C1359.855149 1594.248052 1360.581711 1584.433965 1358.657029 1573.578130 C1356.894700 1563.638433 1355.994187 1553.369756 1354.064621 1543.364629 C1351.782883 1531.533331 1348.938035 1519.485601 1338.588303 1511.913091 C1327.207322 1503.586309 1315.920945 1495.732915 1300.155564 1495.814947 C1283.449021 1495.901861 1270.532151 1502.481939 1257.499680 1511.579473 C1241.728440 1522.588506 1231.331955 1537.801397 1222.379685 1553.975957 C1215.699387 1566.045538 1210.610764 1579.219732 1212.188767 1593.665044 C1213.169968 1602.647710 1211.386521 1606.451910 1203.945481 1609.430791 C1196.064744 1612.585821 1186.595871 1606.813726 1186.187058 1598.287725 C1185.228196 1578.286626 1188.303513 1559.482305 1197.610276 1541.041998 C1204.047654 1528.286993 1210.727219 1515.811407 1220.287278 1505.668951 C1229.420090 1495.979986 1240.647385 1488.086065 1251.625046 1480.356206 C1269.291672 1467.916509 1289.603074 1464.247686 1310.664353 1466.503179 C1320.060593 1467.509527 1329.300217 1471.030279 1337.413132 1476.511358 C1343.662522 1480.733648 1350.156174 1484.652837 1356.046311 1489.330206 C1360.666306 1492.998785 1365.645554 1496.978643 1368.506150 1501.948003 C1375.485764 1514.072637 1382.773606 1526.359747 1382.641648 1541.734624 z"/><path class="selected"  fill="#000000" opacity="1.000000" stroke="none" 
 	d="
M784.141648 1584.234624 C784.038498 1593.548467 779.049729 1598.242925 771.628220 1599.393072 C768.262742 1599.914434 763.929612 1597.792608 760.827805 1595.697149 C753.311081 1590.619146 750.559372 1582.170415 748.293992 1574.039190 C745.030808 1562.326299 743.490403 1550.117071 739.975388 1538.494512 C735.196946 1522.694830 725.184617 1510.553350 710.093430 1503.428472 C705.689988 1501.349493 700.388596 1500.655523 695.438279 1500.366827 C687.143601 1499.883062 678.690720 1499.372442 670.499558 1500.411016 C652.549851 1502.687017 634.999802 1506.580816 622.219773 1521.163335 C614.256882 1530.249639 608.994065 1540.684820 606.078537 1552.438726 C603.883713 1561.287237 603.019333 1569.835821 605.958176 1578.822637 C607.676804 1584.078497 603.066941 1590.076421 597.420334 1591.956060 C591.653000 1593.875860 584.906662 1591.361333 581.799973 1587.067998 C578.995896 1583.192998 577.931077 1579.221929 578.091477 1574.567754 C578.297898 1568.582403 578.028977 1562.581914 578.162766 1556.592535 C578.576340 1538.079473 585.841721 1522.144292 596.131394 1507.090093 C606.451951 1491.990728 620.868210 1483.110479 637.771897 1477.686651 C646.124314 1475.006719 654.463913 1472.701788 663.441941 1471.808355 C672.184006 1470.938604 680.870041 1470.091924 689.621018 1470.285162 C704.920456 1470.622808 719.964280 1473.576543 732.429734 1482.461797 C748.555588 1493.955938 761.705613 1508.160162 766.301560 1528.730596 C769.468796 1542.906988 773.967453 1556.800420 778.244065 1570.705572 C779.587449 1575.073370 782.141648 1579.068731 784.141648 1584.234624 z"/><path class="selected"  fill="#000000" opacity="1.000000" stroke="none" 
 	d="
M1062.141526 1650.234624 C1064.808274 1643.674322 1067.903611 1638.264654 1069.935837 1632.481573 C1070.779221 1630.081548 1069.415085 1626.872320 1068.941452 1624.050054 C1067.921067 1617.968999 1066.258103 1611.945562 1072.224045 1607.040533 C1076.717087 1603.346685 1085.636765 1603.025274 1089.921555 1607.026739 C1099.110642 1615.608282 1102.244187 1625.498052 1098.257737 1637.988287 C1089.935959 1664.060552 1076.271409 1686.523687 1055.180954 1704.099004 C1041.120652 1715.815923 1024.410447 1722.691045 1007.185105 1728.136358 C994.654709 1732.097417 981.688889 1735.012945 968.756272 1730.119390 C960.132370 1726.856084 951.354416 1723.374883 943.672776 1718.403448 C933.783249 1712.003179 923.986619 1704.912237 915.875412 1696.462408 C907.458909 1687.694219 899.617966 1678.168829 894.862961 1666.314214 C890.949875 1656.558843 889.734177 1646.034185 884.585495 1636.527471 C882.117112 1631.969976 883.289719 1624.564581 884.830979 1619.008794 C885.923142 1615.071905 888.225754 1610.084844 894.700119 1610.095953 C903.650559 1610.111333 905.418015 1610.243291 908.375046 1617.618902 C912.043503 1626.769048 915.799607 1636.039678 917.939988 1645.611089 C921.311570 1660.689092 931.325486 1670.818853 941.790085 1680.701299 C946.853806 1685.483526 952.896775 1689.218511 958.416306 1693.530157 C971.377121 1703.654668 986.267136 1704.818853 1000.875535 1699.940313 C1017.838913 1694.275152 1034.419968 1686.804815 1046.493088 1672.705083 C1052.235398 1665.998785 1056.957322 1658.418706 1062.141526 1650.234624 z"/></svg>