<?xml version="1.0" encoding="utf-8"?><!DOCTYPE svg PUBLIC "-//W3C//DTD SVG 1.1//EN" "http://www.w3.org/Graphics/SVG/1.1/DTD/svg11.dtd"><svg version="1.1" id="Contours" xmlns="http://www.w3.org/2000/svg" xmlns:xlink="http://www.w3.org/1999/xlink" x="0px" y="0px" width="1912.553223px" height="1912.553223px" viewBox="0.000002 -0.000005 1912.553223 2248.670654" enable-background="new 0 0 1912.553223 1912.553223" xml:space="preserve" stroke="black" fill="none" stroke-linecap='round' stroke-linejoin='round'><path class="selected"  fill="#000000" opacity="1.000000" stroke="none" 
 	d="
M1444.318052 2140.617254 C1446.318052 2134.112859 1449.071592 2128.749090 1450.132627 2123.069158 C1451.549253 2115.485906 1451.700254 2107.660955 1452.277647 2099.930975 C1452.395689 2098.351873 1452.399351 2096.543768 1451.752256 2095.173406 C1450.351621 2092.207342 1449.449278 2089.241522 1444.573667 2092.412664 C1437.223692 2097.193426 1433.296201 2104.447820 1428.315488 2111.011541 C1417.153013 2125.722723 1406.092344 2140.512762 1394.775816 2155.104559 C1382.420835 2171.034734 1369.983579 2186.907293 1357.245664 2202.530828 C1352.845274 2207.928045 1347.859068 2213.043035 1342.389707 2217.329168 C1333.111265 2224.599920 1321.361631 2219.900945 1316.120542 2209.929754 C1310.715635 2199.646551 1308.329160 2188.465154 1304.434629 2177.756658 C1298.745298 2162.112859 1294.718687 2145.861395 1287.445493 2130.794012 C1284.949033 2125.622137 1283.105283 2125.218816 1279.251157 2128.714666 C1266.884214 2139.931219 1256.251402 2152.688787 1246.314390 2166.057195 C1238.922788 2176.000799 1231.571714 2185.975652 1224.060850 2195.828924 C1219.012510 2202.451482 1214.209531 2209.365057 1208.428770 2215.303533 C1196.531797 2227.525457 1183.245054 2236.569647 1165.205259 2239.019842 C1146.036558 2241.623357 1126.926939 2241.104070 1108.017759 2240.013738 C1096.292661 2239.338201 1084.519956 2239.535955 1072.815611 2238.595525 C1039.130674 2235.889959 1005.267515 2238.423650 971.682066 2236.136541 C939.553281 2233.948065 907.532652 2235.667303 875.483335 2234.651678 C849.100034 2233.815496 822.583799 2231.381658 796.348569 2233.082342 C760.904966 2235.379949 725.433164 2232.299627 690.186094 2235.030340 C661.057188 2237.287176 631.919370 2234.373113 603.042539 2237.173895 C590.615781 2238.379461 577.995176 2236.929510 565.561460 2240.297430 C556.955869 2242.628729 547.544492 2242.228094 538.475767 2242.537420 C529.818906 2242.832586 521.489317 2244.107488 513.089658 2246.447088 C499.342344 2250.275945 488.590757 2244.801580 479.684019 2233.328436 C472.617490 2224.225897 469.002927 2213.685369 464.515134 2203.538397 C460.288267 2193.981756 457.703916 2183.703436 454.248777 2173.794012 C453.852842 2172.658270 452.136655 2170.899725 451.668211 2171.080145 C450.371763 2171.579412 449.013059 2172.751287 448.379819 2174.009832 C442.276731 2186.138494 436.398496 2198.380193 430.275266 2210.498113 C428.073301 2214.856268 427.067075 2220.514715 420.316709 2220.649969 C412.624265 2220.804022 406.239805 2219.964910 401.997556 2211.673406 C397.485349 2202.853826 392.828184 2194.176336 389.514341 2184.821600 C384.469358 2170.580389 379.218870 2156.409734 374.358213 2142.106268 C367.542295 2122.049383 361.656614 2101.747625 358.220274 2080.768133 C356.811460 2072.166815 354.603696 2063.658758 352.124265 2055.296453 C351.475217 2053.107488 348.699339 2050.501775 346.472959 2050.006170 C336.058347 2047.686834 332.335813 2039.641180 332.616941 2031.050359 C333.374448 2007.899969 322.812376 1988.610662 313.453916 1968.863836 C305.264402 1951.582830 294.072202 1936.260320 281.011045 1922.298162 C272.258237 1912.941717 263.683714 1903.415594 254.817869 1894.168035 C238.583860 1877.235418 219.280149 1864.593572 198.593443 1853.744207 C185.711790 1846.988348 173.017576 1840.134344 158.905515 1836.033270 C146.470213 1832.419744 134.814695 1835.178777 123.274656 1838.917059 C119.290281 1840.207830 119.241209 1844.781072 121.054502 1848.208074 C123.244382 1852.346746 125.767515 1856.432928 128.804563 1859.977850 C139.589292 1872.565740 149.029478 1886.117254 158.532041 1899.661932 C163.872556 1907.274236 170.650144 1913.877508 176.006834 1921.480047 C183.943235 1932.743719 191.728696 1944.181951 198.610777 1956.104559 C209.444578 1974.873113 219.748411 1993.963201 229.756467 2013.188055 C237.729673 2028.504705 245.262022 2044.074285 252.369871 2059.811834 C258.957822 2074.397772 264.260496 2089.569158 270.971616 2104.093572 C278.758665 2120.946111 285.411008 2138.156072 290.659361 2155.941717 C293.812376 2166.626531 297.234922 2177.233465 300.259641 2187.953436 C301.810484 2193.449774 295.162229 2204.471014 289.607725 2206.327215 C283.517637 2208.362371 276.080625 2205.349188 273.384580 2198.489080 C269.212583 2187.873602 265.126951 2177.084051 262.629087 2166.002508 C261.119382 2159.304022 258.311521 2153.450994 254.671140 2148.297674 C245.833555 2135.786932 235.996214 2123.983465 226.584959 2111.877020 C219.729429 2103.058416 213.533994 2093.629217 205.944944 2085.498602 C190.856992 2069.334051 172.080808 2058.166815 152.309812 2048.611639 C142.865659 2044.047674 133.406248 2039.691961 123.404356 2036.260320 C116.759641 2033.980779 110.476194 2034.862615 104.109068 2034.842107 C99.138486 2034.825994 94.698362 2040.571356 94.359007 2045.927557 C93.163267 2064.794744 98.142576 2082.215399 107.280454 2098.548895 C114.250852 2111.008123 121.506040 2123.309149 128.435606 2135.790838 C133.238157 2144.441229 138.378233 2152.999334 142.147153 2162.104070 C146.858457 2173.485174 150.544675 2185.313055 154.249815 2197.081365 C157.508054 2207.429998 160.436277 2217.901190 162.980833 2228.446111 C163.907285 2232.285955 164.233396 2236.765936 163.150938 2240.461248 C161.966123 2244.505926 159.804502 2248.970770 153.919248 2248.654852 C147.628599 2248.316961 141.613218 2249.957342 137.757871 2241.539617 C132.663267 2230.417547 129.485715 2218.799627 126.555235 2207.206121 C121.111387 2185.670232 112.266843 2165.884588 101.563902 2146.491522 C90.093259 2125.707586 75.955076 2106.150457 69.513242 2082.806463 C66.277036 2071.078680 63.246153 2059.176824 64.452024 2046.973455 C66.228025 2029.000799 73.967588 2014.710760 91.992368 2007.939520 C104.748716 2003.147527 117.466245 2003.711981 130.369993 2007.605535 C156.166929 2015.389959 178.873106 2029.340887 201.629758 2043.132147 C206.823545 2046.279852 210.987058 2051.100652 215.779661 2054.959051 C216.786192 2055.769354 218.473692 2055.733709 219.847349 2056.087957 C219.337583 2055.095770 218.836790 2054.099188 218.316648 2053.112371 C207.358274 2032.319647 196.526304 2011.459051 185.400510 1990.756170 C174.600584 1970.659979 162.997800 1950.990545 149.275144 1932.755193 C136.560728 1915.859686 122.887693 1899.688299 109.826658 1883.049139 C104.016660 1875.647283 98.234190 1868.156316 94.331907 1859.484686 C89.884153 1849.601141 88.298338 1839.297918 92.971922 1829.259588 C95.077451 1824.737371 98.636167 1819.987615 102.820860 1817.525945 C111.570432 1812.379217 120.739988 1807.587225 131.250303 1806.568670 C135.003233 1806.204900 138.684019 1804.848943 142.428892 1804.692693 C158.563230 1804.019109 173.617002 1808.993963 187.915830 1815.479559 C208.295347 1824.722967 227.897825 1835.629217 246.153928 1848.670477 C263.614561 1861.143865 280.057432 1874.759344 293.030393 1892.180731 C297.683103 1898.428777 303.470335 1903.818426 308.467161 1909.826971 C318.165891 1921.489080 328.292661 1932.871160 334.383237 1947.074041 C334.951231 1948.398260 336.432066 1949.331609 337.489072 1950.446356 C337.765440 1948.894354 338.727659 1947.045232 338.205503 1945.838934 C335.069517 1938.594061 337.055601 1930.998357 336.265989 1923.625799 C331.910459 1882.955145 335.512388 1842.169256 334.318052 1801.456854 C338.716673 1790.023504 333.842222 1777.546941 338.273740 1766.099188 C338.610410 1765.229559 338.327329 1764.116522 338.316709 1763.116522 C338.168211 1749.192938 340.058164 1735.491277 342.194151 1721.757147 C344.115720 1709.401922 344.625852 1696.830145 346.438230 1684.453436 C347.750059 1675.495916 350.844968 1666.780584 351.908018 1657.810613 C352.918516 1649.284002 353.801633 1640.892889 356.134946 1632.530828 C358.912412 1622.576727 360.082822 1612.186834 362.375547 1602.082342 C365.477476 1588.411688 368.599363 1574.723455 372.421384 1561.243963 C376.635252 1546.383001 381.269163 1531.614568 386.411008 1517.049871 C393.487302 1497.005315 400.618528 1476.940496 408.838743 1457.351263 C415.989866 1440.310003 423.744321 1423.377142 432.924924 1407.367254 C445.765928 1384.973943 457.604734 1361.715521 476.519468 1343.384832 C477.121397 1342.801580 477.498350 1341.986395 477.980161 1341.279363 C477.071592 1341.058660 476.146177 1340.593572 475.257139 1340.655096 C466.529661 1341.258856 457.503355 1343.702093 449.149107 1342.248235 C432.353147 1339.325872 415.389951 1340.516302 398.443906 1337.302313 C373.780088 1332.624822 349.689390 1326.606268 326.078428 1318.491277 C312.115842 1313.692449 298.429563 1307.993963 284.891355 1302.077215 C262.313413 1292.209905 240.017637 1281.729925 217.309934 1272.112859 C203.400266 1266.221990 190.391294 1257.686712 177.967710 1248.934026 C162.048093 1237.718328 147.092954 1225.128851 131.780027 1213.058050 C118.697874 1202.745550 105.606992 1192.440374 92.699155 1181.912298 C86.388486 1176.765203 80.489683 1171.113714 74.397276 1165.698553 C62.461118 1155.089300 50.707273 1144.264837 38.525205 1133.945745 C27.549375 1124.648138 19.282346 1113.205023 13.512388 1100.428533 C7.911802 1088.026556 3.926694 1075.010198 1.832395 1061.151556 C-0.164431 1047.937689 -0.567080 1034.738592 0.811033 1021.962591 C2.493406 1006.364446 3.451292 990.505926 8.109312 975.163152 C12.530637 960.600042 18.051756 946.595892 24.931272 933.118597 C29.722349 923.732732 34.787840 914.426824 40.512693 905.591741 C49.073545 892.379827 57.805235 879.214544 67.417295 866.765203 C77.880186 853.213934 90.010191 840.944280 100.388914 827.334417 C122.145933 798.804022 149.207090 775.415716 174.218015 750.064886 C183.865537 740.286199 195.555357 732.537908 206.176023 723.697820 C212.182371 718.698553 218.034544 713.496893 223.733640 708.149114 C237.206541 695.506536 251.090452 683.238592 263.793394 669.855901 C277.637571 655.270574 290.320737 639.584539 303.543211 624.407293 C308.678770 618.512518 314.118528 612.869695 319.039304 606.803655 C326.074278 598.131292 332.759885 589.175482 339.594724 580.340643 C346.429502 571.505804 352.962461 562.416204 360.162168 553.889471 C374.925047 536.405584 387.182371 517.148321 400.435606 498.584356 C416.792295 475.673162 426.438902 449.241827 440.446531 425.149847 C447.376463 413.230962 455.215879 401.770757 463.426878 390.682806 C476.717832 372.734808 491.223569 355.670110 504.170957 337.487859 C519.648008 315.753057 533.109800 292.541815 549.194761 271.295232 C560.277158 256.656439 574.514341 244.435186 587.006406 230.825933 C598.291074 218.532110 609.230161 205.939703 618.427793 191.898138 C621.946226 186.526861 626.491636 181.766058 630.935728 177.074468 C646.391416 160.758245 661.283628 143.806646 677.795713 128.625555 C690.627378 116.828253 704.148740 105.590215 719.270811 96.375860 C734.567442 87.055181 749.381284 76.814153 763.666563 65.998846 C777.014097 55.893438 792.582090 50.372625 807.238584 43.068487 C819.587095 36.914495 832.757017 32.043340 846.022153 28.180242 C865.714780 22.445318 885.154844 15.697698 905.572324 12.463293 C916.939634 10.662542 927.988950 6.923040 939.320493 4.798681 C945.258115 3.685491 951.432188 3.633306 957.488096 2.946447 C987.416685 -0.447871 1017.644102 -0.739588 1047.577940 1.203680 C1063.869077 2.261205 1080.698789 4.271612 1096.550962 10.408849 C1106.343565 14.200079 1117.270933 15.061468 1127.061094 18.857549 C1137.677915 22.974188 1148.090879 27.709844 1157.654722 34.431524 C1171.951719 44.479803 1187.440244 52.824712 1201.823423 62.760503 C1213.636533 70.920843 1225.081602 79.780645 1235.771909 89.355352 C1247.671323 100.013372 1258.811826 111.567693 1269.777525 123.207769 C1285.075986 139.447210 1300.186094 155.875616 1313.049497 174.222295 C1316.566587 179.238775 1320.922910 183.679083 1325.007749 188.283025 C1336.047910 200.726324 1347.665586 212.699163 1358.092588 225.633795 C1370.446470 240.958624 1382.125425 256.860540 1393.484678 272.944647 C1404.524595 288.576910 1415.029966 304.603155 1425.318906 320.743902 C1433.343931 333.333013 1440.570860 346.427801 1448.343443 359.181402 C1459.219907 377.027837 1470.483945 394.640753 1481.190733 412.587103 C1491.371153 429.650701 1500.981870 447.053045 1510.963316 464.236639 C1524.499448 487.539800 1538.736753 510.363958 1554.689878 532.151067 C1576.907163 562.493841 1598.503111 593.292303 1620.306577 623.937200 C1632.934751 641.686102 1645.806821 659.276434 1657.920835 677.372137 C1673.068296 699.999212 1687.406187 723.166692 1702.368589 745.919744 C1712.297788 761.018743 1723.024595 775.620306 1736.576353 787.700506 C1746.881284 796.886785 1758.134214 805.003851 1768.559263 814.063665 C1772.904722 817.840154 1776.160825 822.859808 1779.974546 827.260442 C1788.908384 837.569036 1798.123228 847.645086 1806.778989 858.181097 C1820.264097 874.595525 1833.673765 891.092352 1844.337095 909.591863 C1847.453062 914.997381 1850.712827 920.341741 1854.254331 925.474310 C1859.289487 932.772039 1861.454038 941.199651 1864.030210 949.428289 C1867.087583 959.193548 1869.216001 969.254827 1872.396665 978.975164 C1878.319517 997.075506 1882.135191 1015.664007 1886.634214 1034.120428 C1891.863462 1055.570867 1890.779234 1077.115911 1889.857114 1098.516302 C1889.246275 1112.692449 1884.373228 1126.711736 1881.152280 1140.742498 C1876.132993 1162.603704 1866.646421 1182.756902 1856.155454 1202.357855 C1850.266294 1213.360418 1843.243101 1223.861639 1835.801450 1233.899847 C1827.187437 1245.519720 1818.279722 1257.099065 1808.159116 1267.376043 C1797.745298 1277.951238 1786.080747 1287.406927 1774.317319 1296.518255 C1750.571958 1314.909857 1723.990415 1328.618963 1696.777525 1340.994695 C1679.689146 1348.766302 1662.318784 1356.036443 1644.681089 1362.447576 C1627.844419 1368.567693 1610.502622 1373.302068 1593.372495 1378.611395 C1579.011411 1383.062444 1564.725523 1387.637274 1549.528745 1388.742864 C1540.698179 1389.385320 1531.981870 1391.472479 1523.169126 1392.540960 C1518.457212 1393.112127 1520.179868 1395.905218 1520.882261 1398.113470 C1524.063902 1408.116766 1527.110288 1418.181463 1530.798277 1428.001409 C1537.359312 1445.471380 1541.229185 1463.692938 1546.205991 1481.597357 C1549.466245 1493.326971 1551.651548 1505.355291 1554.318052 1517.249822 C1556.984556 1529.144354 1559.460630 1541.085760 1562.369566 1552.920721 C1565.516782 1565.724676 1567.536558 1578.785955 1569.838560 1591.702459 C1571.441587 1600.697332 1572.672056 1609.888494 1574.306577 1618.960027 C1576.669370 1632.074285 1576.722837 1645.499822 1580.154722 1658.512762 C1581.773618 1664.651922 1581.797544 1671.238592 1582.284849 1677.642400 C1583.074888 1688.023016 1582.944761 1698.524969 1584.475034 1708.785955 C1587.118589 1726.509588 1587.336118 1744.350897 1588.783628 1762.110906 C1589.687681 1773.206121 1589.270200 1784.309637 1590.419859 1795.307195 C1594.602476 1835.325994 1591.132993 1875.435369 1592.318052 1915.481268 C1587.865171 1928.277410 1592.917173 1942.027166 1588.389097 1954.846746 C1587.865903 1956.328436 1588.298032 1958.154852 1588.321470 1959.821111 C1588.516782 1973.749578 1586.546568 1987.426824 1584.601987 2001.201482 C1582.963071 2012.813543 1582.474790 2024.539129 1578.384214 2035.697820 C1578.124204 2036.408025 1578.552915 2037.808904 1579.142759 2038.263006 C1579.676939 2038.674383 1581.085142 2038.538641 1581.722837 2038.093084 C1582.754087 2037.372625 1584.049497 2036.295965 1584.229917 2035.203924 C1586.510435 2021.405096 1595.390073 2010.490545 1600.413511 1997.887029 C1607.366880 1980.441229 1614.796812 1963.177557 1622.372251 1945.989813 C1629.580015 1929.636541 1637.077085 1913.405340 1644.745786 1897.262762 C1651.102476 1883.881902 1657.203794 1870.303777 1664.676450 1857.549871 C1673.070005 1843.224188 1682.457944 1829.423406 1692.196958 1815.961736 C1700.284361 1804.783270 1709.090513 1794.048162 1718.367124 1783.833318 C1725.159361 1776.354315 1732.836607 1769.528875 1740.829038 1763.326238 C1751.791441 1754.818426 1763.327085 1747.031072 1774.800718 1739.204412 C1785.843687 1731.671453 1797.474790 1724.650945 1810.521421 1721.826971 C1819.272642 1719.932684 1828.906675 1720.102361 1837.806821 1721.502508 C1845.990903 1722.789861 1853.826597 1735.600897 1854.371519 1744.166082 C1855.034849 1754.587225 1853.394956 1764.619207 1850.326841 1774.513250 C1843.915220 1795.189520 1835.346616 1814.968328 1825.656431 1834.291326 C1819.014585 1847.535223 1812.799497 1861.007147 1805.753355 1874.030828 C1798.656675 1887.146551 1790.767759 1899.833563 1783.226255 1912.708563 C1771.913755 1932.021307 1760.908628 1951.522527 1749.205259 1970.595281 C1736.612241 1991.117498 1723.356382 2011.232977 1710.425230 2031.548162 C1709.773618 2032.571844 1709.281187 2033.773504 1709.040220 2034.958318 C1708.819028 2036.046209 1709.037534 2037.223699 1709.062437 2038.361639 C1710.147642 2038.038885 1711.708921 2038.067205 1712.245786 2037.339910 C1719.007749 2028.177313 1725.567808 2018.866277 1732.289976 2009.673650 C1738.103452 2001.723943 1743.916441 1993.766912 1749.980161 1986.009100 C1761.477964 1971.299383 1773.655454 1957.190252 1787.412534 1944.499334 C1804.016538 1929.181463 1822.089536 1916.099432 1842.687681 1906.542059 C1854.219663 1901.191961 1866.412290 1897.736395 1878.800230 1897.575018 C1887.376402 1897.462713 1897.029722 1898.807684 1903.398374 1906.700262 C1909.828794 1914.668768 1914.044859 1923.888982 1912.058286 1933.951482 C1909.730650 1945.742254 1906.152280 1957.483709 1898.580747 1967.298650 C1888.810972 1979.963690 1878.766538 1992.416082 1868.930357 2005.030096 C1859.907652 2016.600652 1851.129087 2028.363348 1841.996763 2039.845770 C1837.343198 2045.696844 1831.890073 2050.913397 1827.250913 2056.774969 C1815.089292 2072.140936 1800.679624 2086.014471 1793.380552 2104.719305 C1790.351987 2112.481268 1788.100767 2120.653631 1786.554380 2128.839422 C1785.837095 2132.634832 1787.438169 2136.958318 1788.370542 2140.953191 C1789.616392 2146.291815 1791.384214 2146.964422 1796.594419 2144.617254 C1803.736753 2141.399725 1809.113218 2142.000311 1813.169370 2146.468572 C1817.480650 2151.218084 1816.866148 2158.055975 1813.242857 2164.905340 C1807.935484 2174.939031 1799.193052 2179.196600 1789.022153 2178.248602 C1780.575132 2177.461736 1773.344907 2172.262762 1768.273618 2164.703436 C1756.572446 2147.263006 1755.941587 2128.401434 1761.073667 2108.950750 C1765.850523 2090.847723 1774.399595 2074.796209 1787.025816 2060.649481 C1799.208433 2047.000066 1810.373228 2032.431463 1821.773130 2018.098211 C1830.905454 2006.616033 1839.581480 1994.770818 1848.721861 1983.294988 C1855.561460 1974.707342 1862.809263 1966.444402 1869.890806 1958.049383 C1875.395689 1951.523504 1879.131528 1943.984930 1881.831968 1936.002020 C1884.401060 1928.408025 1882.200864 1925.461492 1874.346861 1926.809637 C1868.342710 1927.840887 1862.455747 1930.204900 1856.834653 1932.694402 C1840.318296 1940.010076 1824.846128 1948.980779 1811.909605 1961.917791 C1807.098569 1966.729315 1801.020444 1970.372137 1796.653013 1975.510809 C1784.018247 1990.376775 1771.201353 2005.085027 1760.151792 2021.289129 C1752.584898 2032.385809 1743.528745 2042.478094 1734.984800 2052.893133 C1730.450376 2058.420477 1726.016538 2064.148016 1720.767515 2068.942205 C1714.144712 2074.991033 1706.447691 2079.185369 1696.831968 2078.686346 C1687.852720 2078.219793 1678.901792 2070.105779 1676.126402 2061.584295 C1672.241148 2049.654607 1676.413755 2039.239568 1681.023130 2029.136541 C1690.475767 2008.419500 1703.276304 1989.568670 1715.463071 1970.389227 C1722.809507 1958.827703 1729.901548 1947.087957 1736.671079 1935.179998 C1749.387632 1912.811102 1760.981138 1889.759832 1774.571226 1867.945135 C1785.605405 1850.233221 1794.925718 1831.702459 1804.116392 1813.119207 C1813.549986 1794.045232 1820.100278 1773.704656 1826.285581 1753.326482 C1827.390806 1749.685857 1825.584898 1747.729070 1821.481138 1748.736395 C1817.023130 1749.830145 1812.620298 1751.502508 1808.493101 1753.531805 C1789.969175 1762.640447 1773.008970 1774.085027 1757.804380 1788.101385 C1751.567319 1793.851141 1744.561216 1798.889715 1738.983579 1805.204656 C1728.997495 1816.510809 1719.407896 1828.225897 1710.408872 1840.332342 C1693.463071 1863.129217 1680.645689 1888.445379 1668.539487 1913.966619 C1657.993101 1936.199285 1649.823423 1959.546941 1639.736997 1982.013006 C1628.752378 2006.480535 1616.959898 2030.593328 1605.164976 2054.687078 C1594.288023 2076.905096 1579.736509 2096.903631 1566.489683 2117.700506 C1558.659605 2129.993231 1550.290708 2141.916815 1543.984068 2155.321844 C1536.529966 2171.165838 1524.740171 2184.478826 1509.715757 2193.759100 C1503.064634 2197.867742 1495.050352 2200.371893 1486.621885 2200.746160 C1475.173032 2201.255193 1464.658994 2199.278143 1454.388731 2193.893377 C1440.698545 2186.715399 1435.417295 2170.215643 1439.667173 2158.181951 C1441.572813 2152.785955 1442.788999 2147.146307 1444.318052 2140.617254 M1128.318052 51.617254 C1125.000303 49.950628 1121.848203 47.456915 1118.337461 46.753179 C1097.487730 42.573736 1077.921201 33.535894 1056.193418 32.163702 C1044.811338 31.444891 1033.454771 28.134832 1021.824644 28.671636 C1013.421323 29.059515 1005.047544 30.046270 996.649473 30.593939 C985.264097 31.336309 973.922422 30.586431 962.418882 32.176336 C949.513364 33.960027 936.728086 35.815008 923.903745 38.297003 C906.683408 41.629705 889.810850 45.982610 872.910825 50.519598 C848.953794 56.950994 826.084531 66.270940 803.826719 76.866949 C789.836240 83.527166 776.686216 92.139837 763.721738 100.726080 C742.844907 114.552679 721.443418 127.944036 703.199033 145.134954 C683.951963 163.270696 666.190244 182.987554 647.888364 202.117864 C643.869444 206.318670 639.864439 210.657537 636.620908 215.452337 C626.305967 230.701177 614.627378 244.808233 601.858457 258.012823 C592.359434 267.835760 581.454893 276.515508 573.170469 287.244146 C561.891660 301.850408 552.655576 318.020208 542.283872 333.343816 C527.312070 355.463873 511.393491 376.887762 494.456236 397.558416 C488.815122 404.442999 483.709165 411.764593 478.313047 418.851812 C463.888914 437.796270 455.763975 460.195196 444.287840 480.754400 C438.533811 491.062628 434.594358 502.314153 426.676756 511.527960 C421.185545 517.917974 417.229917 525.603094 412.281492 532.489202 C402.293211 546.388982 392.166196 560.190862 381.959531 573.931341 C375.496336 582.632269 368.890134 591.232000 362.159849 599.728094 C353.784971 610.300482 345.398069 620.873602 336.672300 631.154730 C329.894285 639.140814 322.468992 646.573797 315.543577 654.439642 C302.021787 669.797918 289.152952 685.768377 275.038511 700.554510 C265.429075 710.621282 254.181516 719.127996 243.632261 728.293035 C228.686948 741.277410 213.259214 753.746649 198.862363 767.311468 C181.444090 783.722967 164.485227 800.669744 148.068906 818.083563 C131.300596 835.870794 115.251524 854.349798 99.257627 872.845770 C93.049070 880.025457 87.552976 887.879949 82.264707 895.783270 C73.391416 909.044744 64.442991 922.302068 56.479856 936.111150 C50.334959 946.767278 44.691587 957.921941 40.553159 969.474065 C34.976499 985.040716 31.991270 1001.409857 32.418333 1018.072820 C32.708982 1029.415228 32.303159 1041.153753 35.072202 1051.983099 C43.295835 1084.145574 61.564878 1110.010076 88.422727 1129.622259 C92.160337 1132.351751 96.221006 1135.411077 100.561887 1136.367742 C107.750120 1137.951971 115.296445 1137.868963 122.673704 1138.658758 C125.470823 1138.958196 128.212827 1139.753118 130.987608 1140.281927 C142.111387 1142.402288 153.227048 1146.087225 164.366941 1146.165106 C175.133176 1146.240545 185.660642 1148.703802 196.775083 1147.090032 C209.972532 1145.174017 223.111570 1143.142400 236.249876 1140.780706 C251.294553 1138.075994 266.566709 1136.643011 281.732725 1134.603338 C287.077329 1133.884588 292.489194 1133.377020 297.716001 1132.127508 C310.114133 1129.162908 322.405943 1125.756414 334.767393 1122.634222 C345.642393 1119.887396 356.513731 1117.104925 367.459348 1114.663885 C380.310117 1111.798040 393.156736 1108.741522 406.156553 1106.761419 C420.756101 1104.537664 434.958494 1101.036810 449.112852 1096.935980 C470.220762 1090.820867 490.110288 1081.663030 510.486265 1073.680731 C535.163877 1064.013250 560.383115 1055.736883 585.253477 1046.548773 C596.801450 1042.282415 608.258237 1037.672674 619.433408 1032.518011 C633.154111 1026.189642 646.745664 1019.657293 661.092588 1014.777288 C679.818418 1008.408392 699.132871 1004.060369 717.673277 996.895208 C732.934507 990.997259 749.034238 987.118597 764.960142 983.137151 C778.645322 979.715765 792.520933 976.777899 806.479429 974.814398 C818.067564 973.184271 829.898862 973.279607 841.623106 972.624578 C842.620054 972.568914 843.704649 972.870916 844.610166 972.578436 C854.819028 969.280584 865.575010 969.032903 875.968687 968.917303 C900.348447 968.646185 924.745664 969.952337 949.135923 970.612615 C950.468320 970.648626 951.985532 970.196233 953.106870 970.683904 C962.224912 974.648138 972.262754 975.320379 981.691343 976.146429 C998.864317 977.650945 1014.995176 982.940008 1031.447080 986.868719 C1052.210264 991.827093 1072.572813 998.494695 1093.034361 1004.669622 C1103.078184 1007.700506 1112.822691 1011.772527 1122.934873 1014.517156 C1145.037901 1020.516058 1166.476133 1028.356512 1187.805112 1036.588079 C1199.902769 1041.257024 1211.398008 1047.492498 1223.364194 1052.111028 C1247.548643 1061.445623 1270.655332 1073.131048 1294.654356 1082.824774 C1307.779600 1088.126287 1320.084043 1095.478338 1332.699033 1102.020452 C1353.557066 1112.837225 1374.265073 1123.948675 1395.233457 1134.545721 C1408.986387 1141.495916 1422.948179 1148.077581 1437.076963 1154.225042 C1447.517271 1158.767889 1458.099546 1163.737859 1469.132993 1165.943426 C1479.361997 1167.988104 1488.249204 1171.430853 1496.416196 1177.596136 C1498.328306 1179.039617 1500.846128 1179.729559 1503.147398 1180.601751 C1519.281431 1186.717718 1535.325864 1193.095403 1551.611509 1198.779119 C1564.425474 1203.251287 1575.928892 1210.577459 1589.643736 1213.387029 C1605.551694 1216.646185 1621.227964 1220.658758 1637.570493 1220.585516 C1650.651304 1220.526922 1663.739439 1221.302801 1676.762632 1218.721868 C1687.032163 1216.686712 1697.699644 1216.430120 1707.809751 1213.875677 C1722.481382 1210.168646 1736.936704 1205.466375 1751.237730 1200.482244 C1759.934019 1197.451360 1768.508482 1193.700628 1776.538023 1189.202581 C1794.272398 1179.268255 1808.611753 1165.329900 1820.760923 1149.121771 C1822.817075 1146.378484 1824.790708 1143.487493 1826.260435 1140.406316 C1831.169370 1130.116033 1835.799009 1119.692938 1840.597837 1109.349554 C1846.962827 1095.630315 1850.734312 1080.864568 1851.883237 1066.170599 C1853.529966 1045.109319 1853.334898 1023.750433 1848.330503 1002.859441 C1844.864194 988.388372 1840.985288 974.011907 1834.240659 960.701238 C1825.852232 944.146429 1817.015073 927.814275 1808.123960 911.521307 C1804.985044 905.769354 1801.381040 900.222967 1797.520689 894.924139 C1791.324888 886.419866 1785.076841 877.910711 1778.242368 869.924505 C1766.792173 856.545110 1756.108091 842.104681 1742.796323 830.833563 C1728.511655 818.738592 1714.601255 806.370672 1701.794614 792.829168 C1694.592466 785.214056 1688.267759 776.631536 1682.424741 767.898138 C1671.298032 751.267645 1661.239683 733.914983 1649.926939 717.418157 C1636.505308 697.846380 1621.658140 679.242742 1608.463071 659.527410 C1590.933775 633.336614 1574.104673 606.706487 1554.686948 581.801458 C1544.204771 568.356878 1535.233823 553.735052 1524.774839 540.270330 C1510.866880 522.365362 1499.279478 502.980474 1488.588071 483.186407 C1479.271055 465.936834 1469.072691 449.265630 1459.069273 432.458624 C1448.384336 414.506109 1437.227354 396.834905 1426.326841 379.010076 C1418.361753 365.985113 1410.592222 352.839300 1402.525938 339.877874 C1394.594297 327.132635 1386.663145 314.372869 1378.260069 301.938238 C1363.121397 279.536688 1347.247984 257.648687 1329.687193 237.061712 C1319.540586 225.166448 1308.965635 213.637212 1298.625913 201.905767 C1294.555967 197.287908 1290.526426 192.629949 1286.610166 187.881780 C1277.605650 176.964849 1269.096738 165.605596 1259.609434 155.129583 C1249.999937 144.518682 1239.455381 134.754400 1229.320371 124.619451 C1221.346861 116.646185 1214.102110 107.723028 1205.231504 100.919744 C1191.542051 90.420538 1176.935728 81.063238 1162.344541 71.811102 C1151.602354 64.999517 1141.704160 56.631231 1128.318052 51.617254 M530.318052 1939.617254 C530.037168 1925.344549 532.032896 1911.322576 534.131040 1897.228582 C536.189024 1883.404607 537.247007 1869.462957 540.188902 1855.720770 C543.422544 1840.615789 544.815977 1825.089178 548.518858 1810.119207 C553.723569 1789.077947 560.004331 1768.283758 566.395567 1747.559881 C574.855161 1720.129217 585.617612 1693.572332 598.171690 1667.743231 C609.092222 1645.274725 621.786314 1623.973211 635.991514 1603.332342 C648.094419 1585.745916 661.615293 1569.512518 676.184629 1554.205633 C685.174863 1544.760076 696.602720 1537.671331 706.661192 1529.198065 C723.370786 1515.121649 742.973692 1506.263616 763.097105 1498.877752 C776.963560 1493.788397 791.614561 1490.682806 806.679502 1490.520452 C811.742490 1490.466009 816.857725 1488.439398 821.834531 1488.818304 C829.007627 1489.364568 836.027891 1491.966131 843.199644 1492.474310 C857.811338 1493.509100 871.270689 1498.451605 884.493589 1503.937322 C912.575376 1515.587103 936.923887 1533.237127 958.498594 1554.267400 C970.219907 1565.692693 980.785093 1578.452703 990.759214 1591.681951 C1003.665708 1608.800359 1015.582334 1626.568670 1025.646177 1645.324285 C1041.385435 1674.656316 1055.393369 1704.918768 1065.433286 1736.792791 C1070.640928 1753.325506 1075.459165 1769.983221 1080.291319 1786.631414 C1084.383604 1800.730291 1088.091856 1814.874578 1090.584776 1829.428533 C1092.969297 1843.350408 1097.164365 1856.963445 1098.348936 1871.151190 C1098.828062 1876.889959 1099.153867 1882.711492 1100.410581 1888.301824 C1104.302915 1905.615545 1106.454404 1923.082586 1106.319151 1940.828924 C1106.311460 1941.828924 1106.039732 1942.929510 1106.359800 1943.813543 C1110.991636 1956.606512 1105.717466 1970.385565 1110.318052 1983.165594 C1109.180112 2009.206854 1111.554868 2035.240545 1108.718687 2061.368719 C1106.729795 2079.690984 1106.916074 2098.289861 1104.405210 2116.671697 C1102.622495 2129.722479 1102.280210 2142.987127 1100.159605 2155.970770 C1097.482725 2172.361150 1093.590635 2188.551336 1090.366392 2204.856024 C1089.674986 2208.352117 1089.995542 2210.831365 1095.133604 2210.755682 C1117.125425 2210.430731 1139.128477 2210.825262 1161.118223 2210.432195 C1165.240903 2210.358465 1170.229917 2208.930242 1173.245664 2206.313787 C1181.489439 2199.161688 1189.420469 2191.492498 1196.505308 2183.199041 C1206.885923 2171.047674 1216.878843 2158.503729 1226.204038 2145.528143 C1238.330503 2128.655096 1251.022886 2112.378729 1267.973814 2100.103826 C1278.980161 2092.133367 1285.580869 2090.476873 1296.060850 2096.823065 C1300.837827 2099.715643 1304.434629 2104.678289 1308.283628 2108.956609 C1315.557310 2117.041570 1318.532774 2127.498602 1321.652891 2137.366033 C1326.033628 2151.220770 1332.943540 2164.371893 1334.400694 2179.135565 C1334.455625 2179.690740 1335.742857 2180.529852 1336.424986 2180.500799 C1337.076963 2180.473699 1337.779600 2179.559149 1338.304624 2178.909246 C1351.211607 2162.931951 1364.206236 2147.023992 1376.951841 2130.918768 C1386.246397 2119.173895 1395.628233 2107.459783 1404.204893 2095.195867 C1413.540708 2081.846990 1424.121153 2070.210272 1438.136778 2061.494695 C1446.148985 2056.512762 1454.345396 2057.100164 1460.914243 2061.015203 C1469.059385 2065.870428 1475.614683 2073.832586 1478.143613 2083.450506 C1480.569151 2092.674627 1482.607725 2101.738104 1480.769956 2111.995672 C1478.217954 2126.240057 1475.318418 2140.193670 1470.425108 2153.804022 C1469.057188 2157.608465 1468.547056 2161.877752 1468.539732 2165.935613 C1468.536924 2167.493963 1470.898252 2170.256902 1472.413633 2170.428533 C1485.440977 2171.903875 1497.917905 2170.185857 1506.540464 2159.146063 C1512.479917 2151.541326 1517.918394 2143.303777 1522.115903 2134.639471 C1527.606138 2123.306707 1532.553892 2111.539373 1536.101255 2099.478826 C1541.116636 2082.427068 1545.866880 2065.254461 1548.500425 2047.548895 C1549.806577 2038.768377 1551.611265 2030.097967 1552.513853 2021.202703 C1553.723081 2009.286199 1557.505796 1997.564275 1558.045591 1985.661443 C1558.899839 1966.823065 1560.703062 1948.101141 1562.122984 1929.324774 C1563.760679 1907.671453 1560.678403 1885.841619 1564.108335 1864.144598 C1564.871763 1859.314275 1562.622984 1854.082586 1562.380552 1849.005926 C1561.328062 1826.966131 1563.942808 1804.866277 1560.506773 1782.817693 C1558.861753 1772.259344 1559.732847 1761.405584 1558.812681 1750.638494 C1557.435972 1734.535223 1556.922544 1718.382391 1554.453306 1702.324285 C1552.452818 1689.314520 1551.703306 1676.114813 1550.302671 1663.009832 C1549.042661 1651.222967 1547.676450 1639.446844 1546.306577 1627.672186 C1545.679624 1622.285955 1545.184263 1616.866277 1544.186216 1611.544744 C1541.698667 1598.278631 1538.823911 1585.084295 1536.365415 1571.813055 C1534.749937 1563.092840 1534.333921 1554.090399 1532.065122 1545.564275 C1527.564390 1528.650701 1524.640806 1511.370916 1520.121519 1494.514715 C1513.795347 1470.919378 1506.103452 1447.690618 1499.006040 1424.301824 C1496.759458 1416.898260 1493.908506 1409.602972 1492.506284 1402.040716 C1491.232481 1395.170843 1491.607481 1394.926092 1484.022886 1394.580511 C1469.301450 1393.909979 1454.619444 1395.310735 1439.797056 1392.997015 C1427.912168 1391.141790 1416.190733 1388.354437 1404.320249 1386.829290 C1385.561948 1384.419012 1367.764707 1378.112127 1349.469175 1373.987249 C1338.056821 1371.414251 1326.507871 1366.916204 1315.361509 1362.472357 C1285.617735 1350.614935 1255.963682 1338.496282 1226.606138 1325.718084 C1204.851621 1316.249090 1183.606016 1305.608709 1162.156431 1295.441839 C1149.338926 1289.366399 1136.528135 1283.274481 1123.781065 1277.053167 C1105.218076 1267.992742 1086.454160 1259.429266 1067.046323 1252.286932 C1051.384824 1246.523382 1035.920347 1240.218572 1019.549619 1236.605413 C1007.349058 1233.912664 995.771421 1228.967474 983.016294 1228.055975 C974.045835 1227.415106 965.305601 1223.441717 956.340391 1222.869695 C943.141050 1222.027410 930.025938 1219.088567 917.019590 1219.091375 C900.240659 1219.095037 883.599912 1216.750555 866.646543 1218.165106 C848.896421 1219.646307 831.093565 1220.684515 813.310972 1222.151067 C799.527647 1223.287664 786.323301 1226.619451 773.062803 1229.351751 C755.562070 1232.957464 738.745542 1239.760442 721.452207 1244.526190 C699.350278 1250.617132 678.427061 1259.732244 657.488950 1268.754705 C645.317564 1273.999456 633.799497 1280.742986 621.876646 1286.585760 C606.647276 1294.048895 591.442075 1301.587591 575.971006 1308.523626 C563.054136 1314.314275 549.730283 1319.190740 536.666685 1324.663274 C531.458433 1326.845037 526.156797 1328.953558 522.328306 1333.547918 C517.751157 1339.041326 513.148618 1344.542791 508.176450 1349.671819 C497.426817 1360.760687 488.560484 1373.244085 479.883115 1385.953802 C461.970213 1412.189886 447.419370 1440.332708 435.019773 1469.375311 C424.023985 1495.129827 415.562681 1521.984197 406.418760 1548.503362 C402.484495 1559.913397 398.868406 1571.547186 396.509519 1583.358953 C393.316953 1599.345525 388.726865 1614.976873 385.969175 1631.111150 C382.784666 1649.741766 378.162412 1668.134588 376.302305 1687.018133 C375.737547 1692.751043 375.174924 1698.495428 374.278379 1704.181951 C372.409177 1716.039129 369.770994 1727.800115 368.449705 1739.711981 C366.595029 1756.432440 365.422666 1773.240057 364.388670 1790.036932 C363.524351 1804.077703 363.568845 1818.161932 362.850401 1832.224676 C361.832090 1852.157781 361.287534 1872.261541 363.919492 1892.411932 C366.029234 1908.563787 363.994566 1925.166815 366.177000 1941.542791 C367.592710 1952.165106 366.830015 1963.110174 368.643552 1973.634588 C369.640562 1979.420477 369.617796 1985.158270 370.448484 1990.840399 C371.993772 2001.409979 374.528562 2011.831121 376.265257 2022.377752 C378.482908 2035.844549 379.705320 2049.501775 382.474058 2062.844793 C385.887205 2079.293524 389.839536 2095.686834 394.672727 2111.769354 C400.620725 2131.561346 407.689085 2151.017889 414.377073 2170.583807 C414.866331 2172.015203 416.197141 2173.158514 417.136533 2174.435613 C418.196958 2173.329412 419.703184 2172.407781 420.248960 2171.088690 C425.664610 2158.000799 431.720213 2145.096990 435.932859 2131.621404 C438.590513 2123.119940 443.543333 2119.281561 451.460996 2118.744451 C459.032346 2118.230291 465.209226 2124.036932 468.348875 2133.009100 C470.179075 2138.239080 472.294248 2143.370428 474.322202 2148.530096 C481.644834 2167.160223 488.967344 2185.790350 496.334898 2204.402654 C497.580869 2207.550359 498.755064 2210.794256 500.536314 2213.633856 C501.423399 2215.048406 503.540464 2216.309149 505.221738 2216.484930 C509.178037 2216.898260 513.413511 2217.420232 517.163999 2216.453924 C525.532652 2214.297918 533.869688 2212.568426 542.545347 2212.593572 C548.266538 2212.610174 550.182066 2210.740545 548.197446 2205.855291 C542.457578 2191.726385 542.175596 2176.469305 538.614317 2161.883367 C535.236997 2148.050115 534.011289 2133.651678 532.401914 2119.438055 C530.695371 2104.368231 529.462217 2089.237371 528.377988 2074.107244 C527.515318 2062.067693 527.220152 2049.923162 526.846494 2037.929266 C525.911314 2007.926336 527.614683 1977.839422 528.398130 1947.789861 C528.452207 1945.716863 529.651426 1943.674139 530.318052 1939.617254 M578.318052 1811.617254 C577.126768 1822.933172 574.402280 1834.132147 571.763731 1844.995916 C567.341489 1863.204168 566.177183 1881.784002 562.541807 1900.027899 C560.041563 1912.575018 559.342710 1925.520330 558.401060 1938.328924 C557.369566 1952.357977 556.765318 1966.428777 556.385069 1980.492254 C556.060728 1992.482732 555.989439 2004.499578 556.400083 2016.484441 C556.927549 2031.876775 555.448789 2047.226385 557.983701 2062.709539 C560.242368 2076.504949 559.540708 2090.773504 560.376646 2104.819402 C560.678770 2109.897772 561.717222 2114.928777 562.301206 2119.994940 C563.036924 2126.376775 563.292905 2132.835760 564.401792 2139.148016 C566.081358 2148.708318 568.473569 2158.141180 570.277891 2167.682440 C572.447446 2179.154363 574.235410 2190.697820 576.359922 2202.178533 C577.173765 2206.575506 579.153623 2209.255438 584.655576 2208.751775 C596.671934 2207.650945 608.750669 2206.835516 620.812559 2206.708074 C648.140440 2206.419256 675.473447 2206.617254 702.804380 2206.617254 C705.137510 2206.617254 707.506040 2206.877020 709.796690 2206.565252 C715.181089 2205.832098 717.461851 2202.424383 716.138120 2197.448553 C715.580991 2195.353826 714.450498 2193.298895 714.389707 2191.202215 C713.499448 2160.486883 715.571592 2129.755193 712.535093 2099.019598 C710.401182 2077.419256 712.885557 2055.649481 710.753721 2033.832586 C708.323301 2008.958318 710.756528 1983.782537 708.613096 1958.685125 C706.255674 1931.083807 709.482847 1903.292791 706.652280 1875.512029 C704.218320 1851.625311 707.185117 1827.459295 704.626524 1803.348211 C702.161680 1780.121404 703.987608 1756.627020 702.853452 1733.189520 C700.435606 1683.221502 700.983335 1633.109930 700.321958 1583.057195 C700.291196 1580.724188 700.355161 1578.389959 700.299863 1576.058172 C700.277525 1575.110174 700.054380 1574.167059 699.922544 1573.221746 C698.979795 1573.761297 697.864072 1574.127264 697.120542 1574.867010 C687.663877 1584.276190 678.923399 1594.214666 670.696714 1604.817205 C655.812559 1623.999822 643.003233 1644.272772 631.963194 1665.844061 C621.268247 1686.740789 611.477232 1707.916082 603.494932 1730.068426 C597.088316 1747.847723 591.005430 1765.634344 586.247617 1783.915106 C583.991514 1792.583318 580.984800 1801.055975 578.318052 1811.617254 M858.318052 2041.617254 C858.984678 2044.340643 860.060239 2047.036688 860.247007 2049.792547 C861.039976 2061.502508 860.511778 2073.178533 861.892881 2084.994940 C864.136778 2104.193426 863.629087 2123.711248 864.324522 2143.093084 C864.960264 2160.811102 865.701719 2178.524969 866.295469 2196.244207 C866.568174 2204.380926 866.550718 2204.568914 874.695982 2204.598211 C892.022153 2204.660467 909.351865 2204.429022 926.673765 2204.708807 C933.736997 2204.822820 940.773008 2206.278875 947.841611 2206.512029 C953.368223 2206.694647 955.385191 2203.744940 954.308042 2198.346990 C953.696104 2195.280096 952.575254 2192.258367 952.386533 2189.173162 C951.385069 2172.805731 952.696226 2156.464910 950.732603 2139.976141 C948.409238 2120.466619 950.850401 2100.613348 948.607359 2080.845037 C946.312803 2060.621160 949.401182 2040.146795 946.657407 2019.685125 C944.311460 2002.189764 946.950132 1984.330145 944.641660 1966.538397 C942.282163 1948.353338 944.837217 1929.868231 942.716001 1911.385320 C940.170225 1889.202947 943.607847 1866.665350 940.559751 1844.253240 C938.401182 1828.382391 940.685117 1812.246649 938.760923 1796.081365 C936.479307 1776.913641 938.617246 1757.383856 936.593809 1737.956854 C934.380918 1716.711736 936.947446 1695.271795 934.729429 1673.797430 C932.264951 1649.935613 932.952329 1625.745428 932.340757 1601.696600 C932.188413 1595.702947 932.192442 1589.698553 932.347593 1583.704900 C932.577085 1574.841619 930.823301 1567.990545 922.871397 1561.582342 C904.620542 1546.874212 885.063413 1534.876043 863.202207 1526.762884 C855.370664 1523.856268 846.937070 1522.543890 838.743711 1520.653875 C835.543028 1519.915594 833.905454 1520.910467 834.244077 1524.772283 C835.210874 1535.801214 834.182798 1546.801580 835.883482 1557.990057 C838.030454 1572.115789 836.021055 1586.681463 838.051450 1601.115789 C840.003111 1614.991277 837.762388 1629.138250 839.964658 1643.287664 C842.061826 1656.760809 839.735410 1670.664861 842.063291 1684.430731 C843.953184 1695.606512 842.330015 1707.106512 843.900449 1718.602606 C845.926694 1733.435125 843.929502 1748.645086 846.079038 1763.732732 C848.009458 1777.283270 845.592832 1791.091619 847.966245 1804.914129 C850.045713 1817.024969 848.067442 1829.600897 850.025571 1842.056219 C852.044614 1854.899236 850.100034 1868.057928 851.916319 1881.221502 C854.099790 1897.045477 851.467344 1913.284246 854.107114 1929.353094 C855.892759 1940.223211 854.240537 1951.361883 855.918150 1962.536443 C858.191465 1977.679510 857.814146 1993.240545 858.261045 2008.631170 C858.560728 2018.951727 858.318052 2029.287908 858.318052 2041.617254 M806.317930 1567.617254 C805.651304 1555.227850 804.768491 1542.845159 804.384580 1530.446966 C804.060239 1519.975164 803.016782 1518.768255 792.580259 1520.689398 C788.960996 1521.355657 785.524839 1522.961736 781.954649 1523.957708 C765.462949 1528.557684 749.965513 1535.226385 735.314024 1544.241277 C730.536680 1547.180731 727.951231 1549.623602 728.242002 1555.348943 C729.209287 1574.389715 728.079404 1593.409002 729.922422 1612.546941 C732.480161 1639.107732 729.339414 1665.918524 731.972471 1692.703436 C734.517637 1718.593084 731.171079 1744.758856 734.019590 1770.862859 C736.444395 1793.083563 733.944028 1815.556951 735.866270 1838.031316 C738.252500 1865.927557 735.640806 1894.097234 738.084409 1922.173162 C740.313535 1947.785467 737.670103 1973.544500 739.844663 1999.353582 C742.110288 2026.241277 740.808653 2053.416570 742.029356 2080.487127 C743.817930 2120.155096 743.759092 2159.909979 744.178648 2199.631170 C744.229795 2204.467352 746.176939 2204.700994 749.915220 2204.676336 C769.245054 2204.549139 788.576353 2204.617254 807.907041 2204.617254 C815.905943 2204.617254 823.907774 2204.485906 831.902647 2204.667547 C836.515073 2204.772527 838.840757 2202.927313 838.275449 2198.280828 C837.819273 2194.531805 836.594053 2190.850897 836.386655 2187.101873 C835.554014 2172.055975 835.060850 2156.991522 834.295713 2141.941473 C833.597959 2128.220770 834.968076 2114.545965 832.691587 2100.712957 C830.642515 2088.262029 832.579893 2075.336004 830.565488 2062.569158 C828.692442 2050.699041 830.230405 2038.550115 828.769956 2026.387274 C826.705869 2009.198553 829.037168 1991.632391 826.477598 1974.253729 C824.966123 1963.991522 826.319028 1953.560369 824.719663 1943.048895 C822.465757 1928.235174 823.059873 1912.995916 822.295835 1897.945867 C821.599424 1884.224920 822.965269 1870.549871 820.690977 1856.717352 C818.643858 1844.265691 820.581846 1831.340154 818.565733 1818.573309 C816.691343 1806.703680 818.181821 1794.550115 816.785703 1782.392156 C814.849302 1765.527899 816.771421 1748.300848 814.448057 1731.263494 C812.999570 1720.641668 814.294736 1709.897772 812.771055 1699.050359 C810.782774 1684.897283 812.471128 1670.324041 810.508237 1655.922674 C808.837339 1643.663641 810.299375 1631.225652 808.779844 1618.725897 C806.812803 1602.543768 809.120176 1585.918768 806.317930 1567.617254 M1044.318052 1767.617254 C1044.317686 1766.283514 1044.691587 1764.812322 1044.259336 1763.637518 C1039.685972 1751.208074 1034.497251 1738.982977 1030.429746 1726.394109 C1023.951353 1706.343572 1014.283018 1687.709783 1005.210752 1668.871160 C998.755186 1655.466131 990.195860 1643.050359 982.257871 1630.392400 C977.247251 1622.402654 971.663877 1614.771551 966.300474 1607.004949 C965.692564 1606.124334 964.845396 1605.409002 964.109190 1604.617254 C963.512144 1605.548406 962.575620 1606.418524 962.395567 1607.424383 C962.106626 1609.038641 962.257017 1610.745428 962.327818 1612.408270 C962.883848 1625.466131 962.218198 1638.465887 963.954160 1651.613836 C966.310850 1669.462957 963.884092 1687.611883 965.908018 1705.763250 C968.419248 1728.284246 965.121763 1751.150945 968.075132 1773.895818 C970.180601 1790.110418 967.974790 1806.578436 969.892027 1823.067449 C972.122129 1842.247381 969.968198 1861.771795 972.052549 1881.196600 C974.260679 1901.774481 971.161192 1922.568426 973.983823 1943.362371 C976.358457 1960.856024 973.629087 1978.718328 975.991758 1996.512274 C978.317442 2014.024969 976.262388 2031.855535 977.869199 2049.661688 C980.265684 2076.219793 979.619077 2103.050359 980.327573 2129.763250 C980.947813 2153.146551 981.651548 2176.527410 982.316953 2199.909490 C982.326353 2200.242498 982.331724 2200.576482 982.316099 2200.909002 C982.115903 2205.161199 984.393247 2206.736639 988.363950 2206.632635 C991.360899 2206.554266 994.361387 2206.617254 997.360288 2206.617254 C1007.023496 2206.617254 1017.073301 2204.949285 1026.243589 2207.075506 C1035.849546 2209.302557 1045.142271 2207.659246 1054.514707 2208.578436 C1058.847227 2209.002996 1061.076109 2205.888982 1062.205503 2202.462225 C1063.377378 2198.906316 1063.737608 2195.067449 1064.302549 2191.329656 C1066.341856 2177.836004 1067.968076 2164.268865 1070.408384 2150.849188 C1073.331358 2134.775701 1076.336362 2118.751775 1076.318296 2102.336736 C1076.316709 2101.003729 1075.795225 2099.332586 1076.403257 2098.393133 C1080.161314 2092.587225 1077.600645 2086.222967 1078.301939 2080.171453 C1079.041196 2073.791815 1080.368223 2067.378240 1080.198545 2061.012274 C1079.273496 2026.304266 1082.487486 1991.546453 1078.460386 1956.858709 C1076.918272 1943.575018 1076.983213 1930.104070 1076.322202 1916.718328 C1076.289365 1916.053533 1076.412412 1915.370184 1076.304258 1914.721502 C1073.655210 1898.829168 1070.954649 1882.945623 1068.327573 1867.049871 C1066.264097 1854.564031 1065.082700 1841.869940 1062.092588 1829.614080 C1057.096494 1809.136541 1050.969175 1788.934881 1044.318052 1767.617254 M1016.318052 1205.617254 C1026.004819 1207.970770 1036.062193 1209.350897 1045.304746 1212.870794 C1067.734068 1221.412420 1090.785825 1228.441717 1112.236753 1239.476019 C1116.882993 1241.866033 1121.859434 1243.607610 1126.553770 1245.912664 C1131.493711 1248.338445 1134.148862 1246.237005 1136.122251 1241.840032 C1140.535947 1232.006292 1145.137388 1222.256292 1149.506773 1212.403143 C1159.572813 1189.703558 1167.707334 1166.547308 1172.809873 1142.001043 C1176.870664 1122.466741 1180.402158 1103.174871 1180.321348 1083.248480 C1180.281919 1073.526922 1180.273618 1073.601019 1171.037901 1070.597112 C1161.062925 1067.352606 1151.180845 1063.819769 1141.185117 1060.642523 C1114.551694 1052.176946 1087.540220 1045.089788 1060.368833 1038.572332 C1050.413023 1036.184271 1040.636533 1033.044988 1030.674863 1030.685003 C1020.916685 1028.373113 1011.084409 1026.244329 1001.179624 1024.715276 C989.804136 1022.959295 978.246885 1022.358709 966.889097 1020.514471 C952.512754 1018.180120 938.124326 1016.716985 923.556699 1016.520208 C917.495298 1016.438299 911.456724 1015.160955 905.386289 1014.743841 C904.422544 1014.677557 902.614439 1016.171819 902.459165 1017.145818 C902.044859 1019.744940 901.980772 1022.505560 902.382139 1025.108831 C903.534116 1032.579778 906.239683 1040.029607 906.093076 1047.443548 C905.558530 1074.485418 908.113584 1101.549017 904.588194 1128.607244 C903.150571 1139.640325 900.880186 1150.213445 897.324888 1160.652776 C894.835508 1167.962225 892.400083 1175.311346 890.508360 1182.786443 C890.094053 1184.423650 888.019102 1188.374944 893.018125 1188.653631 C902.743101 1189.195501 912.454038 1189.988714 922.175962 1190.592107 C924.830869 1190.757024 927.837461 1189.813909 930.111997 1190.756536 C939.950132 1194.833563 950.478819 1191.303045 960.577085 1194.342230 C971.069028 1197.499944 982.227964 1198.426824 993.083067 1200.396673 C1000.505552 1201.743841 1007.907163 1203.206365 1016.318052 1205.617254 M1472.318052 1217.617254 C1462.970274 1225.631658 1453.991514 1234.132269 1444.200742 1241.563177 C1421.226011 1259.000433 1395.885191 1272.848333 1371.568296 1288.248480 C1362.669859 1293.884100 1353.361631 1298.910345 1344.032529 1303.820013 C1331.739072 1310.289373 1319.233701 1316.355535 1306.844785 1322.644720 C1305.899839 1323.124334 1305.155576 1323.998968 1304.318052 1324.689886 C1305.204038 1325.332342 1306.010557 1326.153143 1306.988462 1326.588934 C1314.583921 1329.973455 1321.983823 1334.009832 1329.870542 1336.489202 C1360.763486 1346.201238 1391.631651 1355.685125 1423.778257 1361.184515 C1439.669859 1363.903265 1455.691953 1363.146673 1471.435728 1366.361273 C1477.886045 1367.678411 1484.838071 1365.867132 1491.602354 1365.013250 C1503.842710 1363.467962 1516.391538 1365.224188 1528.742612 1362.734686 C1535.332212 1361.406561 1542.285825 1361.862005 1548.859800 1360.484197 C1559.192075 1358.318426 1569.432310 1355.584417 1579.549497 1352.550482 C1597.016538 1347.312566 1614.449888 1341.928655 1631.722593 1336.089300 C1643.676939 1332.047918 1655.440122 1327.385565 1667.101743 1322.549383 C1679.332212 1317.477361 1691.509458 1312.212225 1703.386411 1306.373113 C1711.732603 1302.269842 1719.486265 1296.974798 1727.593687 1292.369329 C1747.051206 1281.316473 1765.233823 1268.423406 1781.044859 1252.629705 C1792.322202 1241.364324 1803.000181 1229.363226 1812.806089 1216.800970 C1821.462583 1205.711248 1828.564634 1193.405218 1836.244077 1181.565496 C1836.585630 1181.038641 1836.113218 1179.478582 1835.528989 1179.005926 C1835.004331 1178.581365 1833.566831 1178.660345 1832.950620 1179.101629 C1831.613950 1180.059271 1830.214292 1181.201971 1829.419370 1182.598699 C1823.641050 1192.752264 1813.744566 1198.286321 1804.945493 1205.175604 C1794.002866 1213.742742 1781.826841 1219.770452 1769.064878 1224.855779 C1760.768003 1228.161932 1752.665464 1232.352606 1744.060239 1234.400335 C1728.853941 1238.018743 1713.828550 1242.295232 1698.335874 1245.042425 C1681.839292 1247.967474 1665.332944 1249.593328 1648.744077 1250.454412 C1631.690855 1251.339544 1614.985288 1248.067571 1598.184507 1244.942815 C1581.839048 1241.903021 1565.628111 1238.532659 1550.016782 1233.087103 C1531.128843 1226.498602 1512.594419 1218.860174 1494.073545 1211.269109 C1481.319639 1206.041570 1481.446470 1205.732244 1472.318052 1217.617254 M841.318052 1190.617254 C844.705503 1189.950628 848.075742 1188.834661 851.483701 1188.703924 C860.564756 1188.355657 860.284605 1188.454900 862.394834 1179.732732 C864.725278 1170.099188 867.751646 1160.636175 870.287290 1151.049383 C872.436094 1142.925359 875.399595 1134.821356 876.091611 1126.548650 C877.511655 1109.570501 877.894956 1092.489446 878.192197 1075.441839 C878.303281 1069.070989 876.752378 1062.689275 876.368955 1056.287908 C875.687559 1044.909246 876.944273 1033.531805 874.705991 1022.075872 C873.722349 1017.041570 872.544981 1016.487005 868.275816 1016.537420 C844.893247 1016.813909 821.482114 1015.946478 798.170957 1018.618597 C791.814878 1019.347234 785.209409 1019.222723 779.147642 1020.974798 C746.788877 1030.327703 714.193174 1038.812200 682.453306 1050.366033 C660.985654 1058.180486 640.168882 1067.301702 619.390684 1076.635320 C615.724668 1078.282049 614.081968 1080.694280 614.140073 1085.301214 C614.346494 1101.656439 619.552427 1116.987737 623.452695 1132.500921 C628.646909 1153.160345 634.418638 1173.706365 642.231992 1193.623968 C647.584043 1207.267400 655.827573 1218.946478 664.901670 1230.191229 C666.744688 1232.475164 668.036192 1232.728338 671.273618 1231.075628 C678.350645 1227.462713 686.159361 1225.253973 693.725401 1222.633856 C719.842222 1213.589178 746.523985 1206.695867 773.375791 1200.110296 C795.187925 1194.760687 817.059751 1191.849676 841.318052 1190.617254 M1396.318052 1239.617254 C1397.570371 1238.617254 1398.741026 1237.488226 1400.087339 1236.636785 C1417.679136 1225.511907 1433.923032 1212.658514 1449.332334 1198.690984 C1453.078306 1195.295355 1452.312315 1193.739690 1447.859800 1192.583440 C1446.084287 1192.122381 1444.415708 1191.259832 1442.683164 1190.621404 C1434.592222 1187.640203 1426.461729 1184.763128 1418.409727 1181.680608 C1405.476011 1176.729192 1392.562315 1171.722357 1379.696836 1166.596380 C1365.976377 1161.129705 1351.954038 1156.250066 1338.716245 1149.778875 C1312.371397 1136.900091 1286.479551 1123.094915 1260.388853 1109.695257 C1246.659849 1102.644232 1232.929746 1095.594305 1219.153623 1088.636053 C1211.647764 1084.845159 1210.878355 1085.415838 1210.246519 1093.510198 C1210.031309 1096.266790 1208.416196 1098.958685 1208.418028 1101.679510 C1208.424986 1112.646795 1206.356382 1123.280218 1204.444395 1134.015936 C1201.594663 1150.017156 1197.451353 1165.657293 1192.700376 1181.143987 C1189.538267 1191.451482 1186.179868 1201.750311 1182.033994 1211.687933 C1178.834287 1219.357000 1174.235654 1226.438299 1170.328184 1233.817693 C1166.281065 1241.461126 1162.547422 1249.282659 1158.202085 1256.750066 C1156.525449 1259.631414 1156.820860 1261.639471 1159.470396 1262.527654 C1177.698789 1268.638982 1193.801328 1279.284490 1211.442075 1286.626775 C1227.350156 1293.247869 1243.742124 1298.971990 1258.911314 1306.999212 C1267.451841 1311.518621 1273.127256 1310.241888 1280.447813 1305.742864 C1289.634336 1300.096990 1299.660093 1295.837103 1309.083311 1290.550604 C1318.038389 1285.526800 1326.593809 1279.795477 1335.486997 1274.655462 C1347.289976 1267.833685 1359.273740 1261.325384 1371.134702 1254.602850 C1379.235777 1250.011419 1387.259702 1245.284002 1396.318052 1239.617254 M447.318052 1312.617254 C464.923460 1314.452703 481.835874 1309.906927 498.747251 1306.396917 C508.124937 1304.450872 516.987119 1300.831976 524.589780 1293.816107 C531.383970 1287.546209 539.604063 1281.007391 550.039243 1288.525091 C550.801450 1289.074407 552.509946 1288.310247 553.778623 1288.156683 C553.196226 1287.214666 552.774839 1286.099554 551.993223 1285.371404 C550.851011 1284.307562 549.547666 1282.954046 548.143003 1282.712591 C540.898618 1281.466375 534.960996 1277.484686 528.722105 1274.054388 C505.940611 1261.528631 482.996763 1249.294012 460.336912 1236.553045 C441.929258 1226.202703 423.612974 1215.651190 405.678098 1204.509588 C389.171079 1194.255071 372.711973 1183.767645 357.304685 1171.980291 C351.669920 1167.669500 346.554502 1165.348699 340.456113 1166.780706 C323.534910 1170.753729 306.890318 1175.910467 289.957944 1179.828191 C274.968626 1183.296209 259.759336 1185.837591 244.606260 1188.560613 C238.950254 1189.577215 232.861692 1189.018987 227.532529 1190.831609 C219.182798 1193.671331 210.533079 1193.589788 202.112730 1194.318182 C188.398679 1195.504339 174.789732 1193.244940 161.497312 1189.054632 C157.667600 1187.847234 153.092832 1189.003118 148.859617 1189.075628 C151.519956 1191.430364 154.184385 1193.780462 156.836912 1196.143987 C157.333433 1196.586248 157.739866 1197.136419 158.259946 1197.544744 C170.572874 1207.209417 182.231138 1217.910833 195.388853 1226.243963 C210.998472 1236.130193 227.266965 1245.095037 244.580320 1252.079412 C262.838316 1259.445135 280.657652 1267.902288 298.638120 1275.950872 C321.509092 1286.188909 344.933347 1294.517034 369.248228 1301.002996 C394.324278 1307.691961 419.456846 1312.030462 447.318052 1312.617254 M459.318052 1136.617254 C451.821775 1138.617254 444.361387 1140.765691 436.821653 1142.585516 C422.275083 1146.096624 407.654295 1149.304510 393.135435 1152.923406 C390.219785 1153.650213 387.620908 1155.647649 384.876035 1157.059271 C387.248960 1158.470770 389.596128 1159.928533 392.006467 1161.273138 C393.073789 1161.868353 394.396238 1162.049871 395.387022 1162.732366 C415.424314 1176.536321 436.609495 1188.460149 457.338682 1201.137151 C480.138120 1215.080145 503.834776 1227.275579 527.145322 1240.200506 C546.530943 1250.949285 565.855650 1262.067449 587.813413 1267.409979 C592.040952 1268.438665 594.938291 1269.208440 598.177427 1265.901678 C599.636778 1264.411688 601.839903 1263.611150 603.772764 1262.630560 C612.850401 1258.025579 621.997984 1253.556829 631.030088 1248.865301 C639.330869 1244.553655 639.496275 1243.732488 633.692075 1237.018987 C623.525571 1225.259832 617.172788 1211.404852 612.426206 1196.884954 C605.992246 1177.203680 599.929990 1157.380071 594.475523 1137.407903 C591.585508 1126.825872 590.300718 1115.803655 588.327573 1104.973577 C587.648374 1101.245550 588.293760 1096.458074 586.184995 1093.993353 C582.704527 1089.925604 580.060361 1096.252264 576.602964 1096.622381 C575.336973 1096.757757 573.944151 1096.659002 572.834776 1097.163274 C548.077085 1108.420843 522.259702 1116.691351 496.322446 1124.680608 C484.546079 1128.307928 472.979673 1132.617254 459.318052 1136.617254 z"/><path class="selected"  fill="#000000" opacity="1.000000" stroke="none" 
 	d="
M748.318052 320.617254 C747.926817 310.845037 751.792905 302.869085 755.032407 295.421209 C762.698179 277.797369 772.642149 261.296941 786.426450 247.428838 C797.804258 235.981756 808.952695 224.317815 824.151914 217.806219 C836.028745 212.718023 847.855283 208.260198 861.324400 208.391607 C878.741026 208.561529 895.475278 210.898321 912.030943 216.459417 C928.430845 221.968145 940.879087 231.885748 950.324644 246.059515 C957.207944 256.388433 959.036924 268.439642 962.655210 279.965460 C965.636045 289.460211 961.565244 299.438299 966.318052 308.397466 C963.008604 317.934332 965.356504 327.898443 964.109068 337.524908 C963.162778 344.828497 960.076475 351.829168 958.370664 359.065557 C955.246153 372.319830 949.075010 383.918890 941.199644 394.980840 C934.328916 404.631719 925.792539 412.112493 915.811582 417.999334 C905.806944 423.900030 895.004697 428.201360 883.241758 428.521551 C868.594297 428.920232 853.894712 428.011236 839.279356 428.804022 C827.016050 429.469305 816.184751 426.116155 805.490415 420.880315 C799.972593 418.178838 794.211362 415.930914 788.442930 413.794439 C777.176694 409.621710 770.037046 400.424871 762.880552 391.799200 C755.569273 382.987066 749.878233 372.820440 747.812193 361.141912 C747.489927 359.320318 746.412290 357.565191 746.386533 355.769354 C746.243955 345.777044 746.240293 335.780340 746.406919 325.788763 C746.430235 324.388067 747.651426 323.007269 748.318052 320.617254 M809.318052 264.617254 C799.028745 275.870855 790.129209 288.275152 784.095029 302.159490 C777.226499 317.963567 772.540342 334.132818 775.912046 352.334844 C778.796812 367.907781 786.955747 378.430792 799.366636 386.415106 C804.462095 389.693060 810.851133 390.886175 816.288633 393.723455 C825.171201 398.358343 834.449400 400.721014 844.433286 400.633123 C853.096616 400.556829 861.766050 400.425298 870.424009 400.653082 C896.967832 401.351385 914.684385 387.157659 925.953794 365.186773 C932.913755 351.617681 935.090635 335.895391 936.215269 320.523443 C937.257871 306.269964 935.998716 292.089544 932.318052 278.201544 C928.017637 261.975591 919.007017 249.966253 902.729551 243.921575 C893.377378 240.448736 884.018247 238.009039 873.936338 238.553838 C867.623350 238.894842 861.271543 238.464910 854.948423 238.694036 C852.496885 238.782842 850.048399 239.633733 847.646909 240.309515 C832.943906 244.447027 820.922422 252.902899 809.318052 264.617254 z"/><path class="selected"  fill="#000000" opacity="1.000000" stroke="none" 
 	d="
M1224.318052 534.617254 C1226.250181 520.959356 1228.929746 508.389654 1234.509092 496.877386 C1238.168150 489.327337 1243.048521 482.153753 1248.449155 475.705389 C1262.330869 459.129888 1280.149473 449.126409 1301.415708 444.447210 C1319.311704 440.509588 1335.779478 443.988775 1352.666441 449.627752 C1366.255186 454.165350 1377.687193 462.189092 1387.445982 471.423528 C1404.804502 487.848882 1415.131040 509.183538 1420.191465 532.576360 C1424.075742 550.532903 1423.140073 564.851629 1417.955747 581.888982 C1413.464658 596.648138 1406.519346 609.933294 1396.375059 622.017645 C1384.800352 635.805975 1370.274595 644.628851 1353.871519 649.562444 C1339.447935 653.900701 1324.272642 653.721136 1308.897276 650.910345 C1282.515562 646.087469 1263.398496 631.657537 1247.444151 611.048895 C1239.833311 601.217718 1233.990293 590.806463 1230.362486 579.091131 C1225.985288 564.955633 1223.060361 550.562566 1224.318052 534.617254 M1347.318052 620.617254 C1355.461973 620.364202 1361.251402 614.780828 1367.033018 610.489446 C1381.706236 599.598089 1389.542539 583.315496 1391.832334 566.089910 C1394.870664 543.234075 1390.367246 521.260320 1375.170347 502.244634 C1359.970518 483.225286 1341.709287 471.947759 1316.563047 472.456609 C1295.904722 472.874639 1280.404600 482.009771 1268.212583 497.780096 C1252.505918 518.096319 1251.458433 541.307684 1256.496275 565.110052 C1259.301206 578.362982 1265.639341 590.563909 1275.203672 600.222601 C1286.639097 611.771063 1299.519956 620.574529 1316.744199 623.121404 C1326.997007 624.637518 1336.049619 624.579534 1347.318052 620.617254 z"/><path class="selected"  fill="#000000" opacity="1.000000" stroke="none" 
 	d="
M363.818052 830.117254 C363.877256 814.430120 368.390379 800.451849 374.938902 787.032781 C383.401365 769.691351 394.296507 754.052923 406.498289 739.033148 C418.524290 724.229803 432.372984 711.723821 447.534116 700.533148 C459.969785 691.354192 474.521665 686.305364 489.719785 686.897405 C520.421445 688.093206 543.723936 708.455511 550.413511 737.654607 C552.186582 745.394232 555.035825 752.844427 554.345640 761.014227 C552.326475 784.917791 549.215513 808.668524 539.000791 830.633733 C535.077695 839.069769 528.852842 846.437933 523.653745 854.277288 C510.851011 873.581365 490.628355 883.841131 471.865598 895.528143 C464.483396 900.126409 455.335325 902.743841 445.880674 902.751653 C438.158689 902.758001 430.431882 903.889715 422.717588 904.630804 C409.828977 905.868841 399.155454 900.363714 389.691526 892.756292 C379.875303 884.866033 372.176694 874.987982 367.695371 862.966863 C366.617429 860.075384 364.762876 856.987615 365.044370 854.167669 C365.844785 846.146917 359.933286 838.714300 363.818052 830.117254 M481.318052 716.617254 C480.846983 717.088323 480.438902 717.876898 479.895811 717.984564 C459.605528 722.005682 446.114500 736.171697 433.647764 750.743475 C423.036619 763.146429 413.460264 776.752752 405.417844 790.954656 C395.428831 808.593694 388.845274 827.500311 394.215025 848.647405 C398.683347 866.244817 408.443296 874.617254 426.253111 874.617254 C430.250852 874.617254 434.385984 875.277288 438.217588 874.479437 C446.104551 872.837103 454.365659 871.512640 461.483335 868.033270 C470.145261 863.799261 478.383604 858.179876 485.743345 851.912786 C499.495908 840.202215 511.373594 826.757635 516.269468 808.693426 C519.201231 797.876653 522.580381 787.051702 524.034361 776.003484 C525.274961 766.577703 525.916807 756.335760 523.535825 747.323431 C518.517149 728.327215 503.986631 714.308660 481.318052 716.617254 z"/><path class="selected"  fill="#000000" opacity="1.000000" stroke="none" 
 	d="
M1073.818052 870.117254 C1062.218198 882.262151 1048.898008 891.170477 1033.773862 895.661077 C1019.983945 899.755438 1005.827451 901.854559 990.531553 899.286321 C976.084165 896.860540 963.236509 891.756536 951.733457 884.224310 C940.434629 876.825750 931.167783 866.382269 924.232725 854.211126 C916.368711 840.409857 912.287046 825.860418 909.773374 810.085149 C907.565855 796.230901 910.107969 783.200140 912.950864 770.658148 C915.815977 758.017645 922.132261 745.928167 930.480894 734.975042 C941.065122 721.088934 953.906187 710.175359 969.278257 703.125921 C985.728086 695.582220 1003.185484 691.988104 1021.965269 696.186224 C1030.222715 698.032171 1038.507139 699.776922 1046.278257 702.834417 C1052.560239 705.305975 1058.821470 708.891790 1063.793882 713.411443 C1074.538389 723.177557 1084.707944 733.485784 1091.624204 746.732977 C1102.479551 767.525457 1104.530698 789.877508 1101.885923 812.214056 C1099.684141 830.808660 1092.474546 848.381658 1079.299986 862.704656 C1077.390806 864.780340 1075.966611 867.301946 1073.818052 870.117254 M1052.318052 741.617254 C1044.908140 735.834173 1037.558042 730.063665 1028.211729 727.448553 C1012.027036 722.920110 996.514829 723.056829 980.807676 730.356390 C972.296323 734.311956 965.958311 740.178777 959.477354 746.397405 C945.176450 760.119817 939.187070 777.356512 938.464292 796.596014 C938.213316 803.278143 939.373716 810.065374 940.371763 816.732244 C942.997129 834.268011 952.211851 848.071844 966.100278 858.525091 C982.607481 870.949529 1001.175962 873.491033 1021.190733 868.708807 C1038.091856 864.670477 1051.236265 854.476019 1059.886778 840.731390 C1070.950986 823.151556 1077.800108 803.792181 1072.645811 781.622381 C1069.190244 766.758856 1062.904478 754.062811 1052.318052 741.617254 z"/><path class="selected"  fill="#000000" opacity="1.000000" stroke="none" 
 	d="
M1603.818052 1086.117254 C1591.460630 1092.060735 1579.115659 1096.341009 1566.302183 1098.376287 C1558.184019 1099.665716 1549.686704 1098.846136 1541.372739 1098.574285 C1516.651304 1097.766180 1495.242124 1088.836981 1475.772398 1073.511419 C1465.947446 1065.777654 1458.997251 1056.115911 1453.132017 1045.886907 C1447.965757 1036.876898 1443.804746 1026.717107 1444.305112 1015.634222 C1444.395078 1013.640691 1444.579404 1011.599188 1444.276182 1009.648748 C1442.065855 995.425482 1446.882993 982.302068 1452.677671 970.180853 C1458.677915 957.629827 1468.871763 947.552435 1479.733579 938.671209 C1489.444395 930.731268 1500.947935 925.743597 1512.595884 921.645086 C1520.505552 918.861517 1529.133482 917.988836 1537.509458 916.718572 C1541.414732 916.126165 1545.484556 916.646429 1549.479429 916.612615 C1581.568052 916.340765 1609.091734 926.817571 1631.368101 950.514837 C1640.189878 959.899358 1646.127378 970.639959 1650.374937 982.637274 C1655.105405 995.999090 1655.230161 1009.227117 1652.511900 1023.156927 C1646.828550 1052.279363 1629.296568 1071.680364 1603.818052 1086.117254 M1474.318174 999.617254 C1473.651426 1003.340399 1472.040098 1007.181341 1472.486631 1010.765814 C1474.150938 1024.124090 1479.408872 1035.986150 1488.669126 1046.021795 C1502.841978 1061.381292 1536.567075 1074.259710 1560.729673 1068.943426 C1576.336362 1065.509710 1590.377866 1060.615057 1603.485777 1051.054266 C1612.830503 1044.237982 1618.211607 1035.398260 1621.980650 1025.656927 C1625.258237 1017.185857 1627.266294 1008.304266 1624.759458 998.168035 C1621.129331 983.488958 1614.333433 971.282659 1602.505552 962.867010 C1589.512388 953.622503 1575.119566 946.369085 1558.318296 946.617254 C1548.524595 940.922552 1538.574644 946.304998 1529.153257 947.463079 C1519.771909 948.616155 1510.574400 953.952215 1502.048032 958.781561 C1487.007749 967.300604 1477.583433 980.403021 1474.318174 999.617254 z"/><path class="selected"  fill="#000000" opacity="1.000000" stroke="none" 
 	d="
M1270.318052 1876.617254 C1260.034727 1873.283758 1250.678648 1870.137518 1241.489439 1866.562078 C1233.172422 1863.325262 1224.651914 1860.285223 1216.986631 1855.838690 C1213.205625 1853.645330 1210.068296 1848.861395 1208.529722 1844.572088 C1204.564024 1833.515936 1201.032774 1822.219549 1198.485899 1810.761785 C1195.743467 1798.425115 1194.734068 1785.711492 1192.220152 1773.314031 C1188.501524 1754.975652 1190.739194 1736.521307 1190.444028 1718.134344 C1190.079038 1695.388006 1193.848692 1673.244940 1199.914610 1651.184881 C1203.709898 1637.382147 1207.608335 1623.653387 1213.482603 1610.768865 C1222.964414 1589.971502 1235.897276 1571.233465 1253.639707 1556.474676 C1264.709043 1547.267034 1277.572569 1539.950018 1291.474180 1537.177313 C1300.662778 1535.344549 1310.919614 1531.138006 1320.698179 1536.617254 C1345.999204 1537.907659 1365.081968 1551.232000 1382.759092 1567.909002 C1403.443662 1587.423162 1417.919370 1611.062322 1429.190366 1636.705633 C1438.189878 1657.181463 1445.024717 1678.391180 1448.603941 1700.715643 C1450.608457 1713.217352 1452.841856 1725.660223 1454.685361 1738.212713 C1457.592954 1758.012029 1455.585264 1777.708318 1456.165830 1797.428045 C1456.411924 1805.789617 1455.456602 1814.274236 1454.161558 1822.564520 C1453.206480 1828.677801 1449.389341 1833.607732 1444.447813 1837.501043 C1437.906675 1842.654363 1431.062803 1847.489080 1424.968320 1853.129705 C1415.082090 1862.280340 1403.176084 1867.640447 1390.995908 1872.589178 C1375.355772 1878.943426 1359.209165 1882.790350 1342.161802 1882.730291 C1335.442075 1882.706609 1328.569151 1885.174627 1322.024717 1884.378973 C1305.062559 1882.317205 1287.900083 1881.251531 1270.318052 1876.617254 M1403.318052 1754.617498 C1393.267881 1755.284002 1383.161680 1755.497137 1373.182066 1756.733221 C1360.959043 1758.247137 1348.899229 1761.412176 1336.656065 1762.288885 C1330.336240 1762.741766 1329.960752 1764.918279 1330.243101 1769.836981 C1330.763486 1778.902899 1330.859678 1787.915594 1331.956480 1797.028631 C1333.909483 1813.252996 1334.056333 1829.741277 1334.140562 1846.123602 C1334.180357 1853.869695 1336.504209 1855.505438 1343.558164 1854.532293 C1350.388120 1853.590154 1357.158994 1852.114080 1363.891294 1850.587713 C1387.535215 1845.226873 1407.337583 1833.382635 1422.964658 1814.817449 C1424.671201 1812.790106 1425.916563 1809.867254 1426.193662 1807.235174 C1427.178281 1797.884832 1428.151914 1788.481512 1428.171812 1779.096258 C1428.190244 1770.379949 1427.071714 1761.652410 1426.184629 1752.957098 C1426.095152 1752.080145 1424.054746 1750.624334 1423.076841 1750.742010 C1416.799497 1751.497381 1410.565977 1752.617254 1403.318052 1754.617498 M1274.318052 1769.617498 C1266.755186 1770.617498 1259.207212 1771.752752 1251.625425 1772.579656 C1243.943174 1773.417303 1236.211118 1773.803289 1228.533262 1774.673895 C1224.021421 1775.185125 1221.140684 1779.130193 1222.368955 1783.112859 C1226.401914 1796.188299 1227.703672 1809.858953 1231.777769 1823.027410 C1234.074155 1830.449774 1238.306455 1833.933172 1243.862730 1836.422674 C1252.532529 1840.307440 1261.649229 1843.354070 1270.804990 1845.950506 C1280.385435 1848.667791 1290.226743 1850.474676 1299.972105 1852.595770 C1303.326353 1853.325750 1304.708799 1852.094793 1304.380430 1848.399481 C1303.285215 1836.074285 1305.008237 1823.770574 1302.705137 1811.271307 C1300.304136 1798.239568 1300.604063 1784.642889 1300.504453 1771.287176 C1300.464292 1765.893865 1297.346738 1765.456854 1294.524229 1766.809393 C1288.172178 1769.853338 1281.695249 1768.006170 1274.318052 1769.617498 M1368.318052 1593.617254 C1363.180357 1589.146307 1358.414487 1584.127752 1352.820249 1580.329168 C1343.866270 1574.248846 1335.050230 1568.046453 1323.655943 1566.182195 C1319.316343 1565.472234 1318.437070 1566.811346 1318.489317 1569.262518 C1318.604429 1574.656316 1320.032896 1580.014959 1320.250425 1585.415106 C1321.084409 1606.101385 1321.714170 1626.796209 1322.288999 1647.491522 C1322.541441 1656.578436 1322.434873 1657.115545 1331.913267 1656.464422 C1341.061826 1655.836248 1350.097593 1653.722479 1359.230161 1652.671209 C1372.632993 1651.128484 1386.068662 1649.842352 1399.510679 1648.684149 C1403.468320 1648.343328 1401.131773 1647.533514 1400.518003 1645.613592 C1396.588071 1633.318670 1389.289610 1622.853582 1382.615171 1612.098699 C1378.771909 1605.905828 1373.788389 1600.420965 1368.318052 1593.617254 M1355.318052 1682.617254 C1352.928403 1683.283758 1350.576963 1684.226873 1348.141538 1684.562811 C1342.109312 1685.395574 1336.050718 1686.247869 1329.978452 1686.495672 C1326.791929 1686.625799 1326.111265 1687.662664 1326.278257 1690.537664 C1327.035703 1703.585516 1327.784238 1716.637029 1328.221983 1729.697576 C1328.327940 1732.855047 1329.936338 1732.785955 1331.977476 1732.598699 C1338.703672 1731.981024 1345.419981 1731.258367 1352.144712 1730.624334 C1359.530088 1729.927557 1367.017149 1729.818914 1374.288023 1728.504217 C1388.720396 1725.894109 1403.252256 1724.071600 1417.827085 1722.833074 C1422.256162 1722.456365 1422.490537 1720.885809 1422.348569 1717.542303 C1421.795835 1704.522772 1417.197569 1692.375311 1414.074888 1679.931219 C1413.690488 1678.399481 1409.957212 1676.737859 1407.820982 1676.795721 C1401.086118 1676.978094 1394.090147 1676.981268 1387.716245 1678.840154 C1377.681333 1681.766912 1367.227354 1679.753729 1355.318052 1682.617254 M1293.318052 1642.617254 C1292.984678 1641.756902 1292.385191 1640.904852 1292.356870 1640.034734 C1291.640928 1618.010809 1290.983457 1595.985174 1290.321836 1573.959783 C1290.291807 1572.961981 1290.343198 1571.961981 1290.313413 1570.964422 C1290.229429 1568.153143 1289.509336 1569.434393 1287.689634 1570.045477 C1271.937559 1575.333318 1261.533750 1587.517645 1252.666319 1600.013982 C1239.953550 1617.929022 1232.890806 1638.965399 1226.399107 1659.921453 C1224.249570 1666.860662 1228.248228 1670.940252 1235.095029 1668.442938 C1243.086240 1665.527899 1251.411680 1666.370428 1259.505430 1664.831365 C1268.034849 1663.209539 1276.906797 1663.475164 1285.591734 1662.560613 C1293.435850 1661.734686 1294.294248 1660.514715 1294.316709 1652.604315 C1294.325254 1649.608709 1294.318052 1646.612859 1293.318052 1642.617254 M1279.318052 1692.617010 C1272.610044 1693.283758 1265.908506 1694.024969 1259.192564 1694.598455 C1250.495542 1695.341375 1241.776670 1695.840154 1233.089536 1696.676336 C1230.004209 1696.973211 1226.850523 1697.614080 1223.989317 1698.753973 C1222.475889 1699.356756 1220.573179 1701.299139 1220.466978 1702.755193 C1219.542051 1715.430486 1218.978330 1728.132879 1218.321592 1740.827703 C1218.106382 1744.988348 1220.246030 1746.905584 1224.260923 1746.591619 C1231.641050 1746.014959 1239.106504 1745.820867 1246.361875 1744.504705 C1261.091245 1741.832586 1275.836362 1739.462713 1290.791807 1738.642889 C1297.446470 1738.277899 1298.445371 1737.791815 1298.241148 1731.419500 C1297.834165 1718.716863 1297.020933 1706.025945 1296.244199 1693.338445 C1296.186582 1692.398260 1294.940122 1690.674627 1294.479429 1690.749334 C1290.103819 1691.460272 1285.175108 1688.515203 1279.318052 1692.617010 z"/><path class="selected"  fill="#000000" opacity="1.000000" stroke="none" 
 	d="
M668.818052 1963.117254 C662.838071 1971.293279 654.457822 1974.666326 645.980528 1974.225897 C636.886900 1973.753729 627.942442 1969.542547 622.561338 1961.593816 C616.610532 1952.802801 612.416441 1942.541326 612.627134 1931.992742 C612.917539 1917.454656 617.606748 1903.977117 629.640195 1894.310613 C635.700498 1889.442693 651.269468 1889.267889 658.630186 1893.935125 C671.651914 1902.191961 677.074766 1914.754461 678.263975 1929.467352 C679.236875 1941.503729 676.637022 1952.738348 668.818052 1963.117254 z"/></svg>