<?xml version="1.0" encoding="utf-8"?><!DOCTYPE svg PUBLIC "-//W3C//DTD SVG 1.1//EN" "http://www.w3.org/Graphics/SVG/1.1/DTD/svg11.dtd"><svg version="1.1" id="Contours" xmlns="http://www.w3.org/2000/svg" xmlns:xlink="http://www.w3.org/1999/xlink" x="0px" y="0px" width="1988.015991px" height="1988.015991px" viewBox="-0.000004 -0.000029 1988.015991 1648.182739" enable-background="new 0 0 1988.015991 1988.015991" xml:space="preserve" stroke="black" fill="none" stroke-linecap='round' stroke-linejoin='round'><path class="selected"  fill="#000000" opacity="1.000000" stroke="none" 
 	d="
M1985.937566 848.066130 C1985.544255 860.952482 1984.258855 872.712004 1982.065983 884.429899 C1980.707341 891.690153 1980.822819 899.213591 1979.880437 906.567961 C1978.793767 915.046476 1977.459050 923.504118 1975.887761 931.906584 C1974.103093 941.450773 1972.279607 951.011564 1969.865300 960.409147 C1965.076237 979.051725 1960.348454 997.733732 1954.710515 1016.128264 C1948.290105 1037.074553 1942.189274 1058.274260 1933.600651 1078.359587 C1923.670964 1101.581266 1913.598210 1124.795378 1900.780095 1146.825529 C1891.253972 1163.197966 1882.038151 1179.774748 1871.859929 1195.759367 C1865.263737 1206.118132 1858.108952 1216.138884 1850.858464 1226.058073 C1842.591618 1237.368132 1833.946843 1248.401823 1825.442204 1259.537321 C1824.840398 1260.324919 1824.030583 1260.951384 1823.336491 1261.670866 C1805.187321 1280.482756 1787.253972 1299.510710 1768.783513 1318.002165 C1761.758122 1325.035856 1753.468571 1330.801237 1745.829899 1337.233366 C1744.353825 1338.476286 1743.202214 1340.114958 1742.020329 1341.662321 C1741.970769 1341.727263 1743.255192 1343.290251 1743.710271 1343.192106 C1757.620915 1340.189665 1771.019841 1343.411589 1784.587956 1345.952604 C1800.553532 1348.942350 1816.222966 1352.691618 1831.640691 1357.920622 C1847.610173 1363.336882 1862.058171 1371.567350 1876.611149 1379.735075 C1894.366032 1389.700163 1909.662907 1403.114958 1925.803044 1415.297819 C1932.183415 1420.113737 1936.335026 1427.782927 1942.358952 1433.199186 C1947.925847 1438.204313 1951.609196 1444.755827 1960.822331 1446.682097 C1972.068425 1449.033903 1973.143620 1464.748747 1963.719548 1472.060515 C1959.017399 1475.708952 1954.197331 1478.729216 1948.437810 1481.039030 C1937.875798 1485.274626 1928.097966 1491.486540 1918.052312 1496.982634 C1911.791081 1500.408415 1905.770085 1504.295866 1899.398991 1507.492888 C1893.076970 1510.665495 1886.357732 1513.038298 1879.975407 1516.100554 C1854.949528 1528.106413 1829.117253 1538.110075 1803.332097 1548.343718 C1776.883122 1558.841276 1749.937077 1567.588835 1722.887761 1576.228727 C1699.523503 1583.691374 1675.992741 1590.427702 1652.138737 1596.144011 C1634.312321 1600.415983 1616.737858 1605.744841 1598.895329 1609.941130 C1587.548772 1612.609587 1575.879948 1613.877165 1564.425603 1616.128630 C1555.859563 1617.812956 1547.472722 1621.259977 1538.883122 1621.744352 C1529.524358 1622.272184 1520.631169 1624.430632 1511.559392 1626.058317 C1498.443547 1628.410612 1485.046818 1628.599333 1472.000310 1631.867155 C1464.889592 1633.648161 1457.238103 1633.156462 1449.889470 1634.132292 C1442.070012 1635.170866 1434.321477 1636.741179 1426.537419 1638.051970 C1425.889226 1638.161345 1425.204533 1638.030729 1424.540471 1638.071501 C1413.817082 1638.730681 1402.735905 1637.937468 1392.466984 1640.455534 C1380.975041 1643.273649 1369.097844 1639.437712 1358.019231 1644.035856 C1357.450627 1644.271940 1356.697575 1644.042204 1356.032048 1644.069792 C1339.976262 1644.731901 1323.898991 1645.072966 1307.869206 1646.130827 C1268.838566 1648.706755 1229.766423 1648.229216 1190.705022 1647.972136 C1169.313054 1647.831511 1147.845769 1647.624968 1126.574528 1645.676481 C1116.478093 1644.751921 1106.429753 1644.679411 1096.374699 1644.000700 C1080.245427 1642.911589 1064.110051 1641.717253 1048.042180 1639.970915 C1033.822575 1638.425261 1019.713200 1635.890104 1005.513005 1634.132780 C997.168645 1633.099821 988.732487 1632.831022 980.355778 1632.028044 C975.612126 1631.572966 970.821599 1631.088591 966.197331 1630.000456 C951.113957 1626.452360 935.573918 1626.046843 920.369450 1622.651579 C910.968571 1620.552214 900.863713 1619.872038 891.169377 1618.017057 C875.147771 1614.951384 859.195378 1611.525847 843.195988 1608.341520 C829.018254 1605.519499 814.761906 1603.068815 800.641911 1599.988249 C789.094792 1597.469450 777.695012 1594.273405 766.234318 1591.359831 C751.459660 1587.604460 736.640080 1584.012663 721.936589 1579.996061 C713.602238 1577.718962 705.477483 1574.682829 697.230656 1572.075895 C673.945988 1564.715300 650.499699 1557.830778 627.397649 1549.938200 C606.705510 1542.868864 586.286687 1534.961638 565.928532 1526.963102 C543.288701 1518.067350 520.549809 1509.320524 498.409428 1499.283659 C472.568486 1487.569548 447.024785 1475.106901 421.914738 1461.899626 C398.033818 1449.338835 374.498112 1436.017302 351.519475 1421.878141 C331.719426 1409.695280 312.765629 1396.106657 293.718877 1382.739225 C276.350224 1370.549284 259.100163 1358.157682 242.295232 1345.209440 C231.509038 1336.898893 221.327885 1327.733854 211.398320 1318.395720 C192.600163 1300.717741 173.647587 1283.151213 155.750859 1264.582487 C138.311223 1246.487883 122.569951 1226.878019 107.194279 1206.902067 C95.192937 1191.309904 84.034489 1175.207975 73.847600 1158.552214 C62.583592 1140.135588 52.292119 1121.139860 43.345158 1101.264860 C35.216466 1083.207609 28.197514 1064.831389 21.456273 1046.327360 C17.325444 1034.988615 14.901219 1023.011076 11.989903 1011.251310 C10.108525 1003.651579 8.746495 995.923796 7.124425 988.259245 C6.087895 983.361296 4.575413 978.520842 4.030400 973.571623 C3.037083 964.551359 2.496312 955.475554 1.963292 946.411467 C1.195927 933.361418 0.298649 920.307341 0.025212 907.243254 C-0.237758 894.677580 1.592045 882.264250 3.849980 869.889494 C5.619939 860.189177 6.544285 850.336638 7.951420 840.567228 C10.137181 825.392180 14.501378 810.772429 18.754002 796.067839 C26.425969 769.540007 37.306706 744.367765 50.073796 720.046721 C61.714726 697.871183 75.128178 676.713591 90.253239 656.665495 C101.498173 641.760344 112.474797 626.691618 125.608647 613.306730 C140.414372 598.217863 154.874272 582.789763 169.495793 567.520109 C170.639348 566.325773 171.761052 564.397429 173.081670 564.220793 C176.921025 563.706999 176.399174 562.549162 174.810551 559.811003 C170.710087 552.743620 170.794560 545.246061 173.326420 537.597014 C173.918400 535.808439 173.890080 533.771086 173.912297 531.845427 C173.981267 525.846769 173.900944 519.846525 173.944829 513.847380 C174.053837 498.935515 171.662663 484.262907 170.223149 469.480681 C166.974614 436.121428 155.003728 405.309294 144.777714 373.937956 C144.016545 371.602751 142.039006 369.339811 142.136784 367.109465 C142.440068 360.193693 138.087773 358.804167 133.294011 360.267546 C125.946294 362.510344 119.038029 361.756437 111.880620 360.113859 C106.665288 358.916716 101.142033 358.778532 96.114018 357.097624 C75.939580 350.353483 59.755376 338.290495 47.881718 320.390715 C35.873112 302.287443 31.361394 282.010222 34.335179 261.215605 C38.009099 235.525480 51.017064 214.347136 73.531926 200.098173 C90.042241 189.649199 108.190190 184.172636 127.686406 186.259672 C145.916447 188.211210 162.641179 194.232451 177.463139 206.174223 C192.323491 218.147001 201.962346 233.326750 207.140263 250.809416 C210.815800 263.219206 210.718388 276.419462 208.417424 289.949308 C205.163335 309.082609 196.096257 324.123625 183.267155 337.608122 C180.203435 340.828337 176.476750 343.499357 172.779484 346.018766 C164.662785 351.549528 164.517522 351.477995 168.110112 359.218596 C178.929692 382.530241 187.215337 406.805998 193.669682 431.583220 C197.172185 445.028654 197.759160 459.215788 199.982915 473.016691 C202.725224 490.035490 204.173527 507.142424 203.849370 524.360563 C203.741460 530.094450 202.482915 535.800383 202.083745 541.542204 C202.031071 542.300871 204.640568 544.083464 204.876408 543.902678 C216.579899 534.938566 230.950017 532.725920 244.336064 528.006193 C257.650212 523.311491 271.518193 521.074308 285.122075 517.707609 C316.798039 509.867888 348.819279 511.992888 380.708073 512.544401 C391.373967 512.728972 402.853703 513.150480 413.313176 517.877409 C416.080937 519.128141 419.916875 518.283415 423.212895 517.934050 C424.206914 517.828825 425.112675 516.211760 425.925297 515.181730 C432.715581 506.574064 433.537541 495.660978 437.054387 485.805510 C441.103581 474.457853 443.480656 462.452849 448.189152 451.418303 C452.595463 441.091887 453.262212 430.186491 455.902043 419.619108 C459.094426 406.840178 460.630803 393.729826 463.567265 380.861174 C465.519108 372.307341 463.992924 362.946135 463.821171 353.950285 C463.808903 353.305998 462.218877 352.464445 461.221684 352.100309 C442.898442 345.408903 429.779240 333.139860 420.632695 315.934172 C413.325871 302.189299 409.304936 287.542082 410.190495 272.370207 C412.018315 241.054228 425.162419 215.508818 453.405400 199.823942 C466.340459 192.640349 480.130498 190.977507 495.426823 193.541166 C509.623662 195.920561 521.392033 201.693327 531.289433 210.819182 C545.023625 223.482756 552.015080 240.006254 556.339726 258.380522 C559.852788 273.306425 557.520573 287.501799 553.429509 300.829680 C547.672063 319.586149 535.689030 335.204680 518.653203 346.003752 C512.080144 350.170378 504.798161 352.984831 497.002812 354.021208 C493.455754 354.492765 491.790105 356.185026 491.924016 359.751921 C491.999028 361.748869 491.914189 363.751432 491.941411 365.750822 C492.108647 378.029997 489.424199 390.028166 488.342351 402.126677 C486.891484 418.352507 481.704899 433.693815 479.557255 449.721037 C478.320073 458.953581 472.974309 467.578459 470.013066 476.651579 C466.363530 487.833098 463.320317 499.211515 459.910100 510.472990 C458.749394 514.305876 457.553960 518.175749 455.856694 521.785246 C454.205876 525.295866 453.897649 526.873625 458.580388 528.213713 C480.587773 534.511076 501.697331 543.251066 521.791875 554.165983 C538.290166 563.127531 554.298711 572.920134 569.349370 584.304289 C586.004094 596.901701 601.920598 610.251432 616.245305 625.446135 C618.863347 628.223356 620.902531 631.539030 623.410466 634.431486 C624.150212 635.284514 625.581608 635.537932 626.695988 636.066130 C626.793156 634.749357 627.025944 633.425749 626.958317 632.117399 C626.830388 629.641081 626.227360 627.153776 626.386174 624.707731 C626.546452 622.242155 627.849187 619.823210 627.859318 617.380339 C627.906193 606.092131 630.836125 595.073942 631.462956 584.014006 C632.105168 572.682219 635.636784 561.986296 636.156682 550.711149 C636.529973 542.614470 638.615910 534.535368 640.505681 526.583342 C644.101872 511.449797 647.711003 496.298552 652.044377 481.366545 C656.691960 465.352018 662.139226 449.567961 667.307927 433.706389 C679.205876 397.193937 695.620183 362.684050 713.952580 329.041594 C728.968571 301.485075 745.488713 274.938383 764.711613 250.018950 C776.326482 234.962126 787.710149 219.795866 800.908024 206.063566 C813.710149 192.742765 825.905095 178.797453 839.253728 166.055632 C849.941350 155.853788 862.479191 147.601225 873.272526 137.497160 C893.126286 118.911345 916.369328 105.174589 938.882756 90.440947 C948.399724 84.212614 958.179997 78.178557 968.923894 73.759367 C977.464543 70.246245 984.858708 64.012846 993.309758 60.202177 C1014.648625 50.580290 1036.425358 42.002775 1058.426457 33.942595 C1080.913884 25.704130 1104.290715 20.752958 1127.253850 14.328886 C1139.677922 10.853239 1152.897160 10.303740 1165.679631 8.001494 C1179.373479 5.535063 1193.199895 4.882353 1206.981267 3.556059 C1215.066106 2.777922 1223.138005 2.672026 1231.199284 2.062162 C1237.607609 1.577421 1243.933049 2.318815 1250.479436 0.452421 C1255.349187 -0.935884 1261.221989 1.268400 1266.658147 1.759977 C1269.272893 1.996306 1271.912053 2.077116 1274.538396 2.049467 C1293.428899 1.850187 1312.226506 2.795866 1330.884587 6.017729 C1336.554021 6.996733 1342.357732 7.184660 1348.039128 8.108976 C1361.692692 10.330046 1375.425725 11.690275 1388.865666 15.660795 C1402.056950 19.557890 1416.045720 20.693510 1429.360661 24.252409 C1442.451115 27.751371 1455.113103 32.837980 1468.002019 37.110563 C1488.504948 43.907194 1508.409733 52.085539 1528.117375 60.977934 C1554.431462 72.851347 1579.531682 86.741423 1604.483342 101.201994 C1630.173161 116.090666 1653.806950 133.766386 1677.720769 151.095610 C1687.922917 158.488676 1696.818669 167.657805 1706.606755 175.654448 C1725.464177 191.060515 1743.370671 207.514494 1759.952214 225.294951 C1772.763005 239.032011 1784.680974 253.611418 1796.792790 267.987516 C1805.695134 278.553923 1814.763982 289.037809 1822.870183 300.203581 C1834.322331 315.978361 1845.193181 332.192228 1855.866032 348.510466 C1865.257878 362.869719 1874.576237 377.329069 1882.927556 392.301481 C1890.732976 406.294645 1897.251530 421.007292 1904.285710 435.427946 C1908.882634 444.852507 1913.425114 454.304045 1917.930485 463.772795 C1928.144353 485.237883 1936.460026 507.483000 1943.808415 530.034758 C1951.669255 554.160002 1959.973942 578.304899 1965.256413 603.045256 C1968.462468 618.061613 1973.281560 632.896696 1974.204167 648.538176 C1974.730534 657.462370 1978.218327 666.177580 1979.835515 675.084440 C1980.860661 680.730558 1979.933171 686.434782 1981.579655 692.335661 C1983.713200 699.982756 1982.665837 708.456389 1984.075505 716.380583 C1986.335515 729.084318 1984.434392 742.018889 1986.233708 754.530363 C1989.554997 777.627531 1987.075749 800.687956 1987.794011 823.742521 C1988.035710 831.490202 1986.604314 839.290129 1985.937566 848.066130 M991.937566 705.066130 C990.947331 706.722990 989.675725 708.274626 989.010564 710.053068 C982.317570 727.949186 974.642888 745.401335 968.709050 763.680510 C960.443425 789.142057 957.782780 815.110807 956.126530 841.351896 C955.368962 853.354826 956.181584 865.426848 957.542058 877.551970 C959.082951 891.284880 959.293156 905.088835 961.549504 918.909514 C964.541447 937.233732 968.858586 955.069182 973.761174 972.917692 C978.362736 989.670988 983.661320 1006.222136 988.307805 1022.961515 C992.563298 1038.291960 999.794987 1052.816374 1005.981877 1067.584318 C1011.098576 1079.797819 1015.938908 1092.199797 1022.110661 1103.879484 C1029.372014 1117.620939 1038.168278 1130.541716 1045.879948 1144.057463 C1055.850774 1161.532682 1067.402409 1177.924894 1081.396672 1192.252653 C1099.885808 1211.182463 1119.311711 1229.200651 1138.441106 1247.499724 C1142.882634 1251.748503 1147.434148 1256.017424 1152.492009 1259.458342 C1163.347722 1266.843351 1174.220158 1274.328581 1185.719060 1280.613737 C1202.232976 1289.639982 1218.865788 1298.740202 1236.276311 1305.751921 C1253.429265 1312.660368 1271.799626 1316.477751 1289.294377 1322.623747 C1306.740788 1328.752409 1324.769108 1332.464079 1342.773137 1335.721403 C1357.975896 1338.471891 1372.935246 1342.417936 1388.336125 1344.481657 C1399.500798 1345.977507 1410.547063 1348.998747 1421.892033 1350.169645 C1427.468083 1350.745085 1432.896306 1352.626921 1438.454167 1353.532194 C1452.534978 1355.826628 1466.633488 1358.031706 1480.761418 1360.010710 C1487.773625 1360.993376 1494.965275 1360.876188 1501.901066 1362.183073 C1513.614079 1364.390104 1525.317326 1365.959440 1537.261418 1366.124235 C1558.669865 1366.419645 1579.734074 1364.240934 1600.825261 1360.367643 C1613.563542 1358.028532 1626.510319 1356.638640 1639.317692 1354.268278 C1653.796696 1351.588347 1668.334538 1349.083464 1682.054753 1343.860563 C1692.449284 1339.903776 1703.038151 1336.417692 1711.634587 1327.970671 C1718.655583 1321.071501 1727.215398 1315.590300 1734.519597 1308.676237 C1745.868962 1297.932951 1758.340398 1288.347624 1769.389226 1277.322111 C1779.964665 1266.769011 1789.547429 1255.186369 1799.175114 1243.727140 C1810.954411 1229.706877 1823.459050 1216.104826 1833.625066 1200.962370 C1851.652898 1174.109953 1869.390202 1146.956266 1883.336003 1117.626799 C1892.203679 1098.977873 1901.661931 1080.542814 1909.273991 1061.383757 C1916.558171 1043.050627 1922.096501 1023.995695 1927.833806 1005.085539 C1931.712712 992.300016 1936.269353 979.728361 1938.169499 966.296599 C1939.686345 955.572966 1943.461003 945.185148 1945.872380 934.566252 C1947.545476 927.196623 1948.909978 919.726530 1949.868230 912.231779 C1951.455144 899.817839 1951.982976 887.241423 1954.093571 874.928312 C1956.788151 859.208220 1957.446599 843.313322 1957.657292 827.559904 C1958.176091 788.760222 1959.513249 749.873137 1954.006169 711.223356 C1952.867985 703.234343 1952.699040 695.111052 1951.904362 687.067473 C1951.371648 681.676970 1950.792790 676.265349 1949.755681 670.956633 C1948.017399 662.059416 1945.836247 653.249724 1943.954411 644.379240 C1942.066716 635.479826 1940.506901 626.507292 1938.459782 617.646208 C1935.796452 606.119474 1933.093327 594.586149 1929.862614 583.210295 C1925.722966 568.633513 1921.279362 554.131804 1916.507878 539.749968 C1913.407780 530.405607 1908.953923 521.498625 1906.049138 512.104338 C1900.009831 492.571745 1891.098942 474.261198 1882.500554 455.862028 C1874.524724 438.795256 1865.465642 422.214933 1856.422917 405.672209 C1849.269597 392.585661 1841.909489 379.560270 1833.769841 367.075895 C1819.067448 344.525358 1804.310368 321.995573 1786.570866 301.581022 C1772.819890 285.756682 1760.386296 268.733122 1746.030095 253.502897 C1725.256657 231.464811 1703.809392 210.010893 1680.026433 191.070097 C1670.920720 183.818388 1662.729314 175.340910 1653.257634 168.643217 C1635.847478 156.332060 1617.624089 145.177336 1600.058903 133.077299 C1579.259099 118.748991 1556.917790 107.234099 1534.353093 96.121000 C1515.551945 86.861601 1496.297185 78.737150 1476.628117 71.314177 C1449.288396 60.996428 1421.459172 52.822172 1393.126408 45.990263 C1382.397526 43.403166 1371.774358 40.770414 1360.712712 39.666411 C1348.439885 38.441435 1336.304997 35.880217 1324.076482 34.136564 C1320.809880 33.670866 1316.920232 35.129606 1314.191350 33.845549 C1308.448308 31.143217 1302.657170 32.605375 1296.919621 32.048613 C1290.855534 31.460112 1284.794499 30.083403 1278.750188 30.179777 C1254.024602 30.574064 1229.302434 31.294096 1204.586980 32.130400 C1197.183171 32.380949 1189.729314 32.944182 1182.431950 34.163542 C1168.482121 36.494597 1154.673527 39.673552 1140.722233 41.993986 C1124.670232 44.663786 1109.020085 48.885283 1093.504216 53.586699 C1074.020695 59.490263 1054.924992 66.471037 1035.879460 73.746122 C1014.724309 81.826994 994.710637 92.173369 974.912419 102.691801 C955.888859 112.798857 938.816228 126.513517 920.461491 137.961943 C902.187566 149.359953 885.573186 163.014311 870.042058 177.543058 C847.465886 198.662260 824.744084 219.873991 806.098332 244.852629 C795.424504 259.151640 784.031682 272.928862 773.703923 287.467619 C758.522282 308.839567 745.100407 331.370817 732.698552 354.456511 C726.577824 365.850065 721.109196 377.636442 716.034123 389.538542 C709.634221 404.547575 703.582951 419.728239 698.035344 435.071379 C692.263249 451.034880 687.303288 467.291227 681.927434 483.399260 C677.577580 496.432707 674.082341 509.651457 671.858342 523.242888 C670.085759 534.075651 667.498112 544.772551 665.473454 555.567473 C663.495549 566.112761 661.455388 576.663420 660.037053 587.291227 C658.881657 595.948820 659.710515 605.004118 657.592961 613.359221 C655.849919 620.236174 656.491643 626.880583 655.917302 633.614225 C655.343205 640.345182 654.713566 647.075529 653.888615 653.779265 C653.508122 656.871183 653.362981 660.410978 651.737248 662.820646 C649.883366 665.568693 650.152898 666.626799 651.950627 669.330412 C660.072941 681.544523 668.171818 693.831389 675.273381 706.649260 C681.232365 717.404631 686.301701 728.731535 690.841618 740.171721 C695.162175 751.059050 698.569401 762.338347 701.862126 773.596159 C705.524724 786.117643 708.841740 798.753386 711.848576 811.448454 C713.664250 819.114470 715.651921 826.977995 715.724431 834.769865 C715.886418 852.226530 718.186223 869.202849 721.567204 886.349821 C725.085393 904.192839 730.967961 921.094938 736.997380 938.036589 C743.711613 956.903044 750.784001 975.646330 757.976994 994.336882 C766.399602 1016.222258 775.966374 1037.644743 787.243352 1058.189299 C798.306218 1078.343718 810.062199 1098.134733 822.047429 1117.759367 C828.442326 1128.230558 835.149358 1138.719694 843.151189 1147.957243 C858.877995 1166.113127 876.832219 1182.235075 895.943913 1196.652067 C915.736760 1211.583098 936.274968 1225.565275 957.285344 1238.906096 C980.439030 1253.607878 1004.698186 1265.703703 1029.610051 1276.879240 C1050.166203 1286.100798 1070.961369 1294.676848 1092.429143 1301.422453 C1116.003239 1308.830046 1139.894841 1315.095915 1164.526799 1318.148893 C1170.714787 1318.916227 1176.744328 1320.883757 1182.904973 1321.969938 C1188.243230 1322.911345 1193.658513 1323.433317 1199.053166 1324.016325 C1199.906560 1324.108610 1200.830876 1323.542936 1201.722356 1323.281218 C1201.158879 1322.574186 1200.717839 1321.690886 1200.006413 1321.196501 C1198.479436 1320.135222 1196.919865 1318.795378 1195.186589 1318.409147 C1183.370549 1315.777556 1173.725041 1308.693571 1163.735051 1302.638884 C1135.758366 1285.683195 1112.288762 1263.000334 1088.246525 1241.150236 C1080.030949 1233.683561 1073.359929 1224.545012 1065.449650 1216.708952 C1050.293278 1201.694548 1036.446721 1185.767912 1025.848454 1167.091887 C1017.552800 1152.473845 1007.719548 1138.674406 1000.149724 1123.711638 C989.587224 1102.833342 980.279484 1081.305632 970.876408 1059.862150 C966.676335 1050.284025 963.078435 1040.377653 960.047795 1030.365934 C955.462590 1015.219816 952.151189 999.677458 947.294987 984.627287 C942.596135 970.065031 938.507146 955.460417 935.753850 940.384611 C934.152165 931.614225 932.867985 922.870085 931.678166 914.045744 C930.090764 902.272184 927.859563 890.620451 927.918156 878.671599 C927.996525 862.673674 928.171941 846.670622 927.864079 830.678312 C927.613835 817.688566 929.410466 805.022429 931.843083 792.319792 C934.313298 779.420500 936.850163 766.523405 941.048039 754.107390 C946.474309 738.059172 951.964909 721.955290 958.787785 706.474821 C968.554143 684.315641 980.764592 663.335417 994.063054 643.115446 C1009.844182 619.120817 1027.008733 596.109099 1046.255559 574.707975 C1062.384099 556.774382 1078.207463 538.565153 1094.438664 520.726164 C1098.549504 516.208098 1103.654607 512.581266 1108.382878 508.640837 C1120.017644 498.945036 1131.434758 488.961393 1143.426457 479.726164 C1159.533269 467.321867 1176.697087 456.461760 1195.291081 448.100798 C1218.781682 437.537687 1242.975285 429.477629 1268.199406 423.531340 C1286.783513 419.150358 1305.503606 416.086760 1324.217717 414.568693 C1343.756779 412.983976 1363.661565 414.834929 1383.327580 416.266447 C1396.241521 417.206511 1409.052556 419.859221 1421.840153 422.135466 C1431.074040 423.779509 1440.271794 425.766203 1449.345769 428.135954 C1463.143864 431.739470 1476.956608 435.388395 1490.515446 439.782072 C1508.112858 445.484465 1525.646550 451.477995 1542.868718 458.213224 C1556.335393 463.479704 1569.729558 469.265471 1582.355534 476.264128 C1598.982243 485.480314 1615.230778 495.524382 1630.861149 506.340666 C1641.200261 513.495207 1650.872136 521.958098 1659.567448 531.054045 C1669.776677 541.733366 1679.176823 553.316008 1687.880437 565.269865 C1697.834050 578.940397 1707.601628 592.922819 1715.682683 607.733976 C1724.893620 624.615812 1730.948308 642.965056 1733.923894 662.134611 C1735.336491 671.235563 1736.056706 680.480925 1738.051091 689.447233 C1742.273991 708.428679 1744.518132 727.542814 1743.936101 746.980803 C1743.275700 769.035734 1742.603093 791.090422 1741.940739 813.145353 C1741.900944 814.470182 1742.302067 815.969450 1741.816960 817.093718 C1738.581853 824.590300 1739.733220 832.757536 1738.087468 840.517057 C1736.693913 847.086027 1737.964421 854.446013 1735.656316 860.548185 C1730.737614 873.551970 1730.325017 887.413542 1726.467351 900.662077 C1722.749577 913.431486 1720.049382 926.611052 1715.934148 939.359953 C1711.948796 951.706389 1708.811589 964.419767 1703.713689 976.289885 C1697.510564 990.733122 1690.387517 1004.907682 1682.295964 1018.377897 C1674.036198 1032.128386 1664.473210 1045.150602 1654.797429 1057.975920 C1648.910466 1065.778776 1642.042058 1072.926115 1635.020085 1079.756804 C1630.513005 1084.140959 1624.705144 1087.154020 1619.863347 1091.235685 C1608.265202 1101.013029 1595.204289 1108.442473 1581.728337 1115.113859 C1574.663884 1118.611296 1567.049260 1114.603239 1563.298283 1106.426848 C1560.823552 1101.032560 1563.222478 1095.989225 1570.111027 1092.064787 C1585.688176 1083.190153 1599.922795 1072.464811 1612.801823 1060.050016 C1618.892888 1054.178434 1624.308659 1047.584440 1629.820866 1041.138395 C1643.183415 1025.511320 1655.647038 1009.427580 1664.831364 990.683683 C1670.424870 979.268766 1675.863591 967.910856 1679.891911 955.903776 C1685.295720 939.796232 1690.889958 923.722746 1695.429997 907.364592 C1699.025212 894.410734 1701.128483 881.044645 1703.947575 867.873015 C1705.810368 859.170012 1706.687810 850.234221 1708.388493 841.619597 C1711.051335 828.130583 1713.367741 814.316252 1713.380437 801.019987 C1713.412663 766.922697 1717.276677 732.650114 1710.206364 698.632536 C1707.642888 686.299284 1706.590398 673.609709 1704.107976 661.144011 C1698.607243 633.522673 1684.818181 610.090300 1668.561833 587.874235 C1661.897038 578.765837 1653.427556 570.965056 1646.893620 561.777067 C1636.356755 546.960661 1622.005925 536.535856 1607.669377 526.194426 C1589.509221 513.094938 1569.667058 503.028654 1549.227605 493.624357 C1528.131291 483.917570 1506.622380 475.564299 1484.719426 468.315275 C1466.122990 462.160368 1447.086247 457.404753 1427.737858 453.431730 C1408.467839 449.475065 1389.111516 445.846159 1369.722844 444.579557 C1350.166569 443.301970 1330.325749 442.645964 1310.539738 445.736662 C1298.970647 447.543547 1287.523747 449.618498 1276.021550 451.748381 C1250.747624 456.428679 1227.147404 465.466032 1204.077214 476.167204 C1191.329655 482.080046 1179.735173 490.066862 1168.051335 497.922697 C1152.002385 508.713591 1137.240056 521.058806 1123.151189 534.108244 C1101.511906 554.151213 1082.042180 576.303679 1063.636784 599.364470 C1053.039128 612.642546 1041.775090 625.447477 1031.975774 639.290007 C1017.396672 659.884611 1003.261174 680.856901 991.937566 705.066130 M127.937627 1187.066130 C139.024846 1200.820036 149.821721 1214.821989 161.292241 1228.248381 C170.255253 1238.739714 179.791386 1248.779753 189.555302 1258.537565 C199.555302 1268.531096 210.103764 1277.978972 220.485600 1287.586149 C227.445073 1294.026335 234.496342 1300.368742 241.575444 1306.677702 C246.418828 1310.993864 251.192631 1315.421354 256.326970 1319.371306 C269.685795 1329.647673 283.122685 1339.829557 296.724797 1349.780729 C308.954716 1358.727995 321.291997 1367.547331 333.872136 1375.990446 C343.183964 1382.240202 353.162785 1387.494352 362.491948 1393.720182 C384.775700 1408.591520 408.192509 1421.558317 431.880376 1433.894987 C472.899968 1455.258757 514.462895 1475.589079 557.530217 1492.618864 C570.994389 1497.942839 584.555852 1503.027311 598.140324 1508.038298 C612.024113 1513.159391 625.948308 1518.178679 639.931828 1523.019499 C658.596135 1529.480925 677.237004 1536.038054 696.071233 1541.971891 C712.327458 1547.093229 728.815495 1551.489714 745.247990 1556.036833 C757.825993 1559.517546 770.431706 1562.919401 783.109563 1566.009733 C794.050969 1568.676237 805.112614 1570.849089 816.118962 1573.249235 C826.511784 1575.515349 836.848454 1578.089323 847.307805 1579.987516 C859.117009 1582.130339 870.992619 1584.266081 882.703068 1586.587614 C895.932316 1589.210661 909.249333 1591.507536 922.515813 1593.928434 C933.506901 1595.934538 944.996892 1595.622526 955.767277 1598.324919 C972.183415 1602.444304 988.979436 1603.361784 1005.564641 1605.724089 C1017.255925 1607.389128 1029.104924 1608.400847 1040.879338 1609.892790 C1056.904484 1611.923307 1073.078435 1612.813200 1089.200627 1614.032438 C1097.263493 1614.642302 1105.275090 1614.469450 1113.425603 1615.682341 C1127.274602 1617.743376 1141.477849 1617.866179 1155.538762 1617.974577 C1191.201604 1618.250212 1226.871403 1618.358610 1262.531438 1617.935515 C1278.918278 1617.741179 1295.268132 1619.044645 1311.762273 1616.447722 C1324.546818 1614.435026 1337.857487 1616.526823 1350.899235 1614.220671 C1358.159245 1612.936979 1365.728581 1613.069548 1373.076482 1612.549772 C1389.224675 1611.407438 1405.338200 1610.346891 1421.393498 1608.141325 C1429.390813 1607.042448 1437.531682 1607.010710 1445.545842 1606.004850 C1459.744084 1604.223112 1473.887883 1602.012175 1488.069524 1600.091032 C1494.105900 1599.273161 1500.545476 1599.796599 1506.167180 1597.863981 C1522.094304 1592.389128 1538.890202 1591.671354 1555.190495 1588.586149 C1570.348698 1585.717497 1585.296452 1581.668181 1600.717229 1579.622770 C1615.333073 1577.684050 1629.310612 1571.375456 1643.836003 1568.217253 C1669.974919 1562.533903 1695.288884 1554.178434 1720.783269 1546.319304 C1744.097722 1539.131559 1766.893620 1530.557829 1789.863347 1522.409880 C1816.658513 1512.904509 1842.264470 1500.770475 1868.356023 1489.766081 C1886.809392 1481.983122 1904.103093 1471.440153 1921.867985 1462.040739 C1927.058171 1459.294401 1927.302556 1458.338347 1923.279118 1454.493132 C1914.498601 1446.102263 1905.710515 1437.694792 1896.523503 1429.759489 C1881.222722 1416.543181 1864.287663 1405.605681 1846.470524 1396.138151 C1831.429997 1388.145964 1815.523991 1381.904753 1798.889958 1378.413542 C1792.605534 1377.094450 1783.775944 1377.155729 1779.204655 1380.645964 C1769.551579 1388.015593 1758.203679 1389.967253 1747.682927 1391.459684 C1731.029118 1393.822722 1714.907048 1398.568571 1698.144597 1400.566618 C1682.309636 1402.453825 1666.679265 1406.189665 1650.572819 1406.078825 C1649.275700 1406.069792 1647.678776 1405.777311 1646.725651 1406.394743 C1636.292790 1413.154265 1623.817937 1407.526091 1613.059880 1412.066130 C1579.326359 1411.973600 1545.576604 1412.700163 1511.892766 1410.072722 C1511.230168 1410.021208 1510.532048 1410.190153 1509.897404 1410.047819 C1498.258733 1407.436735 1486.495793 1406.190886 1474.553776 1405.967741 C1466.487370 1405.817106 1458.409245 1404.975065 1450.387761 1404.014372 C1435.195378 1402.194059 1420.046086 1400.017546 1404.867009 1398.081999 C1393.763615 1396.666472 1382.562566 1395.856901 1371.545842 1393.959929 C1354.524724 1391.029020 1337.666814 1387.158171 1320.658635 1384.143034 C1307.222111 1381.760710 1293.641911 1380.202849 1280.165349 1378.030241 C1264.579289 1375.517546 1249.028386 1372.781950 1233.479802 1370.043181 C1226.675236 1368.844938 1219.904240 1367.448698 1213.136540 1366.051725 C1207.008488 1364.786589 1200.958317 1362.656462 1194.780705 1362.216765 C1180.835393 1361.224821 1167.586735 1356.937468 1154.446355 1353.146452 C1129.864079 1346.054411 1105.989201 1336.550016 1081.568669 1328.846403 C1053.549748 1320.008024 1026.963933 1307.727995 1000.213933 1295.899260 C980.083195 1286.997404 960.914128 1276.184294 942.280705 1264.249724 C907.949895 1242.261198 874.715275 1218.837858 844.626652 1191.355070 C832.161809 1179.969694 820.544743 1167.170988 810.769475 1153.430510 C792.538151 1127.803312 776.479191 1100.645964 762.116276 1072.651579 C752.280095 1053.479826 742.108708 1034.376188 734.836369 1013.971891 C730.385808 1001.484343 726.445744 988.777067 721.280949 976.590300 C712.847356 956.691008 705.156804 936.532438 698.883733 915.880827 C693.424016 897.907438 689.445500 879.573698 689.929387 860.577849 C689.988835 858.246183 690.308903 855.839689 689.873112 853.590910 C688.025212 844.057097 685.200505 834.652678 684.116643 825.045012 C682.626897 811.839567 679.614445 799.062224 675.923894 786.384855 C671.521794 771.263029 666.615666 756.355314 660.021794 741.972136 C646.358708 712.169279 629.800725 684.043669 608.051457 659.617765 C587.454045 636.485319 564.808659 615.220549 538.708623 598.049528 C517.415166 584.040861 494.964177 571.904631 471.270756 562.925505 C450.696171 555.128386 429.282719 549.519743 407.348271 545.497770 C391.459843 542.584440 375.479497 543.079313 359.665349 540.467863 C351.334965 539.092375 342.389348 539.729094 333.464238 541.603605 C323.459843 543.704435 312.736760 541.669035 302.362797 543.935392 C293.386113 545.896818 283.734685 545.449675 275.135625 548.323576 C254.978581 555.060637 234.418400 560.658171 214.998418 569.689055 C204.975590 574.349821 197.750737 582.161589 190.247075 589.248747 C161.043828 616.831144 133.135747 645.656584 109.952824 678.785368 C99.159123 694.209684 88.806767 709.841276 80.037541 726.447111 C72.699956 740.342131 65.815861 754.453581 59.605717 768.966154 C52.390904 785.826750 46.530949 803.029753 42.136693 820.698576 C39.567052 831.030729 36.867741 841.333342 35.473271 852.102018 C33.379430 868.271574 29.560277 884.253630 30.016972 900.672209 C30.500767 918.065275 28.528966 935.479948 31.755253 952.877287 C34.031102 965.149626 33.676243 977.927824 36.177586 990.135588 C39.159032 1004.686735 43.602391 1018.973845 48.022069 1033.185759 C53.606572 1051.143278 59.504124 1069.063444 68.017033 1085.884611 C78.349309 1106.300993 88.545354 1126.848723 100.187566 1146.518522 C108.219426 1160.088713 118.604314 1172.266203 127.937627 1187.066130 M138.937566 218.066130 C124.887334 214.190580 111.025883 215.103300 97.461858 220.115446 C89.397832 223.095244 83.415593 229.049528 77.758000 235.265410 C63.783269 250.619291 59.387181 268.621794 65.368382 288.276091 C72.233586 310.835173 87.271550 324.727751 110.918645 330.444426 C129.361638 334.903044 145.283757 330.222746 158.864873 319.558317 C175.609135 306.410002 183.713139 288.495451 180.088444 266.168669 C177.403691 249.631132 170.684392 236.177397 156.120854 227.256804 C151.075993 224.166716 145.999577 221.128203 138.937566 218.066130 M464.937566 226.066130 C451.848088 234.262297 444.874089 246.163420 441.574650 261.213469 C436.870366 282.671476 441.153386 301.304167 457.280644 316.196623 C474.306828 331.918913 497.841557 329.666594 512.775639 313.676725 C523.179326 302.537443 529.373845 288.700773 528.175358 272.127775 C527.073613 256.892180 522.711919 244.017851 511.931340 232.719023 C501.018132 221.281218 479.902653 218.459929 464.937566 226.066130 z"/><path class="selected"  fill="#000000" opacity="1.000000" stroke="none" 
 	d="
M1177.937566 794.066130 C1175.270940 782.507902 1171.818425 772.073942 1170.125676 761.362028 C1167.708562 746.066252 1164.878483 730.660978 1166.031560 715.071745 C1167.148503 699.972258 1168.261174 684.432707 1174.710271 670.731657 C1183.922307 651.159758 1198.877629 638.414640 1220.731023 631.478605 C1246.663151 623.247648 1267.792302 631.395109 1288.620671 643.971037 C1308.328191 655.870329 1324.751530 672.073698 1339.661320 689.313932 C1350.172307 701.467619 1360.132878 714.697722 1364.021550 731.088224 C1364.294865 732.240202 1365.223576 733.265837 1365.958195 734.269255 C1366.450993 734.942350 1367.139592 735.472136 1367.740544 736.066130 C1368.472966 735.270353 1369.556828 734.597502 1369.884587 733.660246 C1374.208440 721.295866 1381.506169 710.876921 1389.904240 700.921721 C1401.521916 687.150236 1415.409489 676.320402 1431.188908 668.074186 C1439.320256 663.824919 1448.206731 660.751677 1457.058415 658.218107 C1467.851994 655.128874 1479.103703 654.636931 1490.299382 653.572477 C1499.969548 652.653288 1509.480656 653.274626 1518.624943 654.477873 C1534.753972 656.599821 1550.299016 661.200407 1562.694768 673.515715 C1573.121892 683.875212 1580.647771 695.496183 1584.417302 709.588591 C1585.788762 714.715910 1587.781682 719.953581 1587.743962 725.128141 C1587.641179 739.184660 1587.584050 753.373869 1585.607854 767.239592 C1584.189885 777.187956 1579.796696 786.728483 1576.580144 796.400724 C1568.983830 819.243254 1554.476018 838.166349 1541.100041 857.633635 C1534.726262 866.910124 1526.774113 875.125212 1519.322575 883.633268 C1504.092839 901.022917 1488.153996 917.825041 1473.548527 935.719206 C1456.029118 957.183439 1435.307927 974.365324 1411.409489 988.193937 C1399.326359 995.185881 1387.662053 1002.873747 1374.721745 1008.275602 C1371.987736 1009.416838 1368.739690 1011.999724 1366.586980 1011.295012 C1362.298405 1009.891569 1357.183659 1010.201017 1353.938420 1005.375700 C1351.153874 1001.235685 1346.905949 998.506193 1341.720891 996.558928 C1321.689274 989.035734 1304.748601 975.971281 1287.229191 964.114348 C1276.915959 957.134489 1267.122258 949.212370 1257.911076 940.818693 C1243.377751 927.575407 1233.167058 910.729460 1222.034733 894.744230 C1215.090398 884.772795 1208.116399 874.606047 1202.921574 863.686735 C1196.324773 849.820890 1191.317326 835.177092 1186.013615 820.725920 C1182.927800 812.317228 1180.604191 803.628752 1177.937566 794.066130 z"/><path class="selected"  fill="#000000" opacity="1.000000" stroke="none" 
 	d="
M457.937566 876.066130 C451.226384 863.681730 450.997136 851.094206 452.107976 838.603361 C453.001164 828.560515 458.027409 819.571623 463.779301 811.588102 C468.689763 804.772551 473.128789 797.119108 482.121892 793.914152 C489.926884 791.132536 499.139226 793.109953 504.013554 799.494230 C506.435002 802.665617 509.738225 805.148771 512.495610 808.081389 C519.991765 816.053434 528.723271 822.557951 534.317326 832.700407 C539.614445 842.304411 538.847295 852.017424 537.365056 861.103239 C535.231694 874.180388 527.533574 884.778898 515.389653 891.732145 C498.299260 901.517790 475.050847 901.630583 461.431706 880.622892 C460.545842 879.256437 459.114934 878.243498 457.937566 876.066130 z"/><path class="selected"  fill="#000000" opacity="1.000000" stroke="none" 
 	d="
M340.437566 912.566130 C347.517522 912.799040 350.381840 907.235441 353.153630 903.392424 C357.045537 897.996550 359.366826 891.379362 361.838872 885.080290 C363.371098 881.175993 364.773991 877.624968 362.313542 872.596037 C359.188115 866.207853 366.019231 858.322233 373.317692 858.066130 C386.396977 857.607145 391.583623 863.137419 392.030461 876.705778 C392.466435 889.942473 387.254704 901.008635 381.060734 912.216032 C375.292546 922.653166 367.988286 931.148161 357.790410 937.185637 C354.862736 938.918913 351.865849 941.732756 348.809697 941.859587 C326.866643 942.770353 305.342839 942.606901 287.083012 926.701506 C280.230290 920.732390 273.712407 914.990446 269.833806 906.854216 C265.166936 897.064543 262.495793 887.057951 264.920720 875.769743 C266.454106 868.632292 268.515996 861.912321 271.998418 855.665617 C277.548649 845.709929 288.442021 844.985441 294.208928 853.422941 C297.387395 858.073332 296.366765 863.197477 294.802067 868.217009 C293.788457 871.469206 292.730107 874.720182 291.965764 878.034880 C289.087163 890.519865 297.107060 898.195890 305.523076 904.210661 C315.487675 911.332243 326.838505 916.502531 340.437566 912.566130 z"/><path class="selected"  fill="#000000" opacity="1.000000" stroke="none" 
 	d="
M171.937566 806.066130 C175.194096 809.656096 178.622685 812.059050 181.676457 814.869230 C192.723271 825.035490 200.422246 837.338102 201.772649 852.428434 C203.141240 867.721647 191.306340 886.629362 174.693059 892.958098 C159.972172 898.566008 148.052373 894.840422 136.698857 887.380705 C128.579350 882.045988 124.827092 872.365202 124.150517 862.875334 C122.625859 841.489714 129.875188 822.546354 143.171513 805.940641 C146.822026 801.381437 151.323857 798.458830 157.823979 797.786955 C164.779118 797.068083 168.026799 801.154997 171.937566 806.066130 z"/></svg>