<?xml version="1.0" encoding="utf-8"?><!DOCTYPE svg PUBLIC "-//W3C//DTD SVG 1.1//EN" "http://www.w3.org/Graphics/SVG/1.1/DTD/svg11.dtd"><svg version="1.1" id="Contours" xmlns="http://www.w3.org/2000/svg" xmlns:xlink="http://www.w3.org/1999/xlink" x="0px" y="0px" width="1806.722778px" height="1806.722778px" viewBox="-0.000007 0.000025 1806.722778 1376.245850" enable-background="new 0 0 1806.722778 1806.722778" xml:space="preserve" stroke="black" fill="none" stroke-linecap='round' stroke-linejoin='round'><path class="selected"  fill="#000000" opacity="1.000000" stroke="none" 
 	d="
M1312.329780 832.277807 C1298.845405 853.226660 1285.033149 872.891577 1270.101142 891.847143 C1251.856513 915.008032 1231.056586 935.693701 1209.546088 955.500219 C1190.830024 972.733373 1170.501411 988.244726 1149.396552 1002.806127 C1130.798163 1015.638159 1111.483954 1026.989477 1092.092597 1038.431249 C1068.550483 1052.322363 1043.183417 1061.867895 1018.182319 1072.478002 C991.212226 1083.923803 962.794135 1090.230444 934.810615 1098.030493 C922.382392 1101.494848 909.187934 1102.164526 896.375312 1104.306982 C881.026313 1106.873632 865.394477 1106.807104 850.096259 1108.766210 C834.577582 1110.753637 819.034003 1111.257421 803.936957 1109.639501 C792.508369 1108.414892 780.944160 1109.205664 769.428412 1106.757055 C759.282050 1104.599706 748.523261 1104.483984 738.193549 1102.268652 C725.038520 1099.447241 711.741523 1097.129736 698.782050 1093.585302 C667.691962 1085.082006 638.064155 1072.730566 610.061469 1056.815771 C594.470161 1047.954809 579.009345 1038.736303 565.535956 1026.600439 C558.864570 1020.591650 551.630683 1015.204321 544.575629 1009.631689 C544.179877 1009.318945 542.530829 1009.704199 542.419623 1010.061621 C541.587836 1012.733740 540.589789 1015.452734 540.399970 1018.208959 C539.570136 1030.253149 539.322211 1042.345434 538.207343 1054.359350 C537.541572 1061.534521 535.462714 1068.567358 534.389655 1075.719702 C533.437324 1082.066381 533.226874 1088.524145 532.284614 1094.872900 C529.886420 1111.030981 527.412116 1127.123266 522.968146 1142.961279 C519.574470 1155.056127 518.629157 1167.822241 516.284553 1180.231176 C513.664252 1194.099340 511.036017 1207.982641 507.768134 1221.706274 C505.115546 1232.845922 502.001838 1243.930151 498.227851 1254.737036 C490.344001 1277.312719 479.587409 1298.373510 463.347419 1316.276586 C457.871528 1322.313207 452.909553 1328.879370 447.000373 1334.447485 C429.669318 1350.778295 409.640082 1363.084936 387.547065 1371.844946 C382.950507 1373.667211 377.577582 1373.555883 372.552741 1374.267065 C367.503120 1374.981909 362.230170 1376.858618 357.424201 1376.045385 C342.646369 1373.544164 327.850104 1371.688696 313.318000 1366.894018 C297.591620 1361.705541 283.875739 1354.444799 272.161445 1343.074438 C259.866523 1331.140844 253.101569 1315.988745 248.471320 1299.922827 C245.700324 1290.308081 244.812324 1280.160620 242.218696 1270.482885 C238.143928 1255.278539 237.667975 1238.793432 226.913886 1225.840795 C215.623298 1212.241430 201.750800 1202.697241 184.504279 1198.269995 C164.341682 1193.093969 143.784186 1189.601782 124.084907 1182.425512 C104.525092 1175.300024 89.276679 1163.532812 78.648871 1145.636694 C71.502082 1133.602636 67.264045 1120.792333 66.217292 1106.749243 C65.460334 1096.593359 62.313056 1086.456518 62.747382 1076.420141 C63.109382 1068.053808 65.287482 1059.281347 65.723884 1051.030493 C66.392768 1038.384863 70.675666 1026.784277 72.418281 1014.565649 C73.252204 1008.718481 74.874396 1002.964697 76.402900 997.238867 C82.307868 975.119726 78.742194 955.803076 64.631599 939.771093 C56.795966 930.868383 47.256782 923.430883 39.704108 914.322485 C31.415717 904.326635 22.780555 894.601782 15.945106 883.291113 C8.237983 870.538061 3.222632 856.890722 0.741767 842.646704 C-0.766992 833.984228 0.234962 824.680883 1.879462 815.470312 C3.764014 804.915991 6.009986 794.600317 9.167548 784.391455 C14.013892 768.722509 22.691932 755.105932 31.885932 741.821142 C42.306525 726.764013 56.057624 715.406225 71.861945 706.140966 C82.661445 699.809667 93.953132 695.019262 105.921454 691.781591 C114.064338 689.578955 122.371223 686.742163 130.654975 686.566870 C146.355536 686.234716 162.269233 686.376318 177.768134 688.597631 C196.183112 691.236791 214.425239 695.708959 231.793342 702.793920 C250.609870 710.469580 269.249702 718.579199 288.073249 726.237280 C306.328681 733.664404 324.526679 741.308813 343.112556 747.823095 C357.713203 752.940405 373.029975 755.987524 387.728034 760.861059 C402.471137 765.749365 416.471686 772.474462 428.997199 781.910986 C430.229560 782.839331 431.803229 783.332006 432.980475 784.312719 C435.269660 786.219946 436.629157 786.821752 436.350287 782.840185 C435.622809 772.455419 434.602363 762.068456 434.471015 751.672582 C434.386176 744.959204 435.666633 738.228979 436.328803 731.505590 C436.958442 725.112036 435.625068 718.762060 438.043769 712.230810 C440.096564 706.687841 439.737983 700.231176 440.315620 694.166479 C441.961982 676.880346 445.864203 659.957373 450.586555 643.390600 C456.158576 623.842871 462.929328 604.548559 470.569282 585.707739 C476.351264 571.448706 484.435737 558.134497 491.271918 544.289282 C500.138129 526.332983 510.393989 509.239843 522.342536 493.174658 C530.314338 482.456396 538.361518 471.793310 546.457221 461.168188 C561.114570 441.931127 576.967109 423.673559 594.634833 407.204077 C613.503120 389.615454 633.112128 372.894750 653.782905 357.289526 C670.960151 344.321630 688.455634 331.710424 707.008369 321.242895 C732.742377 306.723730 758.806953 292.601904 786.613349 281.813207 C799.211982 276.925024 811.999457 272.271337 824.625434 267.424047 C839.326850 261.780126 854.869086 258.204077 870.207587 254.376684 C885.378486 250.591284 900.721625 247.470190 916.049628 244.354956 C921.350043 243.277685 926.709418 244.392431 932.321113 242.659643 C939.559638 240.424780 947.636786 240.665136 955.373847 240.332617 C974.754584 239.499609 994.150336 238.373998 1013.534003 238.476415 C1026.674872 238.545629 1039.848090 239.750585 1052.896186 242.150122 C1063.560370 244.110937 1074.557197 244.316137 1085.179633 246.436010 C1098.594550 249.113378 1111.839301 252.724096 1125.050239 256.325292 C1149.837836 263.082495 1173.616279 272.694433 1196.355170 284.468847 C1214.966132 294.105932 1233.213325 304.604589 1249.383613 318.263403 C1259.937812 327.178808 1270.881782 335.632665 1281.441474 344.541723 C1283.800605 346.532080 1285.128974 349.699804 1287.235419 352.053930 C1288.201850 353.134008 1289.902778 353.556860 1291.270576 354.277807 C1290.956977 353.045263 1290.579536 351.825170 1290.339423 350.578466 C1287.646186 336.596044 1285.718085 322.584326 1286.228583 308.239477 C1286.702338 294.924902 1286.112495 281.575659 1286.380805 268.249487 C1286.779365 248.461523 1290.700995 229.201391 1295.491401 210.059301 C1302.592597 181.683203 1314.815497 155.488867 1327.841254 129.445898 C1338.534003 108.067480 1348.737617 86.472509 1362.418891 66.822363 C1370.602851 55.067846 1379.199531 43.862280 1390.532661 34.369177 C1402.332099 24.485693 1414.271186 15.154211 1427.799140 8.038610 C1434.286689 4.626196 1441.458442 1.292700 1448.592963 0.553198 C1473.497748 -2.028406 1493.128974 3.867040 1506.331122 30.146581 C1512.441840 42.310583 1518.720161 54.363378 1521.149726 68.018530 C1523.035102 78.615026 1524.477851 88.676489 1522.949164 99.936498 C1520.586860 117.336401 1521.024848 135.984106 1536.349799 148.895605 C1542.349921 153.950781 1550.057197 157.732519 1557.614692 160.025122 C1571.935493 164.369238 1586.613471 167.528417 1601.318305 170.615942 C1622.326362 175.026586 1642.342475 182.464941 1659.644477 196.331274 C1677.736274 210.830786 1687.073676 229.869360 1692.385200 251.694921 C1696.031440 266.676000 1695.085395 281.950781 1693.888862 296.838476 C1692.696235 311.671118 1686.939887 326.086035 1684.979926 340.921362 C1682.747260 357.823583 1679.714301 374.849462 1684.185248 392.098608 C1687.535346 405.024755 1696.613471 413.172827 1706.574164 420.039160 C1716.713569 427.028906 1728.075873 432.293676 1739.088569 437.952246 C1749.789985 443.450781 1760.184760 449.326635 1768.842231 457.816992 C1775.701850 464.543920 1783.117621 470.853369 1789.071967 478.317114 C1797.084174 488.360815 1801.870063 500.001684 1804.652045 512.858496 C1807.001411 523.717382 1807.233344 534.593359 1805.942817 545.047582 C1803.810737 562.319921 1797.865424 578.860693 1788.014350 593.484472 C1773.624946 614.845190 1754.491401 631.093969 1732.506537 644.364355 C1712.705512 656.316625 1691.467963 664.512548 1669.209907 670.183813 C1659.181098 672.738989 1648.844672 674.058447 1638.733100 676.320532 C1612.828315 682.116064 1586.547797 679.869482 1560.391059 680.259130 C1547.465400 680.451635 1534.765937 677.200048 1522.037055 676.694677 C1504.952949 676.016577 1488.809150 671.279028 1472.471381 667.820288 C1460.030829 665.186743 1448.177802 658.997045 1436.584907 653.323828 C1419.468940 644.947973 1403.589057 634.533300 1389.975287 620.962866 C1386.180732 617.180395 1383.827338 617.962377 1382.362128 623.274633 C1382.191352 623.893652 1382.328925 624.598730 1382.330268 625.264013 C1382.368110 643.560034 1379.006782 661.322851 1374.404243 678.962011 C1370.702338 693.149633 1368.729316 707.869482 1364.068671 721.706274 C1357.787665 740.353613 1350.319770 758.679785 1342.142402 776.587255 C1334.193061 793.995092 1324.737861 810.717138 1315.835029 827.683447 C1315.089789 829.103491 1313.517646 830.089941 1312.329780 832.277807 M1338.329658 703.277685 C1338.802070 702.805273 1339.570136 702.404150 1339.703681 701.850195 C1343.285468 686.993994 1348.055732 672.282324 1349.983710 657.208349 C1351.986030 641.554174 1355.559760 625.915747 1354.357490 609.915991 C1354.236152 608.300146 1353.860908 606.108496 1354.702827 605.126318 C1357.246772 602.158178 1357.000190 599.398657 1355.248847 596.358740 C1353.401069 598.883764 1349.475287 600.096411 1350.283515 604.328222 C1350.379096 604.828100 1349.887275 605.476538 1349.586494 606.010229 C1341.819404 619.791235 1334.649848 633.956762 1326.120917 647.249609 C1313.723456 666.571508 1300.546088 685.405859 1287.315009 704.175756 C1277.985053 717.411352 1268.598212 730.689062 1258.155463 743.033300 C1248.871650 754.007665 1240.664863 766.161352 1228.778632 774.713720 C1224.226142 777.989233 1218.613959 781.773779 1213.280707 779.823339 C1203.981879 776.422949 1197.450995 766.668676 1206.925483 756.695654 C1208.761298 754.763281 1210.798286 753.014501 1212.555976 751.016943 C1221.785834 740.527441 1231.371650 730.314550 1240.032661 719.371557 C1249.255805 707.718237 1257.364936 695.190283 1266.352851 683.341894 C1281.351630 663.570165 1296.080756 643.688574 1306.688911 621.051245 C1310.363105 613.210668 1315.142768 605.892797 1319.310004 598.277441 C1327.337470 583.608251 1336.176459 569.741430 1338.893622 552.254492 C1341.253242 537.067602 1339.868598 522.630956 1335.885932 508.787817 C1331.512641 493.587499 1324.532172 478.903539 1312.607490 467.468481 C1311.541083 466.445776 1311.145209 464.752294 1310.312568 463.450537 C1309.183661 461.685766 1308.317451 459.348486 1306.675849 458.378759 C1290.700507 448.942114 1274.436835 439.886694 1256.645209 434.413793 C1240.264472 429.374975 1223.989326 423.839941 1206.682807 422.121191 C1194.765693 420.937719 1183.050483 417.169897 1171.144355 416.576513 C1158.155097 415.928808 1145.049384 417.609838 1131.995063 418.285864 C1131.691352 418.301611 1131.395698 418.445898 1131.092597 418.513159 C1118.361762 421.340551 1106.160224 425.651831 1094.345649 431.184912 C1088.520942 433.912573 1080.998481 432.166113 1078.329780 427.995214 C1073.823798 420.952734 1074.410224 415.822363 1079.675361 409.849462 C1086.865180 401.693212 1096.603950 397.146093 1106.347968 394.674169 C1121.427070 390.848730 1136.841010 387.254248 1152.755561 388.244970 C1166.133369 389.077734 1179.595283 386.908666 1192.955268 390.122412 C1199.461860 391.687475 1206.728095 390.479833 1213.011786 392.507177 C1227.221137 397.091162 1241.970038 399.298925 1256.255561 403.806738 C1274.923408 409.697363 1292.383002 416.999243 1307.931586 428.837011 C1308.493720 429.264746 1309.327094 429.336035 1310.034003 429.573461 C1310.132514 428.614477 1310.670966 427.350195 1310.253730 426.749243 C1308.430366 424.122289 1305.993598 421.885717 1304.383979 419.151464 C1293.186713 400.128881 1278.932441 383.582739 1263.217597 368.250097 C1256.674506 361.866064 1249.747016 355.866918 1242.851630 349.856298 C1238.252875 345.847387 1233.623237 341.810034 1228.626777 338.332373 C1206.137519 322.679540 1182.596137 308.809545 1157.224799 298.335668 C1136.900458 289.945288 1115.978095 283.254736 1094.536445 278.317236 C1085.560370 276.250097 1076.175971 275.649633 1067.354804 273.689306 C1054.508124 270.834204 1041.466254 268.931372 1028.692573 268.717993 C1003.675849 268.300634 978.527411 266.157202 953.524848 270.173193 C945.242499 271.503515 936.755561 271.523168 928.377631 272.308447 C922.651801 272.845068 916.853095 273.217138 911.262153 274.454565 C897.572822 277.484716 883.919745 280.729467 870.375068 284.348242 C857.515449 287.783789 844.582587 291.175878 832.101508 295.735571 C818.236518 300.800634 804.343207 305.789282 790.789863 311.876318 C778.723456 317.295507 766.407905 322.312841 754.676703 328.415258 C741.736884 335.146093 729.412421 343.050024 716.713691 350.255956 C690.190986 365.306127 665.909370 383.557958 642.716254 403.169287 C628.633002 415.077612 615.593696 428.257665 602.483344 441.267431 C593.160712 450.518652 584.071723 460.080297 575.670356 470.163183 C567.560370 479.896581 560.738227 490.691625 552.862739 500.634130 C539.952949 516.932104 529.122016 534.627050 519.237189 552.749853 C509.518745 570.567846 500.770881 588.955297 493.360847 607.992285 C484.443610 630.901464 477.477424 654.284643 472.347053 678.266210 C470.347968 687.610571 469.422797 697.145239 467.938544 706.538671 C466.286201 716.995581 464.909308 727.530981 464.640632 737.945898 C464.235908 753.631079 464.331183 769.342260 465.792365 785.150610 C467.210517 800.493749 471.137824 815.321997 472.476569 830.594457 C472.844489 834.792578 474.926459 838.859838 476.402717 842.921484 C476.632697 843.554296 477.870978 844.228124 478.573920 844.160986 C479.208320 844.100439 479.987922 843.150854 480.292609 842.421606 C483.378852 835.035009 486.059516 827.462011 489.463996 820.228491 C501.794257 794.029760 516.918342 769.394873 532.627875 745.143774 C539.337348 734.786108 546.222236 724.269018 554.649848 715.358984 C568.700263 700.504370 583.888373 686.703466 598.907783 672.794042 C615.278998 657.632543 633.093329 644.422216 652.367866 633.014135 C669.455756 622.900366 686.577338 612.918554 705.381293 606.490942 C713.068183 603.863623 721.010566 601.112280 729.662421 602.137914 C735.291083 602.805029 740.636298 605.030737 741.928657 609.800268 C743.343574 615.022924 743.959540 621.415136 737.906928 625.957495 C733.842475 629.007910 729.336127 629.441870 724.896918 630.904150 C706.048530 637.112890 688.590156 646.161474 671.218574 655.880712 C644.453437 670.855566 621.792304 690.783178 599.054389 710.743261 C587.535346 720.855322 577.642402 732.595678 568.496406 744.990454 C552.678779 766.427099 538.971259 789.138769 526.349860 812.542944 C522.390449 819.885107 519.048835 827.583959 514.760322 834.720434 C505.969916 849.348364 498.890693 864.761816 493.118415 880.750952 C492.076606 883.636572 492.742194 887.769262 494.004340 890.737280 C497.741279 899.525610 501.837043 908.206274 506.501105 916.532080 C508.261115 919.673803 511.607062 923.183691 514.852302 923.975439 C521.665229 925.637792 528.900641 926.261450 535.944221 926.149999 C553.671088 925.869482 571.383002 924.722265 589.109931 924.356054 C600.851386 924.113500 612.559150 924.973364 624.305732 925.846289 C638.217475 926.879736 652.328559 926.867773 666.497260 924.660986 C680.290717 922.512548 694.532905 924.564794 708.650458 922.634985 C718.110419 921.342016 727.623359 920.885961 736.960395 918.354589 C759.597114 912.217626 781.489814 904.630834 800.052558 889.592138 C805.583320 885.111547 810.984077 885.150610 816.397529 889.345556 C822.108100 893.770605 823.071113 899.257055 820.440864 906.099096 C818.235053 911.836889 814.445380 916.367285 809.781440 919.579565 C795.184760 929.633764 778.721137 936.419653 762.103583 941.882665 C748.805610 946.254492 734.881660 949.165014 720.614692 950.798803 C707.824409 952.263525 694.866401 953.569433 682.209418 953.851660 C634.574775 954.913793 586.902289 954.270361 539.243964 954.309912 C537.683295 954.311254 536.123054 954.789282 534.562568 955.045019 C535.349921 956.654272 535.769233 958.644506 536.980781 959.814550 C551.228339 973.573217 565.472358 987.340185 579.965278 1000.838842 C593.211005 1013.175512 608.678046 1022.423315 624.368354 1031.203832 C635.146186 1037.235327 646.080756 1043.092504 657.360297 1048.091039 C667.479926 1052.575537 678.211982 1055.660131 688.591987 1059.579321 C704.081977 1065.427954 720.079536 1069.254125 736.311469 1072.332128 C745.708564 1074.114233 755.120307 1075.487158 764.600043 1076.731542 C775.048286 1078.103002 785.597236 1079.809179 796.002143 1080.004370 C825.480048 1080.557592 854.935615 1080.769140 884.381660 1076.692358 C898.562202 1074.728979 912.915717 1072.825781 926.720038 1069.775244 C949.018134 1064.847753 971.348701 1059.207617 992.762031 1050.827856 C1008.247260 1044.767919 1023.791083 1038.839697 1039.121406 1032.405981 C1064.600410 1021.712988 1088.533393 1007.934667 1111.912421 993.401464 C1137.309516 977.613867 1161.081611 959.352636 1183.620429 939.701757 C1196.065375 928.851660 1207.067451 916.358251 1218.885322 904.774267 C1230.324286 893.561865 1240.747260 881.519628 1250.836371 869.066381 C1260.657905 856.943456 1269.917060 844.491796 1278.289130 831.372656 C1284.826606 821.128393 1290.996650 810.649633 1297.331855 800.276342 C1308.153632 782.556127 1317.056586 763.897192 1324.296577 744.458471 C1329.138251 731.459326 1333.663154 718.342260 1338.329658 703.277685 M381.329780 790.277807 C371.837592 787.452368 362.151984 785.147192 352.889777 781.703222 C325.755134 771.613500 298.717353 761.252783 271.779304 750.648413 C249.717414 741.963598 228.268867 731.596289 205.552253 724.738500 C189.186469 719.797949 172.515876 715.445654 155.046943 716.220556 C147.397224 716.560034 139.680915 715.801855 132.067390 716.426733 C125.856696 716.936254 119.690864 718.512914 113.616401 720.054785 C100.172797 723.467138 88.560432 730.192114 76.938483 737.908544 C62.286078 747.637670 52.791633 761.121801 44.627326 775.566870 C38.122993 787.074926 34.153876 799.835058 31.877143 813.316748 C29.010505 830.291601 29.645820 846.254858 36.915107 861.847998 C41.942939 872.632910 49.572272 881.617407 57.463203 890.299047 C68.541511 902.487768 80.687690 913.761328 91.151374 926.437963 C101.687324 939.202123 106.823005 954.574194 108.434028 971.223242 C110.051581 987.940893 105.587531 1003.907080 101.490302 1019.465551 C97.638495 1034.092138 94.549262 1048.876074 92.775031 1063.634985 C90.546821 1082.170263 92.151801 1101.076391 98.381660 1119.064062 C104.303535 1136.162206 115.564826 1147.847753 132.859931 1154.478491 C149.550361 1160.877416 167.006904 1163.805883 184.110908 1168.326879 C196.374213 1171.568090 209.124152 1173.454565 219.414069 1182.154760 C224.139716 1186.150610 230.424750 1188.327612 235.055427 1192.405248 C244.733588 1200.927221 254.145270 1209.833227 259.274482 1222.187475 C266.022651 1238.441625 268.831733 1255.723852 272.154365 1272.800268 C274.972236 1287.281957 277.270698 1301.797094 286.388801 1313.911108 C293.933723 1323.935034 302.466193 1332.190405 315.149421 1336.699682 C326.682136 1340.800024 338.294623 1344.122289 350.193000 1345.989233 C357.435432 1347.125952 365.187141 1345.893774 372.596686 1344.889135 C384.611030 1343.260229 394.564033 1336.554663 404.464789 1330.214575 C429.837653 1313.966528 449.069282 1292.168676 462.532783 1265.167700 C468.088080 1254.026586 472.408820 1242.531713 475.206916 1230.419164 C478.858161 1214.613745 483.725532 1198.990209 485.988959 1182.993872 C487.896125 1169.515600 491.642097 1156.578466 494.267158 1143.340429 C496.954108 1129.790502 500.017524 1116.301367 502.215522 1102.672582 C504.100654 1090.983496 504.935004 1079.127539 506.368232 1067.361547 C506.784919 1063.941503 507.359931 1060.482397 508.389472 1057.206884 C510.990851 1048.930029 508.694648 1040.056738 510.791205 1032.145239 C512.549689 1025.509374 511.504401 1019.229345 512.270698 1012.849218 C512.367499 1012.043188 511.659980 1011.140356 511.325080 1010.282324 C510.618110 1010.989355 509.602973 1011.571020 509.256293 1012.424414 C507.518012 1016.703955 506.444343 1021.323828 504.242316 1025.332373 C496.115424 1040.126806 487.683173 1054.657934 477.596381 1068.358129 C458.864936 1093.800024 438.251533 1117.474829 415.896003 1139.713110 C414.005988 1141.593481 412.124885 1143.482763 410.239692 1145.367895 C403.210944 1152.396826 396.431586 1159.699926 389.085334 1166.379614 C381.232978 1173.519506 370.190314 1171.217993 366.724067 1161.438696 C364.654426 1155.599706 367.313605 1150.330664 371.710334 1145.796362 C383.641547 1133.492163 395.703193 1121.280248 407.011359 1108.414892 C420.847602 1092.672949 433.890449 1076.236303 447.427436 1060.227758 C457.847968 1047.904516 466.638679 1034.460790 474.218879 1020.313085 C482.658515 1004.561498 489.763984 988.160253 496.666694 971.640234 C499.816901 964.100805 500.673469 958.392309 495.293830 952.249975 C494.855659 951.749731 494.224311 951.379248 493.903510 950.821386 C484.926398 935.215063 475.773994 919.703955 467.122687 903.918554 C463.570807 897.437597 464.087775 897.214086 457.484199 900.099462 C452.970954 902.071508 448.475715 904.142431 443.819892 905.718603 C432.995246 909.383154 422.190436 913.191137 411.167121 916.159765 C400.303718 919.085546 389.158088 920.948706 378.181586 923.474829 C372.133979 924.866796 366.217963 926.827734 360.173835 928.237158 C352.245002 930.085913 344.254584 931.673559 336.279426 933.319433 C324.914802 935.664770 313.616584 938.508154 302.146613 940.115087 C291.867072 941.555029 281.360175 941.294164 271.016852 942.383764 C263.513923 943.174169 256.105048 944.895727 248.671454 946.293676 C243.010261 947.358129 233.613471 942.955053 232.329841 938.520849 C230.368415 931.745825 234.536811 922.415624 241.271003 920.548925 C246.752143 919.029394 252.675300 919.185888 258.341926 918.237890 C273.586188 915.687841 288.793952 912.920263 304.024543 910.287329 C312.447944 908.831030 320.963447 907.510473 329.278632 905.887426 C350.947394 901.658422 372.378364 896.032568 393.677558 890.144262 C411.238349 885.289282 428.533637 879.437353 445.826179 873.666357 C452.801154 871.338476 453.145026 869.198217 451.229682 862.077368 C448.637702 852.440649 446.496406 842.677343 444.369880 832.922949 C443.090766 827.055639 440.536872 821.875952 435.555549 818.623388 C418.927558 807.766332 401.925422 797.536718 381.329780 790.277807 M1364.329780 473.277807 C1365.663154 478.389013 1366.581611 483.659399 1368.460883 488.561254 C1369.967231 492.490942 1372.502265 496.085546 1377.589667 496.289160 C1390.546210 496.807226 1403.272040 495.722265 1415.773749 491.928686 C1423.214667 489.670996 1430.851142 488.031347 1438.443549 486.306738 C1446.385688 484.502539 1454.384955 482.950537 1462.351142 481.250830 C1476.621161 478.206152 1490.285224 473.254858 1503.995795 468.353613 C1523.149482 461.507299 1542.069282 454.463720 1557.406196 440.316625 C1562.480903 435.635595 1572.888129 438.166357 1576.329780 444.404272 C1580.078803 451.199438 1578.490668 458.221166 1571.778754 465.867773 C1564.476996 474.186621 1554.528754 478.918188 1545.199286 483.896459 C1534.147529 489.794042 1521.890937 493.585302 1509.916450 497.567358 C1491.303168 503.757177 1472.693793 509.969946 1453.033027 512.437841 C1444.742499 513.478369 1436.744330 516.667333 1428.485541 518.184301 C1416.824164 520.326147 1405.248969 523.537084 1393.161933 522.316625 C1390.522529 522.050146 1387.833320 522.259008 1385.167182 522.281347 C1377.995795 522.341284 1377.174750 523.237036 1378.341620 530.021704 C1379.623847 537.476904 1381.466620 544.868994 1382.224433 552.373510 C1383.496772 564.973242 1382.952338 565.189672 1388.391913 572.829321 C1396.462470 584.163793 1403.306342 596.289770 1415.320380 604.691748 C1425.644599 611.911718 1435.276801 620.122900 1446.721137 625.613134 C1455.885688 630.009741 1464.844672 635.664038 1474.553779 637.901953 C1488.926093 641.214575 1502.930976 645.969213 1518.115180 646.819189 C1530.831245 647.531225 1543.536201 650.401464 1556.482001 650.309912 C1574.477973 650.182470 1592.494086 650.772558 1610.466498 650.110571 C1623.277045 649.638525 1636.404487 649.079321 1648.722114 645.937841 C1667.802924 641.071508 1686.739692 635.262670 1704.547797 626.345922 C1726.591254 615.308203 1746.270209 601.418066 1760.490424 580.958227 C1766.848823 571.809789 1772.918159 562.469457 1774.899848 550.916113 C1776.602973 540.988256 1778.621039 531.569921 1776.725776 521.141821 C1775.044135 511.889990 1772.374457 502.965673 1766.791205 496.298559 C1756.483832 483.989843 1744.342231 473.493872 1729.536567 466.072485 C1714.019721 458.294287 1698.031440 451.179540 1684.173286 440.327978 C1674.614692 432.843115 1666.292914 424.058813 1660.889594 413.436865 C1655.514350 402.869970 1652.161567 391.167822 1652.423041 379.015966 C1652.596625 370.949682 1654.300971 362.893652 1654.188178 354.848730 C1653.993110 340.946020 1659.629828 328.188574 1661.115912 314.627661 C1662.284614 303.966162 1665.270698 293.480078 1666.086860 282.811865 C1666.670112 275.184912 1665.378852 267.328832 1664.244330 259.675634 C1662.325385 246.731176 1657.033149 235.264013 1648.387641 225.253393 C1633.873969 208.448461 1613.428901 203.360571 1593.455268 198.655737 C1576.758002 194.722509 1559.919868 191.408300 1543.534370 186.245581 C1533.304267 183.022436 1523.857734 177.549902 1516.146430 170.605932 C1502.864570 158.645727 1495.355292 142.891821 1494.458930 124.806860 C1493.799995 111.508459 1494.509223 98.147497 1494.238227 84.821997 C1494.135078 79.754248 1493.749946 74.455541 1492.162055 69.707311 C1489.435370 61.553442 1486.235053 53.437780 1482.134345 45.904516 C1479.263129 40.629797 1475.251533 35.412329 1470.474433 31.906164 C1466.184882 28.758032 1460.636298 27.188696 1454.392646 29.011022 C1438.005317 33.793798 1424.466987 43.124060 1411.701362 53.917089 C1391.538886 70.963903 1378.907538 93.611730 1366.511054 116.205480 C1358.224555 131.308325 1352.012397 147.534033 1344.242377 162.939672 C1334.283759 182.684912 1326.976630 203.147314 1322.024238 224.789038 C1317.498115 244.568212 1314.760200 264.424047 1314.521552 284.536840 C1314.295722 303.580175 1315.401313 322.657080 1316.474067 341.688085 C1316.841743 348.209448 1319.831122 354.620947 1319.937690 361.110327 C1320.100287 371.012792 1328.058784 380.225683 1322.426948 390.597875 C1321.987739 391.406713 1322.665229 393.117040 1323.268134 394.148413 C1326.883002 400.331274 1330.608710 406.449804 1334.356879 412.553320 C1334.782172 413.245825 1335.561957 414.131567 1336.212592 414.161474 C1336.896186 414.192846 1337.980536 413.457373 1338.269233 412.788915 C1339.733588 409.398413 1341.173774 405.977880 1342.301459 402.464819 C1350.519355 376.861791 1361.706733 352.499121 1373.332831 328.333227 C1380.424384 313.592871 1387.060981 298.535986 1395.423408 284.529394 C1405.553290 267.562475 1417.237495 251.519140 1428.371161 235.159155 C1430.711860 231.719824 1433.060493 227.926977 1436.318061 225.544775 C1443.282294 220.451635 1455.612617 219.332250 1459.519477 230.304296 C1461.503120 235.875097 1459.817573 240.330541 1456.961005 244.548071 C1449.356879 255.774633 1441.049140 266.543066 1433.804999 277.989721 C1426.173896 290.047827 1419.426948 302.666967 1412.335395 315.064794 C1403.277656 330.900488 1396.393500 347.751684 1389.076118 364.417700 C1381.149116 382.472509 1372.515571 400.215917 1364.386176 418.183935 C1362.065864 423.312475 1359.625922 428.541723 1360.316596 434.500097 C1360.672431 437.569433 1360.094306 440.188330 1357.388862 442.315283 C1353.445502 445.415502 1353.568915 448.731787 1356.056586 453.320288 C1359.254951 459.219946 1360.973701 465.921606 1364.329780 473.277807 z"/></svg>